<?xml version="1.0" encoding="UTF-8" standalone="no"?>
<!-- Generator: Adobe Illustrator 16.0.5, SVG Export Plug-In . SVG Version: 6.00 Build 0)  -->

<svg
   xmlns:dc="http://purl.org/dc/elements/1.1/"
   xmlns:cc="http://creativecommons.org/ns#"
   xmlns:rdf="http://www.w3.org/1999/02/22-rdf-syntax-ns#"
   xmlns:svg="http://www.w3.org/2000/svg"
   xmlns="http://www.w3.org/2000/svg"
   xmlns:sodipodi="http://sodipodi.sourceforge.net/DTD/sodipodi-0.dtd"
   xmlns:inkscape="http://www.inkscape.org/namespaces/inkscape"
   version="1.1"
   id="Layer_1"
   x="0px"
   y="0px"
   width="24"
   height="28"
   viewBox="0 0 24 28"
   enable-background="new 0 0 24 24"
   xml:space="preserve"
   inkscape:version="0.91 r13725"
   sodipodi:docname="amazon.svg"><metadata
     id="metadata11"><rdf:RDF><cc:Work
         rdf:about=""><dc:format>image/svg+xml</dc:format><dc:type
           rdf:resource="http://purl.org/dc/dcmitype/StillImage" /><dc:title /></cc:Work></rdf:RDF></metadata><defs
     id="defs9" /><sodipodi:namedview
     pagecolor="#ffffff"
     bordercolor="#666666"
     borderopacity="1"
     objecttolerance="10"
     gridtolerance="10"
     guidetolerance="10"
     inkscape:pageopacity="0"
     inkscape:pageshadow="2"
     inkscape:window-width="1600"
     inkscape:window-height="876"
     id="namedview7"
     showgrid="false"
     inkscape:zoom="90.509668"
     inkscape:cx="11.315587"
     inkscape:cy="11.699867"
     inkscape:window-x="0"
     inkscape:window-y="24"
     inkscape:window-maximized="1"
     inkscape:current-layer="Layer_1" /><path
     d="m 20.422461,21.698 c 0.822,-0.067 1.785,-0.092 2.021,0.214 0.328,0.397 -0.376,2.138 -0.682,2.892 -0.094,0.234 0.118,0.328 0.329,0.165 1.057,-0.895 1.503,-2.517 1.525,-3.362 l 0,-0.143 0.002,0 c 0,-0.187 -0.045,-0.329 -0.092,-0.398 C 23.314461,20.807 21.762,20.572 20.422,20.97 l 10e-4,0 c -0.376,0.118 -0.704539,0.284 -1.010539,0.494 -0.235,0.166 -0.188,0.378 0.048,0.353 0.258,-0.045 0.586539,-0.07 0.962539,-0.119 z M 20.422,23.743 C 17.956,25.224 14.761461,26 11.988461,26 7.5244608,26 3.5294608,24.354 0.49846076,21.605 c -0.258,-0.212 -0.047,-0.518 0.258,-0.352 3.26600004,1.903 7.30800004,3.054 11.49000024,3.054 2.63,0 5.473539,-0.492 8.175539,-1.55 l 0.0015,10e-4 c 0.188,-0.07 0.399,-0.164 0.587,-0.236 0.424,-0.188 0.799,0.28 0.377,0.588 l 0,0 c -0.305,0.233 -0.635,0.445 -0.964,0.633 z"
     id="path3"
     inkscape:connector-curvature="0"
     style="clip-rule:evenodd;fill:#231f20;fill-rule:evenodd"
     sodipodi:nodetypes="cccccccccccccccsccsccccccc" /><path
     d="m 11.873,19.924 c -0.663,0.167 -1.383539,0.275 -2.2695392,0.275 -2.657,0 -4.758,-1.66 -4.758,-4.923 0,-2.6 1.383,-4.372 3.429,-5.2 C 9.3264608,9.581 10.599,9.356 11.873,9.189 l 4.61e-4,0 c 0.828,-0.11 1.66,-0.164 2.38,-0.22 l 0,-0.442 c 0,-0.775 0.054,-1.661 -0.39,-2.322 -0.387,-0.553 -1.107,-0.832 -1.771,-0.832 l -0.22,0 5.39e-4,0 c -1.108,0.11 -2.1025392,0.717 -2.3795392,1.938 -0.056,0.275 -0.222,0.55 -0.553,0.607 l -3.099,-0.389 c -0.221,-0.053 -0.552,-0.218 -0.442,-0.663 C 6.0624608,3.383 9.0499998,2.163 11.873,2 l -5.39e-4,0 0.667,0 c 1.545,0 3.537,0.439 4.81,1.602 1.55,1.441 1.383,3.377 1.383,5.478 l 0,4.979 c 0,1.494 0.608,2.159 1.218,2.933 0.166,0.278 0.223,0.609 -0.055,0.831 -0.605,0.555 -1.771,1.548 -2.436,2.103 l 0,0 c -0.221,0.167 -0.498,0.167 -0.773,0.055 -1.05,-0.885 -1.218,-1.273 -1.826,-2.101 -1.052,1.106 -1.939,1.713 -2.987,2.045 z m 4.61e-4,-2.933 c 0.717,-0.166 1.383,-0.663 1.77,-1.438 0.664,-1.106 0.61,-2.104 0.61,-3.373 l 0,0 0,-0.665 c -0.831,0 -1.663,0.055 -2.38,0.221 L 11.873,11.735 c -1.329,0.389 -2.3795392,1.216 -2.3795392,2.989 0,1.383 0.7200002,2.324 1.9360002,2.324 0.167,0 0.443539,-0.058 0.443539,-0.058 z"
     id="path5"
     inkscape:connector-curvature="0"
     style="clip-rule:evenodd;fill:#231f20;fill-rule:evenodd"
     sodipodi:nodetypes="ccsscccscsccccccccscssccccccccccccccccscc" /></svg>