<?xml version="1.0" encoding="utf-8"?>
<!-- Generator: Adobe Illustrator 16.0.5, SVG Export Plug-In . SVG Version: 6.00 Build 0)  -->
<!DOCTYPE svg PUBLIC "-//W3C//DTD SVG 1.1//EN" "http://www.w3.org/Graphics/SVG/1.1/DTD/svg11.dtd">
<svg version="1.1" id="Layer_1" xmlns="http://www.w3.org/2000/svg" xmlns:xlink="http://www.w3.org/1999/xlink" x="0px" y="0px"
	 width="24px" height="24px" viewBox="0 0 24 24" enable-background="new 0 0 24 24" xml:space="preserve">
<path fill-rule="evenodd" clip-rule="evenodd" fill="#231F20" d="M21.387,21.11c-0.305,0.233-0.635,0.445-0.964,0.633v-0.985
	c0.188-0.07,0.399-0.164,0.587-0.236C21.434,20.334,21.809,20.802,21.387,21.11L21.387,21.11z M23.617,19.464
	c0-0.187-0.045-0.329-0.092-0.398c-0.211-0.259-1.763-0.494-3.103-0.096v0.728c0.822-0.067,1.785-0.092,2.021,0.214
	c0.328,0.397-0.376,2.138-0.682,2.892c-0.094,0.234,0.118,0.328,0.329,0.165c1.057-0.895,1.503-2.517,1.525-3.362V19.464z
	 M20.423,21.743C17.957,23.224,14.761,24,11.988,24c-4.464,0-8.459-1.646-11.49-4.395c-0.258-0.212-0.047-0.518,0.258-0.352
	c3.266,1.903,7.308,3.054,11.49,3.054c2.63,0,5.474-0.492,8.176-1.55V21.743L20.423,21.743z M20.423,18.97
	c-0.376,0.118-0.705,0.284-1.011,0.494c-0.235,0.166-0.188,0.378,0.048,0.353c0.258-0.045,0.587-0.07,0.963-0.119V18.97z"/>
<path fill-rule="evenodd" clip-rule="evenodd" fill="#231F20" d="M11.873,17.925v-2.934c0.717-0.166,1.383-0.663,1.77-1.438
	c0.664-1.106,0.61-2.104,0.61-3.373l0,0V9.515c-0.831,0-1.663,0.055-2.38,0.221V7.189c0.828-0.11,1.66-0.164,2.38-0.22V6.527
	c0-0.775,0.054-1.661-0.39-2.322c-0.387-0.553-1.107-0.832-1.771-0.832c-0.11,0-0.166,0-0.22,0V0c0.22,0,0.441,0,0.667,0
	c1.545,0,3.537,0.439,4.81,1.602c1.55,1.441,1.383,3.377,1.383,5.478v4.979c0,1.494,0.608,2.159,1.218,2.933
	c0.166,0.278,0.223,0.609-0.055,0.831c-0.605,0.555-1.771,1.548-2.436,2.103l0,0c-0.221,0.167-0.498,0.167-0.773,0.055
	c-1.05-0.885-1.218-1.273-1.826-2.101C13.808,16.986,12.921,17.593,11.873,17.925L11.873,17.925z M11.873,0v3.373
	c-1.108,0.11-2.103,0.717-2.38,1.938C9.437,5.586,9.271,5.861,8.94,5.918L5.841,5.529C5.62,5.476,5.289,5.311,5.399,4.866
	C6.062,1.383,9.05,0.163,11.873,0L11.873,0z M11.873,7.189v2.546c-1.329,0.389-2.38,1.216-2.38,2.989
	c0,1.383,0.72,2.324,1.936,2.324c0.167,0,0.333-0.058,0.444-0.058v2.934c-0.663,0.167-1.384,0.275-2.27,0.275
	c-2.657,0-4.758-1.66-4.758-4.923c0-2.6,1.383-4.372,3.429-5.2C9.326,7.581,10.599,7.356,11.873,7.189z"/>
</svg>
