<?xml version="1.0" encoding="UTF-8" standalone="no"?>
<!-- Generator: Adobe Illustrator 16.0.4, SVG Export Plug-In . SVG Version: 6.00 Build 0)  -->

<svg
   xmlns:dc="http://purl.org/dc/elements/1.1/"
   xmlns:cc="http://creativecommons.org/ns#"
   xmlns:rdf="http://www.w3.org/1999/02/22-rdf-syntax-ns#"
   xmlns:svg="http://www.w3.org/2000/svg"
   xmlns="http://www.w3.org/2000/svg"
   xmlns:sodipodi="http://sodipodi.sourceforge.net/DTD/sodipodi-0.dtd"
   xmlns:inkscape="http://www.inkscape.org/namespaces/inkscape"
   version="1.1"
   id="Layer_1"
   x="0px"
   y="0px"
   width="24px"
   height="24px"
   viewBox="0 0 24 24"
   enable-background="new 0 0 24 24"
   xml:space="preserve"
   inkscape:version="0.48.4 r9939"
   sodipodi:docname="arrow-back-up.svg"><metadata
     id="metadata3062"><rdf:RDF><cc:Work
         rdf:about=""><dc:format>image/svg+xml</dc:format><dc:type
           rdf:resource="http://purl.org/dc/dcmitype/StillImage" /><dc:title></dc:title></cc:Work></rdf:RDF></metadata><defs
     id="defs3060" /><sodipodi:namedview
     pagecolor="#ffffff"
     bordercolor="#666666"
     borderopacity="1"
     objecttolerance="10"
     gridtolerance="10"
     guidetolerance="10"
     inkscape:pageopacity="0"
     inkscape:pageshadow="2"
     inkscape:window-width="1600"
     inkscape:window-height="876"
     id="namedview3058"
     showgrid="false"
     inkscape:zoom="30.375"
     inkscape:cx="12"
     inkscape:cy="12"
     inkscape:window-x="0"
     inkscape:window-y="24"
     inkscape:window-maximized="1"
     inkscape:current-layer="Layer_1" /><g
     id="g3050"
     transform="matrix(-1,0,0,-1,24,24)"><g
       id="g3052"><path
         d="m 15.655,7.34 v 9.266 c 0,1.879 -0.81,3.547 -2.044,4.779 -0.775,0.776 -1.766,1.342 -2.857,1.662 h 5.334 v 0.223 h 0.717 c 1.879,0 3.775,-0.688 5.008,-1.921 C 23.045,20.116 24,18.484 24,16.605 V 7.34 h -8.345 z"
         id="path3054"
         inkscape:connector-curvature="0" /><path
         d="m 13.523,21.385 c -1.232,-1.232 -2.04,-2.9 -2.04,-4.779 V 7.226 H 15.25 L 7.625,0.73 0,7.226 h 3.518 v 9.38 c 0,1.879 0.763,3.51 1.995,4.742 1.233,1.234 2.938,1.922 4.817,1.922 h 6.637 c 0.238,0 0.396,-0.002 0.627,-0.029 -1.593,-0.169 -2.996,-0.784 -4.071,-1.856 z"
         id="path3056"
         inkscape:connector-curvature="0" /></g></g></svg>