<svg xmlns="http://www.w3.org/2000/svg" viewBox="0 0 24 24"><title>audio_ex</title><g id="Layer_2" data-name="Layer 2"><g id="Artwork"><path d="M4.5,13.55V24a6.3,6.3,0,0,0,.75.05H6V13.5H5.25A6.3,6.3,0,0,0,4.5,13.55ZM18,13.5V24h.75A6.3,6.3,0,0,0,19.5,24V13.55a6.3,6.3,0,0,0-.75-.05ZM24,12A12,12,0,0,0,0,12a11.86,11.86,0,0,0,.72,4.1A5.18,5.18,0,0,0,0,18.75a5.25,5.25,0,0,0,3,4.74V14a5.28,5.28,0,0,0-1.29.86,10.5,10.5,0,1,1,20.58,0A5.28,5.28,0,0,0,21,14v9.48a5.25,5.25,0,0,0,3-4.74,5.18,5.18,0,0,0-.72-2.65A11.86,11.86,0,0,0,24,12Z"/></g></g></svg>