<?xml version="1.0" encoding="utf-8"?>
<!-- Generator: Adobe Illustrator 16.0.4, SVG Export Plug-In . SVG Version: 6.00 Build 0)  -->
<!DOCTYPE svg PUBLIC "-//W3C//DTD SVG 1.1//EN" "http://www.w3.org/Graphics/SVG/1.1/DTD/svg11.dtd">
<svg version="1.1" id="Layer_1" xmlns="http://www.w3.org/2000/svg" xmlns:xlink="http://www.w3.org/1999/xlink" x="0px" y="0px"
	 width="24px" height="24px" viewBox="0 0 24 24" enable-background="new 0 0 24 24" xml:space="preserve">
<path d="M7.125,11.114c0,2.661,2.182,4.817,4.875,4.817c2.693,0,4.875-2.156,4.875-4.817c0-2.66-2.182-4.816-4.875-4.816
	C9.308,6.298,7.125,8.455,7.125,11.114z M22.502,2.963H17.25C16.875,1.481,16.5,0,14.999,0H9C7.5,0,7.125,1.481,6.75,2.963H1.499
	C0.675,2.963,0,3.63,0,4.445v13.338c0,0.816,0.675,1.48,1.499,1.48h21.003c0.822,0,1.498-0.664,1.498-1.48V4.445
	C24,3.63,23.324,2.963,22.502,2.963z M12,17.691c-3.676,0-6.656-2.945-6.656-6.577S8.324,4.539,12,4.539
	c3.679,0,6.657,2.944,6.657,6.576S15.679,17.691,12,17.691z M22.502,7.409h-3.003V5.926h3.003V7.409z"/>
</svg>
