<?xml version="1.0" encoding="UTF-8" standalone="no"?>
<!-- Created with Inkscape (http://www.inkscape.org/) -->

<svg
   xmlns:dc="http://purl.org/dc/elements/1.1/"
   xmlns:cc="http://creativecommons.org/ns#"
   xmlns:rdf="http://www.w3.org/1999/02/22-rdf-syntax-ns#"
   xmlns:svg="http://www.w3.org/2000/svg"
   xmlns="http://www.w3.org/2000/svg"
   xmlns:sodipodi="http://sodipodi.sourceforge.net/DTD/sodipodi-0.dtd"
   xmlns:inkscape="http://www.inkscape.org/namespaces/inkscape"
   width="40"
   height="40"
   viewBox="0 0 39.999999 40.000001"
   id="svg2"
   version="1.1"
   inkscape:version="0.92.3 (3ce5693, 2018-03-11)"
   sodipodi:docname="cat-down.svg">
  <defs
     id="defs4" />
  <sodipodi:namedview
     id="base"
     pagecolor="#ffffff"
     bordercolor="#666666"
     borderopacity="1.0"
     inkscape:pageopacity="0.0"
     inkscape:pageshadow="2"
     inkscape:zoom="7.9195959"
     inkscape:cx="-33.193871"
     inkscape:cy="3.7114926"
     inkscape:document-units="px"
     inkscape:current-layer="layer1"
     showgrid="false"
     fit-margin-top="0"
     fit-margin-left="0"
     fit-margin-right="0"
     fit-margin-bottom="0"
     units="px"
     inkscape:window-width="1920"
     inkscape:window-height="1016"
     inkscape:window-x="0"
     inkscape:window-y="27"
     inkscape:window-maximized="1" />
  <metadata
     id="metadata7">
    <rdf:RDF>
      <cc:Work
         rdf:about="">
        <dc:format>image/svg+xml</dc:format>
        <dc:type
           rdf:resource="http://purl.org/dc/dcmitype/StillImage" />
        <dc:title />
      </cc:Work>
    </rdf:RDF>
  </metadata>
  <g
     inkscape:label="Layer 1"
     inkscape:groupmode="layer"
     id="layer1"
     transform="translate(-515.95876,-352.95157)">
    <path
       inkscape:connector-curvature="0"
       style="opacity:1;fill:#000000;fill-opacity:1;stroke:none;stroke-width:1.80270338;stroke-linecap:round;stroke-miterlimit:4;stroke-dasharray:none"
       d="m 552.12531,368.60119 a 16.167103,9.585804 0 0 1 -16.1671,9.5858 16.167103,9.585804 0 0 1 -16.1671,-9.5858 16.167103,9.585804 0 0 1 16.1671,-9.58581 16.167103,9.585804 0 0 1 16.1671,9.58581 z"
       id="path4136" />
    <path
       style="opacity:1;fill:#000000;fill-opacity:1;stroke:none;stroke-width:1.80270338;stroke-linecap:round;stroke-miterlimit:4;stroke-dasharray:none"
       d="m 548.83466,374.03793 c -2.003,6.08425 -6.05112,13.59181 -13.16259,13.59181 -7.11147,0 -10.58731,-7.50756 -12.59031,-13.59181 -1.90256,-5.77914 5.76498,-11.01653 12.87645,-11.01653 7.11147,0 14.77901,5.23739 12.87645,11.01653 z"
       id="path4138"
       inkscape:connector-curvature="0"
       sodipodi:nodetypes="sssss" />
    <path
       sodipodi:nodetypes="sssss"
       inkscape:connector-curvature="0"
       id="path4141"
       d="m 525.22849,368.49365 c -4.36674,-2.28518 -9.55494,-5.71937 -8.65252,-8.49103 0.90242,-2.77166 7.04538,-2.26988 11.92046,-1.54603 4.63061,0.68755 7.63536,4.97103 6.73294,7.74269 -0.90241,2.77167 -5.85312,4.46495 -10.00088,2.29437 z"
       style="opacity:1;fill:#000000;fill-opacity:1;stroke:none;stroke-width:1.03146327;stroke-linecap:round;stroke-miterlimit:4;stroke-dasharray:none" />
    <path
       style="opacity:1;fill:#000000;fill-opacity:1;stroke:none;stroke-width:1.03146327;stroke-linecap:round;stroke-miterlimit:4;stroke-dasharray:none"
       d="m 546.68903,368.49365 c 4.36674,-2.28518 9.55493,-5.71938 8.65252,-8.49103 -0.90243,-2.77166 -7.04539,-2.26989 -11.92047,-1.54604 -4.63061,0.68756 -7.63535,4.97104 -6.73294,7.7427 0.90242,2.77166 5.85313,4.46494 10.00089,2.29437 z"
       id="path4143"
       inkscape:connector-curvature="0"
       sodipodi:nodetypes="sssss" />
    <path
       style="color:#000000;font-style:normal;font-variant:normal;font-weight:normal;font-stretch:normal;font-size:medium;line-height:normal;font-family:sans-serif;text-indent:0;text-align:start;text-decoration:none;text-decoration-line:none;text-decoration-style:solid;text-decoration-color:#000000;letter-spacing:normal;word-spacing:normal;text-transform:none;writing-mode:lr-tb;direction:ltr;baseline-shift:baseline;text-anchor:start;white-space:normal;clip-rule:nonzero;display:inline;overflow:visible;visibility:visible;opacity:1;isolation:auto;mix-blend-mode:normal;color-interpolation:sRGB;color-interpolation-filters:linearRGB;solid-color:#000000;solid-opacity:1;fill:#000000;fill-opacity:1;fill-rule:evenodd;stroke:none;stroke-width:1.72258329;stroke-linecap:round;stroke-linejoin:miter;stroke-miterlimit:4;stroke-dasharray:none;stroke-dashoffset:0;stroke-opacity:1;color-rendering:auto;image-rendering:auto;shape-rendering:auto;text-rendering:auto;enable-background:accumulate"
       d="m 526.86403,381.8523 a 0.86137778,0.86137778 0 0 1 -0.14453,-0.0156 l -8.01172,-1.42968 a 0.86202914,0.86202914 0 0 1 0.30274,-1.69727 l 8.01171,1.43164 a 0.86137778,0.86137778 0 0 1 -0.1582,1.71094 z"
       id="path4157"
       inkscape:connector-curvature="0" />
    <path
       style="color:#000000;font-style:normal;font-variant:normal;font-weight:normal;font-stretch:normal;font-size:medium;line-height:normal;font-family:sans-serif;text-indent:0;text-align:start;text-decoration:none;text-decoration-line:none;text-decoration-style:solid;text-decoration-color:#000000;letter-spacing:normal;word-spacing:normal;text-transform:none;writing-mode:lr-tb;direction:ltr;baseline-shift:baseline;text-anchor:start;white-space:normal;clip-rule:nonzero;display:inline;overflow:visible;visibility:visible;opacity:1;isolation:auto;mix-blend-mode:normal;color-interpolation:sRGB;color-interpolation-filters:linearRGB;solid-color:#000000;solid-opacity:1;fill:#000000;fill-opacity:1;fill-rule:evenodd;stroke:none;stroke-width:1.72258329;stroke-linecap:round;stroke-linejoin:miter;stroke-miterlimit:4;stroke-dasharray:none;stroke-dashoffset:0;stroke-opacity:1;color-rendering:auto;image-rendering:auto;shape-rendering:auto;text-rendering:auto;enable-background:accumulate"
       d="m 527.35426,380.04175 a 0.86137778,0.86137778 0 0 1 -0.3125,-0.0488 l -7.70703,-2.61523 a 0.86137778,0.86137778 0 1 1 0.55274,-1.63086 l 7.70898,2.61523 a 0.86137778,0.86137778 0 0 1 -0.24219,1.67969 z"
       id="path4159"
       inkscape:connector-curvature="0" />
    <path
       style="color:#000000;font-style:normal;font-variant:normal;font-weight:normal;font-stretch:normal;font-size:medium;line-height:normal;font-family:sans-serif;text-indent:0;text-align:start;text-decoration:none;text-decoration-line:none;text-decoration-style:solid;text-decoration-color:#000000;letter-spacing:normal;word-spacing:normal;text-transform:none;writing-mode:lr-tb;direction:ltr;baseline-shift:baseline;text-anchor:start;white-space:normal;clip-rule:nonzero;display:inline;overflow:visible;visibility:visible;opacity:1;isolation:auto;mix-blend-mode:normal;color-interpolation:sRGB;color-interpolation-filters:linearRGB;solid-color:#000000;solid-opacity:1;fill:#000000;fill-opacity:1;fill-rule:evenodd;stroke:none;stroke-width:1.72258329;stroke-linecap:round;stroke-linejoin:miter;stroke-miterlimit:4;stroke-dasharray:none;stroke-dashoffset:0;stroke-opacity:1;color-rendering:auto;image-rendering:auto;shape-rendering:auto;text-rendering:auto;enable-background:accumulate"
       d="m 545.02614,381.8523 a 0.86137778,0.86137778 0 0 1 -0.13086,-1.71094 l 8.01172,-1.43164 a 0.86202826,0.86202826 0 1 1 0.30273,1.69727 l -8.01171,1.42968 a 0.86137778,0.86137778 0 0 1 -0.17188,0.0156 z"
       id="path4170"
       inkscape:connector-curvature="0" />
    <path
       style="color:#000000;font-style:normal;font-variant:normal;font-weight:normal;font-stretch:normal;font-size:medium;line-height:normal;font-family:sans-serif;text-indent:0;text-align:start;text-decoration:none;text-decoration-line:none;text-decoration-style:solid;text-decoration-color:#000000;letter-spacing:normal;word-spacing:normal;text-transform:none;writing-mode:lr-tb;direction:ltr;baseline-shift:baseline;text-anchor:start;white-space:normal;clip-rule:nonzero;display:inline;overflow:visible;visibility:visible;opacity:1;isolation:auto;mix-blend-mode:normal;color-interpolation:sRGB;color-interpolation-filters:linearRGB;solid-color:#000000;solid-opacity:1;fill:#000000;fill-opacity:1;fill-rule:evenodd;stroke:none;stroke-width:1.72258329;stroke-linecap:round;stroke-linejoin:miter;stroke-miterlimit:4;stroke-dasharray:none;stroke-dashoffset:0;stroke-opacity:1;color-rendering:auto;image-rendering:auto;shape-rendering:auto;text-rendering:auto;enable-background:accumulate"
       d="m 544.53591,380.04175 a 0.86137778,0.86137778 0 0 1 -0.21485,-1.67969 l 7.70703,-2.61523 a 0.86137778,0.86137778 0 1 1 0.55274,1.63086 l -7.70703,2.61523 a 0.86137778,0.86137778 0 0 1 -0.33789,0.0488 z"
       id="path4172"
       inkscape:connector-curvature="0" />
  </g>
</svg>
