<?xml version="1.0" encoding="UTF-8" standalone="no"?>
<!-- Created with Inkscape (http://www.inkscape.org/) -->

<svg
   xmlns:dc="http://purl.org/dc/elements/1.1/"
   xmlns:cc="http://creativecommons.org/ns#"
   xmlns:rdf="http://www.w3.org/1999/02/22-rdf-syntax-ns#"
   xmlns:svg="http://www.w3.org/2000/svg"
   xmlns="http://www.w3.org/2000/svg"
   xmlns:sodipodi="http://sodipodi.sourceforge.net/DTD/sodipodi-0.dtd"
   xmlns:inkscape="http://www.inkscape.org/namespaces/inkscape"
   width="40"
   height="40"
   viewBox="0 0 39.999999 40.000001"
   id="svg2"
   version="1.1"
   inkscape:version="0.92.3 (3ce5693, 2018-03-11)"
   sodipodi:docname="cat-up.svg">
  <defs
     id="defs4" />
  <sodipodi:namedview
     id="base"
     pagecolor="#ffffff"
     bordercolor="#666666"
     borderopacity="1.0"
     inkscape:pageopacity="0.0"
     inkscape:pageshadow="2"
     inkscape:zoom="7.9195959"
     inkscape:cx="-33.193871"
     inkscape:cy="3.7114926"
     inkscape:document-units="px"
     inkscape:current-layer="layer1"
     showgrid="false"
     fit-margin-top="0"
     fit-margin-left="0"
     fit-margin-right="0"
     fit-margin-bottom="0"
     units="px"
     inkscape:window-width="1920"
     inkscape:window-height="1016"
     inkscape:window-x="0"
     inkscape:window-y="27"
     inkscape:window-maximized="1" />
  <metadata
     id="metadata7">
    <rdf:RDF>
      <cc:Work
         rdf:about="">
        <dc:format>image/svg+xml</dc:format>
        <dc:type
           rdf:resource="http://purl.org/dc/dcmitype/StillImage" />
        <dc:title />
      </cc:Work>
    </rdf:RDF>
  </metadata>
  <g
     inkscape:label="Layer 1"
     inkscape:groupmode="layer"
     id="layer1"
     transform="translate(-515.95876,-352.95157)">
    <path
       inkscape:connector-curvature="0"
       style="opacity:1;fill:#000000;fill-opacity:1;stroke:none;stroke-width:1.80270338;stroke-linecap:round;stroke-miterlimit:4;stroke-dasharray:none"
       d="m 552.12531,373.02167 a 16.167103,9.585804 0 0 1 -16.1671,9.5858 16.167103,9.585804 0 0 1 -16.1671,-9.5858 16.167103,9.585804 0 0 1 16.1671,-9.58581 16.167103,9.585804 0 0 1 16.1671,9.58581 z"
       id="path4136" />
    <path
       style="opacity:1;fill:#000000;fill-opacity:1;stroke:none;stroke-width:1.80270338;stroke-linecap:round;stroke-miterlimit:4;stroke-dasharray:none"
       d="m 548.83466,378.45841 c -2.003,6.08425 -6.05112,13.59181 -13.16259,13.59181 -7.11147,0 -10.58731,-7.50756 -12.59031,-13.59181 -1.90256,-5.77914 5.76498,-11.01653 12.87645,-11.01653 7.11147,0 14.77901,5.23739 12.87645,11.01653 z"
       id="path4138"
       inkscape:connector-curvature="0"
       sodipodi:nodetypes="sssss" />
    <path
       sodipodi:nodetypes="sssss"
       inkscape:connector-curvature="0"
       id="path4141"
       d="m 520.64354,365.25007 c -0.20435,-4.9243 0.17565,-11.13451 3.02719,-11.73882 2.85153,-0.60431 5.48846,4.96654 7.29913,9.55041 1.71987,4.354 -0.48736,9.09793 -3.3389,9.70224 -2.85154,0.60432 -6.79332,-2.83648 -6.98742,-7.51383 z"
       style="opacity:1;fill:#000000;fill-opacity:1;stroke:none;stroke-width:1.03146327;stroke-linecap:round;stroke-miterlimit:4;stroke-dasharray:none" />
    <path
       style="opacity:1;fill:#000000;fill-opacity:1;stroke:none;stroke-width:1.03146327;stroke-linecap:round;stroke-miterlimit:4;stroke-dasharray:none"
       d="m 551.27289,365.25007 c 0.20435,-4.9243 -0.17566,-11.13451 -3.02719,-11.73882 -2.85154,-0.60431 -5.48847,4.96654 -7.29914,9.55041 -1.71986,4.354 0.48737,9.09793 3.3389,9.70224 2.85154,0.60432 6.79332,-2.83648 6.98743,-7.51383 z"
       id="path4143"
       inkscape:connector-curvature="0"
       sodipodi:nodetypes="sssss" />
    <path
       style="color:#000000;font-style:normal;font-variant:normal;font-weight:normal;font-stretch:normal;font-size:medium;line-height:normal;font-family:sans-serif;text-indent:0;text-align:start;text-decoration:none;text-decoration-line:none;text-decoration-style:solid;text-decoration-color:#000000;letter-spacing:normal;word-spacing:normal;text-transform:none;writing-mode:lr-tb;direction:ltr;baseline-shift:baseline;text-anchor:start;white-space:normal;clip-rule:nonzero;display:inline;overflow:visible;visibility:visible;opacity:1;isolation:auto;mix-blend-mode:normal;color-interpolation:sRGB;color-interpolation-filters:linearRGB;solid-color:#000000;solid-opacity:1;fill:#000000;fill-opacity:1;fill-rule:evenodd;stroke:none;stroke-width:1.72258329;stroke-linecap:round;stroke-linejoin:miter;stroke-miterlimit:4;stroke-dasharray:none;stroke-dashoffset:0;stroke-opacity:1;color-rendering:auto;image-rendering:auto;shape-rendering:auto;text-rendering:auto;enable-background:accumulate"
       d="m 526.86403,380.11328 a 0.86137778,0.86137778 0 0 0 -0.14453,0.0156 l -8.01172,1.42968 a 0.86202914,0.86202914 0 0 0 0.30274,1.69727 l 8.01171,-1.43164 a 0.86137778,0.86137778 0 0 0 -0.1582,-1.71094 z"
       id="path4157"
       inkscape:connector-curvature="0" />
    <path
       style="color:#000000;font-style:normal;font-variant:normal;font-weight:normal;font-stretch:normal;font-size:medium;line-height:normal;font-family:sans-serif;text-indent:0;text-align:start;text-decoration:none;text-decoration-line:none;text-decoration-style:solid;text-decoration-color:#000000;letter-spacing:normal;word-spacing:normal;text-transform:none;writing-mode:lr-tb;direction:ltr;baseline-shift:baseline;text-anchor:start;white-space:normal;clip-rule:nonzero;display:inline;overflow:visible;visibility:visible;opacity:1;isolation:auto;mix-blend-mode:normal;color-interpolation:sRGB;color-interpolation-filters:linearRGB;solid-color:#000000;solid-opacity:1;fill:#000000;fill-opacity:1;fill-rule:evenodd;stroke:none;stroke-width:1.72258329;stroke-linecap:round;stroke-linejoin:miter;stroke-miterlimit:4;stroke-dasharray:none;stroke-dashoffset:0;stroke-opacity:1;color-rendering:auto;image-rendering:auto;shape-rendering:auto;text-rendering:auto;enable-background:accumulate"
       d="m 527.35426,381.92383 a 0.86137778,0.86137778 0 0 0 -0.3125,0.0488 l -7.70703,2.61523 a 0.86137778,0.86137778 0 1 0 0.55274,1.63086 l 7.70898,-2.61523 a 0.86137778,0.86137778 0 0 0 -0.24219,-1.67969 z"
       id="path4159"
       inkscape:connector-curvature="0" />
    <path
       style="color:#000000;font-style:normal;font-variant:normal;font-weight:normal;font-stretch:normal;font-size:medium;line-height:normal;font-family:sans-serif;text-indent:0;text-align:start;text-decoration:none;text-decoration-line:none;text-decoration-style:solid;text-decoration-color:#000000;letter-spacing:normal;word-spacing:normal;text-transform:none;writing-mode:lr-tb;direction:ltr;baseline-shift:baseline;text-anchor:start;white-space:normal;clip-rule:nonzero;display:inline;overflow:visible;visibility:visible;opacity:1;isolation:auto;mix-blend-mode:normal;color-interpolation:sRGB;color-interpolation-filters:linearRGB;solid-color:#000000;solid-opacity:1;fill:#000000;fill-opacity:1;fill-rule:evenodd;stroke:none;stroke-width:1.72258329;stroke-linecap:round;stroke-linejoin:miter;stroke-miterlimit:4;stroke-dasharray:none;stroke-dashoffset:0;stroke-opacity:1;color-rendering:auto;image-rendering:auto;shape-rendering:auto;text-rendering:auto;enable-background:accumulate"
       d="m 545.02614,380.11328 a 0.86137778,0.86137778 0 0 0 -0.13086,1.71094 l 8.01172,1.43164 a 0.86202826,0.86202826 0 0 0 0.30273,-1.69727 l -8.01171,-1.42968 a 0.86137778,0.86137778 0 0 0 -0.17188,-0.0156 z"
       id="path4170"
       inkscape:connector-curvature="0" />
    <path
       style="color:#000000;font-style:normal;font-variant:normal;font-weight:normal;font-stretch:normal;font-size:medium;line-height:normal;font-family:sans-serif;text-indent:0;text-align:start;text-decoration:none;text-decoration-line:none;text-decoration-style:solid;text-decoration-color:#000000;letter-spacing:normal;word-spacing:normal;text-transform:none;writing-mode:lr-tb;direction:ltr;baseline-shift:baseline;text-anchor:start;white-space:normal;clip-rule:nonzero;display:inline;overflow:visible;visibility:visible;opacity:1;isolation:auto;mix-blend-mode:normal;color-interpolation:sRGB;color-interpolation-filters:linearRGB;solid-color:#000000;solid-opacity:1;fill:#000000;fill-opacity:1;fill-rule:evenodd;stroke:none;stroke-width:1.72258329;stroke-linecap:round;stroke-linejoin:miter;stroke-miterlimit:4;stroke-dasharray:none;stroke-dashoffset:0;stroke-opacity:1;color-rendering:auto;image-rendering:auto;shape-rendering:auto;text-rendering:auto;enable-background:accumulate"
       d="m 544.53591,381.92383 a 0.86137778,0.86137778 0 0 0 -0.21485,1.67969 l 7.70703,2.61523 a 0.86137778,0.86137778 0 1 0 0.55274,-1.63086 l -7.70703,-2.61523 a 0.86137778,0.86137778 0 0 0 -0.33789,-0.0488 z"
       id="path4172"
       inkscape:connector-curvature="0" />
  </g>
</svg>
