<?xml version="1.0" encoding="utf-8"?>
<!-- Generator: Adobe Illustrator 16.0.4, SVG Export Plug-In . SVG Version: 6.00 Build 0)  -->
<!DOCTYPE svg PUBLIC "-//W3C//DTD SVG 1.1//EN" "http://www.w3.org/Graphics/SVG/1.1/DTD/svg11.dtd">
<svg version="1.1" id="Layer_1" xmlns="http://www.w3.org/2000/svg" xmlns:xlink="http://www.w3.org/1999/xlink" x="0px" y="0px"
	 width="24px" height="24px" viewBox="0 0 24 24" enable-background="new 0 0 24 24" xml:space="preserve">
<g>
	<path fill-rule="evenodd" clip-rule="evenodd" d="M11.989,24C5.368,24,0,18.627,0,12S5.368,0,11.989,0
		c6.619,0,11.988,5.373,11.988,12S18.607,24,11.989,24 M11.989,2.25c-5.38,0-9.741,4.365-9.741,9.75s4.361,9.75,9.741,9.75
		c5.378,0,9.74-4.365,9.74-9.75S17.367,2.25,11.989,2.25 M16.858,13.125h-2.247h-1.498h-1.125c-0.621,0-1.124-0.503-1.124-1.125
		V5.25c0-0.622,0.503-1.125,1.124-1.125s1.125,0.504,1.125,1.125v5.625h1.498h2.247c0.62,0,1.124,0.504,1.124,1.125
		C17.982,12.622,17.479,13.125,16.858,13.125"/>
</g>
</svg>
