<?xml version="1.0" encoding="utf-8"?>
<!-- Generator: Adobe Illustrator 16.0.4, SVG Export Plug-In . SVG Version: 6.00 Build 0)  -->
<!DOCTYPE svg PUBLIC "-//W3C//DTD SVG 1.1//EN" "http://www.w3.org/Graphics/SVG/1.1/DTD/svg11.dtd">
<svg version="1.1" id="Layer_1" xmlns="http://www.w3.org/2000/svg" xmlns:xlink="http://www.w3.org/1999/xlink" x="0px" y="0px"
	 width="24px" height="24px" viewBox="0 0 24 24" enable-background="new 0 0 24 24" xml:space="preserve">
<path d="M23.427,20.658L14.769,12l8.656-8.657c0.765-0.765,0.765-2.004,0-2.769s-2.004-0.765-2.769,0L12,9.23L3.343,0.573
	c-0.765-0.764-2.004-0.765-2.769,0c-0.765,0.765-0.765,2.004,0,2.77L9.231,12l-8.657,8.659c-0.765,0.765-0.765,2.004,0,2.769
	C0.957,23.809,1.458,24,1.958,24s1.002-0.191,1.384-0.573L12,14.769l8.658,8.658C21.04,23.809,21.541,24,22.042,24
	s1.002-0.191,1.385-0.573C24.191,22.662,24.191,21.422,23.427,20.658z"/>
</svg>
