<?xml version="1.0" encoding="UTF-8" standalone="no"?>
<svg
   xmlns:dc="http://purl.org/dc/elements/1.1/"
   xmlns:cc="http://creativecommons.org/ns#"
   xmlns:rdf="http://www.w3.org/1999/02/22-rdf-syntax-ns#"
   xmlns:svg="http://www.w3.org/2000/svg"
   xmlns="http://www.w3.org/2000/svg"
   xmlns:sodipodi="http://sodipodi.sourceforge.net/DTD/sodipodi-0.dtd"
   xmlns:inkscape="http://www.inkscape.org/namespaces/inkscape"
   viewBox="0 0 24 23.999999"
   version="1.1"
   id="svg10"
   sodipodi:docname="digital.svg"
   width="24"
   height="24"
   inkscape:version="0.92.3 (3ce5693, 2018-03-11)">
  <metadata
     id="metadata16">
    <rdf:RDF>
      <cc:Work
         rdf:about="">
        <dc:format>image/svg+xml</dc:format>
        <dc:type
           rdf:resource="http://purl.org/dc/dcmitype/StillImage" />
        <dc:title>icon_camera</dc:title>
      </cc:Work>
    </rdf:RDF>
  </metadata>
  <defs
     id="defs14" />
  <sodipodi:namedview
     pagecolor="#ffffff"
     bordercolor="#666666"
     borderopacity="1"
     objecttolerance="10"
     gridtolerance="10"
     guidetolerance="10"
     inkscape:pageopacity="0"
     inkscape:pageshadow="2"
     inkscape:window-width="1920"
     inkscape:window-height="1016"
     id="namedview12"
     showgrid="false"
     inkscape:zoom="12.513255"
     inkscape:cx="12"
     inkscape:cy="9.4300003"
     inkscape:window-x="0"
     inkscape:window-y="27"
     inkscape:window-maximized="1"
     inkscape:current-layer="svg10" />
  <title
     id="title2">icon_camera</title>
  <g
     id="Layer_2"
     data-name="Layer 2"
     transform="translate(0,2.57)">
    <g
       id="Layer_1-2"
       data-name="Layer 1">
      <path
         d="m 14.14,6.11 a 4.32,4.32 0 1 0 4.32,4.32 4.32,4.32 0 0 0 -4.32,-4.32 z M 13,12.75 A 2.52,2.52 0 0 1 12.14,10.86 2.55,2.55 0 0 1 14.69,8.31 2.51,2.51 0 0 1 16.63,9.23 4.11,4.11 0 0 0 13,12.75 Z"
         id="path4"
         inkscape:connector-curvature="0" />
      <path
         d="M 22.29,1.71 H 20.57 V 0 H 18.86 V 1.71 H 10.29 A 1.81,1.81 0 0 0 8.57,0 H 5.14 A 1.8,1.8 0 0 0 3.43,1.71 H 1.71 A 1.72,1.72 0 0 0 0,3.43 v 13.71 a 1.72,1.72 0 0 0 1.71,1.72 H 22.29 A 1.72,1.72 0 0 0 24,17.14 V 3.43 A 1.72,1.72 0 0 0 22.29,1.71 Z M 4.1,7.5 A 1.25,1.25 0 1 1 5.35,6.25 1.25,1.25 0 0 1 4.1,7.5 Z m 10,9.47 A 6.54,6.54 0 1 1 20.65,10.43 6.55,6.55 0 0 1 14.14,17 Z"
         id="path6"
         inkscape:connector-curvature="0" />
    </g>
  </g>
</svg>
