<?xml version="1.0" encoding="UTF-8" standalone="no"?>
<svg
   xmlns:dc="http://purl.org/dc/elements/1.1/"
   xmlns:cc="http://creativecommons.org/ns#"
   xmlns:rdf="http://www.w3.org/1999/02/22-rdf-syntax-ns#"
   xmlns:svg="http://www.w3.org/2000/svg"
   xmlns="http://www.w3.org/2000/svg"
   xmlns:sodipodi="http://sodipodi.sourceforge.net/DTD/sodipodi-0.dtd"
   xmlns:inkscape="http://www.inkscape.org/namespaces/inkscape"
   viewBox="0 0 35 35"
   version="1.1"
   id="svg26"
   sodipodi:docname="document-circle.svg"
   width="35"
   height="35"
   inkscape:version="0.92.3 (3ce5693, 2018-03-11)">
  <metadata
     id="metadata32">
    <rdf:RDF>
      <cc:Work
         rdf:about="">
        <dc:format>image/svg+xml</dc:format>
        <dc:type
           rdf:resource="http://purl.org/dc/dcmitype/StillImage" />
        <dc:title>icon_doc</dc:title>
      </cc:Work>
    </rdf:RDF>
  </metadata>
  <defs
     id="defs30" />
  <sodipodi:namedview
     pagecolor="#ffffff"
     bordercolor="#666666"
     borderopacity="1"
     objecttolerance="10"
     gridtolerance="10"
     guidetolerance="10"
     inkscape:pageopacity="0"
     inkscape:pageshadow="2"
     inkscape:window-width="1920"
     inkscape:window-height="1016"
     id="namedview28"
     showgrid="false"
     inkscape:zoom="9.8333333"
     inkscape:cx="10.492034"
     inkscape:cy="12"
     inkscape:window-x="0"
     inkscape:window-y="27"
     inkscape:window-maximized="1"
     inkscape:current-layer="svg26" />
  <title
     id="title2">icon_doc</title>
  <path
     style="fill:#000000;stroke:none;stroke-width:1.17063475"
     d="M 17.5 0 A 17.5 17.5 0 0 0 0 17.5 A 17.5 17.5 0 0 0 17.5 35 A 17.5 17.5 0 0 0 35 17.5 A 17.5 17.5 0 0 0 17.5 0 z M 9.0097656 5.5 L 25.990234 5.5 A 0.69 0.69 0 0 1 26.669922 6.1796875 L 26.650391 28.859375 A 0.62 0.62 0 0 1 26.470703 29.320312 A 0.62 0.62 0 0 1 26.009766 29.5 L 9.0097656 29.5 A 0.69 0.69 0 0 1 8.3300781 28.820312 L 8.3300781 6.1796875 A 0.69 0.69 0 0 1 9.0097656 5.5 z M 9.6894531 6.859375 L 9.6894531 28.140625 L 25.330078 28.140625 L 25.330078 6.859375 L 9.6894531 6.859375 z M 18.419922 9.3398438 L 23.580078 9.3398438 L 23.580078 14.140625 L 18.419922 14.140625 L 18.419922 9.3398438 z M 11.539062 9.4589844 L 16.660156 9.4589844 L 16.660156 10.419922 L 11.539062 10.419922 L 11.539062 9.4589844 z M 11.539062 11.378906 L 16.660156 11.378906 L 16.660156 12.339844 L 11.539062 12.339844 L 11.539062 11.378906 z M 11.539062 13.298828 L 16.660156 13.298828 L 16.660156 14.259766 L 11.539062 14.259766 L 11.539062 13.298828 z M 11.539062 15.220703 L 23.580078 15.220703 L 23.580078 16.179688 L 11.539062 16.179688 L 11.539062 15.220703 z M 11.539062 17.619141 L 23.580078 17.619141 L 23.580078 18.580078 L 11.539062 18.580078 L 11.539062 17.619141 z M 11.539062 19.859375 L 23.580078 19.859375 L 23.580078 20.820312 L 11.539062 20.820312 L 11.539062 19.859375 z M 11.539062 22.099609 L 23.580078 22.099609 L 23.580078 23.060547 L 11.539062 23.060547 L 11.539062 22.099609 z M 11.539062 24.339844 L 23.580078 24.339844 L 23.580078 25.298828 L 11.539062 25.298828 L 11.539062 24.339844 z "
     id="path53" />
</svg>
