<?xml version="1.0" encoding="UTF-8" standalone="no"?>
<svg
   xmlns:dc="http://purl.org/dc/elements/1.1/"
   xmlns:cc="http://creativecommons.org/ns#"
   xmlns:rdf="http://www.w3.org/1999/02/22-rdf-syntax-ns#"
   xmlns:svg="http://www.w3.org/2000/svg"
   xmlns="http://www.w3.org/2000/svg"
   xmlns:sodipodi="http://sodipodi.sourceforge.net/DTD/sodipodi-0.dtd"
   xmlns:inkscape="http://www.inkscape.org/namespaces/inkscape"
   viewBox="0 0 24 24"
   version="1.1"
   id="svg26"
   sodipodi:docname="document.svg"
   width="24"
   height="24"
   inkscape:version="0.92.3 (3ce5693, 2018-03-11)">
  <metadata
     id="metadata32">
    <rdf:RDF>
      <cc:Work
         rdf:about="">
        <dc:format>image/svg+xml</dc:format>
        <dc:type
           rdf:resource="http://purl.org/dc/dcmitype/StillImage" />
        <dc:title>icon_doc</dc:title>
      </cc:Work>
    </rdf:RDF>
  </metadata>
  <defs
     id="defs30" />
  <sodipodi:namedview
     pagecolor="#ffffff"
     bordercolor="#666666"
     borderopacity="1"
     objecttolerance="10"
     gridtolerance="10"
     guidetolerance="10"
     inkscape:pageopacity="0"
     inkscape:pageshadow="2"
     inkscape:window-width="1920"
     inkscape:window-height="1016"
     id="namedview28"
     showgrid="false"
     inkscape:zoom="9.8333333"
     inkscape:cx="9.1700001"
     inkscape:cy="12"
     inkscape:window-x="0"
     inkscape:window-y="27"
     inkscape:window-maximized="1"
     inkscape:current-layer="svg26" />
  <title
     id="title2">icon_doc</title>
  <g
     id="Layer_2"
     data-name="Layer 2"
     transform="translate(2.83)">
    <g
       id="Layer_1-2"
       data-name="Layer 1">
      <path
         d="M 18.34,0.68 A 0.69,0.69 0 0 0 17.66,0 H 0.68 A 0.69,0.69 0 0 0 0,0.68 V 23.32 A 0.69,0.69 0 0 0 0.68,24 h 17 a 0.62,0.62 0 0 0 0.46,-0.18 v 0 0 a 0.62,0.62 0 0 0 0.18,-0.46 z M 17,22.64 H 1.36 V 1.36 H 17 Z"
         id="path4"
         inkscape:connector-curvature="0" />
      <rect
         x="3.21"
         y="3.96"
         width="5.1199999"
         height="0.95999998"
         id="rect6" />
      <rect
         x="10.09"
         y="3.8399999"
         width="5.1599998"
         height="4.8000002"
         id="rect8" />
      <rect
         x="3.21"
         y="5.8800001"
         width="5.1199999"
         height="0.95999998"
         id="rect10" />
      <rect
         x="3.21"
         y="7.8000002"
         width="5.1199999"
         height="0.95999998"
         id="rect12" />
      <rect
         x="3.21"
         y="9.7200003"
         width="12.04"
         height="0.95999998"
         id="rect14" />
      <rect
         x="3.21"
         y="12.12"
         width="12.04"
         height="0.95999998"
         id="rect16" />
      <rect
         x="3.21"
         y="14.36"
         width="12.04"
         height="0.95999998"
         id="rect18" />
      <rect
         x="3.21"
         y="16.6"
         width="12.04"
         height="0.95999998"
         id="rect20" />
      <rect
         x="3.21"
         y="18.84"
         width="12.04"
         height="0.95999998"
         id="rect22" />
    </g>
  </g>
</svg>
