<?xml version="1.0" encoding="utf-8"?>
<!-- Generator: Adobe Illustrator 16.0.4, SVG Export Plug-In . SVG Version: 6.00 Build 0)  -->
<!DOCTYPE svg PUBLIC "-//W3C//DTD SVG 1.1//EN" "http://www.w3.org/Graphics/SVG/1.1/DTD/svg11.dtd">
<svg version="1.1" id="Layer_1" xmlns="http://www.w3.org/2000/svg" xmlns:xlink="http://www.w3.org/1999/xlink" x="0px" y="0px"
	 width="24px" height="24px" viewBox="0 0 24 24" enable-background="new 0 0 24 24" xml:space="preserve">
<g>
	<path fill-rule="evenodd" clip-rule="evenodd" d="M11.999,22.154H1.385C0.619,22.154,0,21.535,0,20.77v-6.922
		c0-0.768,0.619-1.385,1.385-1.385S2.77,13.08,2.77,13.848v5.535h18.462v-5.535c0-0.768,0.619-1.385,1.385-1.385S24,13.08,24,13.848
		v6.922c0,0.766-0.618,1.385-1.384,1.385H11.999L11.999,22.154L11.999,22.154 M13,14.312c-0.254,0.281-0.621,0.457-1.029,0.457
		c-0.411,0-0.775-0.176-1.03-0.457L6.787,9.695C6.566,9.449,6.43,9.126,6.43,8.769c0-0.764,0.622-1.384,1.385-1.384
		c0.411,0,0.778,0.176,1.029,0.458v0l1.742,1.934V1.385C10.586,0.62,11.205,0,11.971,0c0.763,0,1.384,0.62,1.384,1.385v8.391
		l1.739-1.934v0c0.255-0.282,0.619-0.458,1.03-0.458c0.766,0,1.384,0.62,1.384,1.384c0,0.357-0.135,0.681-0.354,0.927L13,14.312z"/>
</g>
</svg>
