<?xml version="1.0" encoding="utf-8"?>
<!-- Generator: Adobe Illustrator 16.0.4, SVG Export Plug-In . SVG Version: 6.00 Build 0)  -->
<!DOCTYPE svg PUBLIC "-//W3C//DTD SVG 1.1//EN" "http://www.w3.org/Graphics/SVG/1.1/DTD/svg11.dtd">
<svg version="1.1" id="Layer_1" xmlns="http://www.w3.org/2000/svg" xmlns:xlink="http://www.w3.org/1999/xlink" x="0px" y="0px"
	 width="24px" height="24px" viewBox="0 0 24 24" enable-background="new 0 0 24 24" xml:space="preserve">
<g>
	<path fill-rule="evenodd" clip-rule="evenodd" d="M16.357,7.403l7.308-7.078C23.871,0.529,24,0.812,24,1.125v14.252
		c0,0.295-0.115,0.561-0.303,0.762L16.357,7.403z M0.375,0.292C0.574,0.113,0.835,0,1.125,0h21.75c0.29,0,0.551,0.113,0.752,0.292
		L12,9.375L0.375,0.292z M0.303,16.139C0.117,15.938,0,15.672,0,15.377V1.125c0-0.313,0.129-0.596,0.335-0.8l7.308,7.078
		L0.303,16.139z M12,11.625l3.051-2.956l8.596,7.522c-0.201,0.189-0.471,0.309-0.771,0.309H1.125c-0.299,0-0.57-0.119-0.771-0.309
		l8.594-7.522L12,11.625z"/>
</g>
</svg>
