<?xml version="1.0" encoding="UTF-8" standalone="no"?>
<!-- Generator: Adobe Illustrator 16.0.4, SVG Export Plug-In . SVG Version: 6.00 Build 0)  -->

<svg
   xmlns:dc="http://purl.org/dc/elements/1.1/"
   xmlns:cc="http://creativecommons.org/ns#"
   xmlns:rdf="http://www.w3.org/1999/02/22-rdf-syntax-ns#"
   xmlns:svg="http://www.w3.org/2000/svg"
   xmlns="http://www.w3.org/2000/svg"
   xmlns:sodipodi="http://sodipodi.sourceforge.net/DTD/sodipodi-0.dtd"
   xmlns:inkscape="http://www.inkscape.org/namespaces/inkscape"
   version="1.1"
   id="Layer_1"
   x="0px"
   y="0px"
   width="24px"
   height="24px"
   viewBox="0 0 24 24"
   enable-background="new 0 0 24 24"
   xml:space="preserve"
   inkscape:version="0.48.4 r9939"
   sodipodi:docname="email.svg"><metadata
     id="metadata11"><rdf:RDF><cc:Work
         rdf:about=""><dc:format>image/svg+xml</dc:format><dc:type
           rdf:resource="http://purl.org/dc/dcmitype/StillImage" /></cc:Work></rdf:RDF></metadata><defs
     id="defs9" /><sodipodi:namedview
     pagecolor="#ffffff"
     bordercolor="#666666"
     borderopacity="1"
     objecttolerance="10"
     gridtolerance="10"
     guidetolerance="10"
     inkscape:pageopacity="0"
     inkscape:pageshadow="2"
     inkscape:window-width="640"
     inkscape:window-height="480"
     id="namedview7"
     showgrid="false"
     inkscape:zoom="9.8333333"
     inkscape:cx="12"
     inkscape:cy="12"
     inkscape:window-x="580"
     inkscape:window-y="262"
     inkscape:window-maximized="0"
     inkscape:current-layer="Layer_1" /><g
     id="g3"
     transform="translate(0,3.75)"><path
       clip-rule="evenodd"
       d="M 16.357,7.403 23.665,0.325 C 23.871,0.529 24,0.812 24,1.125 v 14.252 c 0,0.295 -0.115,0.561 -0.303,0.762 L 16.357,7.403 z M 0.375,0.292 C 0.574,0.113 0.835,0 1.125,0 h 21.75 c 0.29,0 0.551,0.113 0.752,0.292 L 12,9.375 0.375,0.292 z M 0.303,16.139 C 0.117,15.938 0,15.672 0,15.377 V 1.125 C 0,0.812 0.129,0.529 0.335,0.325 l 7.308,7.078 -7.34,8.736 z M 12,11.625 15.051,8.669 23.647,16.191 C 23.446,16.38 23.176,16.5 22.876,16.5 H 1.125 c -0.299,0 -0.57,-0.119 -0.771,-0.309 L 8.948,8.669 12,11.625 z"
       id="path5"
       inkscape:connector-curvature="0"
       style="fill-rule:evenodd" /></g></svg>