<svg xmlns="http://www.w3.org/2000/svg" viewBox="0 0 23.56 23.56"><defs><style>.cls-1{fill-rule:evenodd;}</style></defs><title>text_ex</title><g id="Layer_2" data-name="Layer 2"><g id="Artwork"><path class="cls-1" d="M22.87,19.06,12.22,23.47a1.12,1.12,0,0,1-.88,0L.69,19.06A1.09,1.09,0,0,1,0,18V1.1A1.1,1.1,0,0,1,1.1,0a1.12,1.12,0,0,1,.42.08h0L11.78,4.32,22,.08h0A1.16,1.16,0,0,1,22.46,0a1.1,1.1,0,0,1,1.1,1.1V18a1.09,1.09,0,0,1-.69,1M10.68,6.26,2.21,2.75V17.3l8.47,3.5ZM21.35,2.75,12.89,6.26V20.8l8.46-3.5ZM14.64,7.83,18.69,6a1.15,1.15,0,0,1,.46-.1A1.1,1.1,0,0,1,19.6,8L15.55,9.84a1.14,1.14,0,0,1-.45.1,1.1,1.1,0,0,1-.46-2.11m0,4.05h0L18.69,10a1.15,1.15,0,0,1,.46-.1,1.1,1.1,0,0,1,.45,2.11l-4.05,1.84a1,1,0,0,1-.45.1,1.1,1.1,0,0,1-.46-2.11m0,4h0l4.05-1.84a1.15,1.15,0,0,1,.46-.1,1.1,1.1,0,0,1,1.1,1.1,1.12,1.12,0,0,1-.65,1l-4.05,1.84a1.14,1.14,0,0,1-.45.1,1.1,1.1,0,0,1-.46-2.11M4.42,5.89a1.14,1.14,0,0,1,.45.1L8.92,7.83a1.1,1.1,0,0,1-.45,2.11A1.15,1.15,0,0,1,8,9.84L4,8a1.1,1.1,0,0,1,.46-2.11m0,4.05a1.14,1.14,0,0,1,.45.1l4.05,1.84a1.09,1.09,0,0,1,.65,1A1.11,1.11,0,0,1,8.47,14a1,1,0,0,1-.46-.1L4,12.05a1.1,1.1,0,0,1,.46-2.11m0,4.05a1.14,1.14,0,0,1,.45.1l4.05,1.84A1.1,1.1,0,0,1,8.47,18a1.15,1.15,0,0,1-.46-.1L4,16.1a1.12,1.12,0,0,1-.65-1A1.11,1.11,0,0,1,4.42,14"/></g></g></svg>