<?xml version="1.0" encoding="UTF-8" standalone="no"?>
<!-- Generator: Adobe Illustrator 21.1.0, SVG Export Plug-In . SVG Version: 6.00 Build 0)  -->

<svg
   xmlns:dc="http://purl.org/dc/elements/1.1/"
   xmlns:cc="http://creativecommons.org/ns#"
   xmlns:rdf="http://www.w3.org/1999/02/22-rdf-syntax-ns#"
   xmlns:svg="http://www.w3.org/2000/svg"
   xmlns="http://www.w3.org/2000/svg"
   xmlns:sodipodi="http://sodipodi.sourceforge.net/DTD/sodipodi-0.dtd"
   xmlns:inkscape="http://www.inkscape.org/namespaces/inkscape"
   version="1.1"
   id="Layer_2"
   x="0px"
   y="0px"
   viewBox="0 0 60 70"
   xml:space="preserve"
   inkscape:version="0.91 r13725"
   sodipodi:docname="facebook.svg"
   width="60"
   height="70"><metadata
     id="metadata17"><rdf:RDF><cc:Work
         rdf:about=""><dc:format>image/svg+xml</dc:format><dc:type
           rdf:resource="http://purl.org/dc/dcmitype/StillImage" /><dc:title /></cc:Work></rdf:RDF></metadata><defs
     id="defs15" /><sodipodi:namedview
     pagecolor="#ffffff"
     bordercolor="#666666"
     borderopacity="1"
     objecttolerance="10"
     gridtolerance="10"
     guidetolerance="10"
     inkscape:pageopacity="0"
     inkscape:pageshadow="2"
     inkscape:window-width="1600"
     inkscape:window-height="876"
     id="namedview13"
     showgrid="false"
     inkscape:zoom="10.727273"
     inkscape:cx="17.666586"
     inkscape:cy="39.419263"
     inkscape:window-x="0"
     inkscape:window-y="24"
     inkscape:window-maximized="1"
     inkscape:current-layer="Layer_2" /><style
     type="text/css"
     id="style3">
	.st0{fill:#231F20;}
</style><path
     style="fill:#000000"
     d="M 14.863281 5 C 6.8178265 5 -1.1842379e-15 11.409623 0 19.455078 L 0 50.681641 C 0 58.590732 6.8178265 65 14.863281 65 L 46.091797 65 C 54.000888 65 60 58.590377 60 50.544922 L 60 19.455078 C 60 11.409623 54.000888 5 46.091797 5 L 14.863281 5 z M 34.363281 15.908203 L 39.544922 15.908203 L 39.544922 22.726562 L 36.544922 22.726562 C 33.817649 22.726562 33.681641 23.953836 33.681641 25.726562 L 33.681641 29.544922 L 40.226562 29.544922 L 39.544922 36.363281 L 34.091797 36.363281 L 34.091797 58.181641 L 24.544922 58.181641 L 24.544922 36.363281 L 20.455078 36.363281 L 20.455078 29.544922 L 24.544922 29.544922 L 24.544922 25.044922 C 24.544922 19.181286 27.408736 15.908203 34.363281 15.908203 z "
     id="path7" /></svg>