<?xml version="1.0" encoding="UTF-8" standalone="no"?>
<!-- Generator: Adobe Illustrator 21.1.0, SVG Export Plug-In . SVG Version: 6.00 Build 0)  -->

<svg
   xmlns:dc="http://purl.org/dc/elements/1.1/"
   xmlns:cc="http://creativecommons.org/ns#"
   xmlns:rdf="http://www.w3.org/1999/02/22-rdf-syntax-ns#"
   xmlns:svg="http://www.w3.org/2000/svg"
   xmlns="http://www.w3.org/2000/svg"
   xmlns:sodipodi="http://sodipodi.sourceforge.net/DTD/sodipodi-0.dtd"
   xmlns:inkscape="http://www.inkscape.org/namespaces/inkscape"
   version="1.1"
   id="Layer_2"
   x="0px"
   y="0px"
   viewBox="0 0 60 70"
   xml:space="preserve"
   inkscape:version="0.91 r13725"
   sodipodi:docname="facebook-o.svg"
   width="60"
   height="70"><metadata
     id="metadata17"><rdf:RDF><cc:Work
         rdf:about=""><dc:format>image/svg+xml</dc:format><dc:type
           rdf:resource="http://purl.org/dc/dcmitype/StillImage" /><dc:title></dc:title></cc:Work></rdf:RDF></metadata><defs
     id="defs15" /><sodipodi:namedview
     pagecolor="#ffffff"
     bordercolor="#666666"
     borderopacity="1"
     objecttolerance="10"
     gridtolerance="10"
     guidetolerance="10"
     inkscape:pageopacity="0"
     inkscape:pageshadow="2"
     inkscape:window-width="1600"
     inkscape:window-height="876"
     id="namedview13"
     showgrid="false"
     inkscape:zoom="5.3636364"
     inkscape:cx="22"
     inkscape:cy="22"
     inkscape:window-x="0"
     inkscape:window-y="24"
     inkscape:window-maximized="1"
     inkscape:current-layer="Layer_2" /><style
     type="text/css"
     id="style3">
	.st0{fill:#231F20;}
</style><g
     id="g4149"><path
       class="st0"
       d="m 46.09091,6.3636356 c 7.090909,0 12.545454,5.5909094 12.545454,13.0909094 l 0,31.227274 c 0,7.5 -5.454545,13.090909 -12.545454,13.090909 l -31.227274,0 C 7.4999994,63.636364 1.3636356,57.636364 1.3636356,50.545455 l 0,-31.09091 c 0,-7.090909 6.1363638,-13.0909094 13.5000004,-13.0909094 l 31.227274,0 m 0,-1.3636364 -31.227274,0 C 6.8181812,4.9999992 -8e-7,11.40909 -8e-7,19.454545 l 0,31.227274 c 0,7.909091 6.818182,14.318182 14.8636368,14.318182 l 31.227274,0 c 7.909091,0 13.909091,-6.409091 13.909091,-14.454546 l 0,-31.09091 c 0,-8.045455 -6,-14.4545458 -13.909091,-14.4545458 l 0,0 z"
       id="path7"
       inkscape:connector-curvature="0"
       style="fill:#000000" /><path
       style="fill:#000000"
       inkscape:connector-curvature="0"
       id="path11"
       d="m 34.090909,58.181819 -9.545455,0 0,-21.818183 -4.090909,0 0,-6.818182 4.090909,0 0,-4.5 c 0,-5.863636 2.863637,-9.136364 9.818182,-9.136364 l 5.181819,0 0,6.818182 -3,0 c -2.727273,0 -2.863637,1.227273 -2.863637,3 l 0,3.818182 6.545455,0 -0.681818,6.818182 -5.454546,0 0,21.818183 z"
       class="st0" /></g></svg>