<?xml version="1.0" encoding="utf-8"?>
<!-- Generator: Adobe Illustrator 16.0.4, SVG Export Plug-In . SVG Version: 6.00 Build 0)  -->
<!DOCTYPE svg PUBLIC "-//W3C//DTD SVG 1.1//EN" "http://www.w3.org/Graphics/SVG/1.1/DTD/svg11.dtd">
<svg version="1.1" id="Layer_1" xmlns="http://www.w3.org/2000/svg" xmlns:xlink="http://www.w3.org/1999/xlink" x="0px" y="0px"
	 width="24px" height="24px" viewBox="0 0 24 24" enable-background="new 0 0 24 24" xml:space="preserve">
<g>
	<path d="M12,0C5.372,0,0,5.374,0,12c0,6.627,5.372,12,12,12c6.625,0,12-5.373,12-12C24,5.374,18.625,0,12,0z M15.034,12.247h-2.072
		v7.508H9.857v-7.508H8.304V9.658h1.553V8.104c0-2.109,0.876-3.365,3.366-3.365h2.072v2.587h-1.296
		c-0.969,0-1.032,0.362-1.032,1.038l-0.005,1.293h2.346L15.034,12.247z"/>
</g>
</svg>
