<svg xmlns="http://www.w3.org/2000/svg" viewBox="0 0 48 48"><g id="Layer_2" data-name="Layer 2"><g id="Layer_1-2" data-name="Layer 1"><path d="M44.78,12a23.89,23.89,0,0,0-8.73-8.73A23.54,23.54,0,0,0,24,0,23.5,23.5,0,0,0,12,3.22,23.91,23.91,0,0,0,3.22,12,23.47,23.47,0,0,0,0,24a23.44,23.44,0,0,0,3.22,12A23.89,23.89,0,0,0,12,44.78,23.47,23.47,0,0,0,24,48a23.44,23.44,0,0,0,12-3.22,23.81,23.81,0,0,0,8.73-8.73A23.44,23.44,0,0,0,48,24a23.47,23.47,0,0,0-3.22-12ZM40.59,33.62a19.1,19.1,0,0,1-7,7A18.69,18.69,0,0,1,24,43.16a18.71,18.71,0,0,1-9.62-2.57,19.1,19.1,0,0,1-7-7A18.78,18.78,0,0,1,4.84,24a18.78,18.78,0,0,1,2.57-9.62,19.17,19.17,0,0,1,7-7A18.78,18.78,0,0,1,24,4.84a18.78,18.78,0,0,1,9.62,2.57,19.17,19.17,0,0,1,7,7A18.69,18.69,0,0,1,43.16,24a18.69,18.69,0,0,1-2.57,9.62Z"/><path d="M34,24H28V13a1,1,0,0,0-.28-.72A1,1,0,0,0,27,12H21a1,1,0,0,0-1,1V24H14a.92.92,0,0,0-.93.62,1,1,0,0,0,.21,1.1l10,10a1.07,1.07,0,0,0,1.44,0l10-10A1.16,1.16,0,0,0,35,25a1,1,0,0,0-1-1Z"/></g></g></svg>