<?xml version="1.0" encoding="utf-8"?>
<!-- Generator: Adobe Illustrator 16.0.4, SVG Export Plug-In . SVG Version: 6.00 Build 0)  -->
<!DOCTYPE svg PUBLIC "-//W3C//DTD SVG 1.1//EN" "http://www.w3.org/Graphics/SVG/1.1/DTD/svg11.dtd">
<svg version="1.1" id="Layer_1" xmlns="http://www.w3.org/2000/svg" xmlns:xlink="http://www.w3.org/1999/xlink" x="0px" y="0px"
	 width="24px" height="24px" viewBox="0 0 24 24" enable-background="new 0 0 24 24" xml:space="preserve">
<path fill="#231F20" d="M10.5,3V2.625C10.5,2.006,9.994,1.5,9.375,1.5h-3.75C5.006,1.5,4.5,2.006,4.5,2.625V3H0v3h4.5v0.376
	C4.5,6.995,5.006,7.5,5.625,7.5h3.75c0.619,0,1.125-0.505,1.125-1.125V6H24V3H10.5z M6,6V3h3v3H6z M19.5,10.125
	C19.5,9.506,18.994,9,18.375,9h-3.75C14.006,9,13.5,9.506,13.5,10.125V10.5H0v3.001h13.5v0.373c0,0.619,0.506,1.125,1.125,1.125
	h3.75c0.619,0,1.125-0.506,1.125-1.125v-0.373H24V10.5h-4.5V10.125z M15,13.502V10.5h3v3.001H15z M10.5,17.625
	c0-0.619-0.506-1.125-1.125-1.125h-3.75c-0.619,0-1.125,0.506-1.125,1.125V18H0v3h4.5v0.375c0,0.619,0.506,1.125,1.125,1.125h3.75
	c0.619,0,1.125-0.506,1.125-1.125V21H24v-3H10.5V17.625z M6,21v-3h3v3H6z"/>
</svg>
