<?xml version="1.0" encoding="UTF-8" standalone="no"?>
<!-- Generator: Adobe Illustrator 16.0.4, SVG Export Plug-In . SVG Version: 6.00 Build 0)  -->

<svg
   xmlns:dc="http://purl.org/dc/elements/1.1/"
   xmlns:cc="http://creativecommons.org/ns#"
   xmlns:rdf="http://www.w3.org/1999/02/22-rdf-syntax-ns#"
   xmlns:svg="http://www.w3.org/2000/svg"
   xmlns="http://www.w3.org/2000/svg"
   xmlns:sodipodi="http://sodipodi.sourceforge.net/DTD/sodipodi-0.dtd"
   xmlns:inkscape="http://www.inkscape.org/namespaces/inkscape"
   version="1.1"
   id="Layer_1"
   x="0px"
   y="0px"
   width="60px"
   height="60px"
   viewBox="0 0 60 60"
   enable-background="new 0 0 60 60"
   xml:space="preserve"
   inkscape:version="0.48.4 r9939"
   sodipodi:docname="fingerprint.svg"><metadata
     id="metadata3120"><rdf:RDF><cc:Work
         rdf:about=""><dc:format>image/svg+xml</dc:format><dc:type
           rdf:resource="http://purl.org/dc/dcmitype/StillImage" /></cc:Work></rdf:RDF></metadata><defs
     id="defs3118" /><sodipodi:namedview
     pagecolor="#ffffff"
     bordercolor="#666666"
     borderopacity="1"
     objecttolerance="10"
     gridtolerance="10"
     guidetolerance="10"
     inkscape:pageopacity="0"
     inkscape:pageshadow="2"
     inkscape:window-width="640"
     inkscape:window-height="480"
     id="namedview3116"
     showgrid="false"
     inkscape:zoom="3.9333333"
     inkscape:cx="-0.25423729"
     inkscape:cy="30"
     inkscape:window-x="0"
     inkscape:window-y="24"
     inkscape:window-maximized="0"
     inkscape:current-layer="Layer_1" /><g
     id="g3092"
     transform="translate(9.1363361,-0.00149174)"><g
       id="g3094"><g
         id="g3096"><path
           d="m 1.049,16.86 c 0.4,0.089 0.779,0.084 1.92,-0.795 C 3.473,15.677 4.231,15.014 4.924,14.1 L 5.231,13.693 C 7.828,10.238 13.917,2.136 22.702,2.58 c 7.254,0.526 12.393,6.002 14.868,15.833 0.081,0.334 0.134,0.537 0.188,0.698 0.374,1.607 1.012,3.609 1.925,4.269 0.221,0.167 0.489,0.243 0.747,0.243 0.4,0 0.789,-0.183 1.035,-0.53 0.407,-0.552 0.3,-1.317 -0.227,-1.742 -0.254,-0.328 -0.726,-1.696 -1.01,-2.919 -0.021,-0.072 -0.043,-0.143 -0.07,-0.213 -0.021,-0.086 -0.071,-0.264 -0.113,-0.428 -0.393,-1.557 -1.431,-5.694 -3.956,-9.59 -3.256,-5.025 -7.702,-7.779 -13.215,-8.176 -0.011,0 -0.021,0 -0.028,0 C 12.688,-0.496 6.025,8.366 3.177,12.153 L 2.879,12.55 c -0.778,1.032 -1.702,1.672 -2.017,1.86 -0.11,0.041 -0.212,0.098 -0.312,0.17 -0.395,0.305 -0.586,0.815 -0.481,1.307 0.112,0.485 0.49,0.871 0.98,0.973 l 0,0 z"
           id="path3098"
           inkscape:connector-curvature="0" /><path
           d="m 33.113,21.77 c 0.96,-2.412 0.988,-4.907 0.06,-6.837 -0.822,-1.727 -2.364,-2.976 -4.449,-3.615 -3.062,-0.938 -6.771,0.762 -10.171,4.655 -0.046,0.05 -4.886,5.142 -9.967,8.25 -0.036,0.023 -3.754,2.258 -7.64,3.314 -0.684,0.186 -1.087,0.891 -0.9,1.571 0.183,0.68 0.89,1.084 1.566,0.897 4.233,-1.151 8.135,-3.49 8.303,-3.596 5.515,-3.375 10.514,-8.694 10.55,-8.745 2.067,-2.36 5.122,-4.631 7.501,-3.902 1.402,0.431 2.371,1.194 2.897,2.273 0.614,1.289 0.563,3.034 -0.131,4.785 -1.307,3.255 -5.368,7.195 -11.442,11.081 -3.043,1.948 -10.706,6.735 -16.124,9.052 -0.647,0.277 -0.949,1.026 -0.667,1.68 0.203,0.483 0.678,0.773 1.178,0.773 0.166,0 0.338,-0.033 0.499,-0.104 5.587,-2.387 13.399,-7.26 16.495,-9.242 4.616,-2.956 10.514,-7.482 12.442,-12.29 l 0,0 z"
           id="path3100"
           inkscape:connector-curvature="0" /></g><path
         d="m 12.493,12.215 c -0.581,0.64 -1.101,1.324 -1.658,1.98 -0.738,0.866 -1.546,1.664 -2.386,2.421 -0.858,0.783 -1.56,1.336 -2.582,1.924 -1.076,0.618 -2.177,1.248 -3.295,1.789 -0.39,0.185 -0.716,0.312 -1.151,0.439 -0.667,0.2 -1.082,0.892 -0.896,1.575 0.183,0.659 0.91,1.096 1.577,0.895 1.309,-0.393 2.495,-1.07 3.678,-1.739 0.999,-0.565 1.99,-1.081 2.904,-1.773 1.793,-1.362 3.323,-2.952 4.745,-4.688 0.569,-0.702 1.182,-1.374 1.823,-2.014 0.348,-0.355 0.713,-0.691 1.082,-1.024 0.189,-0.173 0.389,-0.338 0.585,-0.5 0.097,-0.088 0.198,-0.174 0.303,-0.253 0.025,-0.023 0.222,-0.178 0.273,-0.223 0.893,-0.682 1.845,-1.289 2.844,-1.798 0.943,-0.49 1.888,-0.823 3.035,-1.066 0.382,-0.079 0.463,-0.09 0.753,-0.115 0.688,-0.07 1.274,-0.532 1.274,-1.284 0,-0.64 -0.586,-1.348 -1.274,-1.278 -4.625,0.477 -8.583,3.372 -11.634,6.732 l 0,0 z"
         id="path3102"
         inkscape:connector-curvature="0" /><path
         d="M 2.535,36.726 C 5.309,35.775 19.596,30.44 27.59,19.233 27.996,18.655 27.865,17.859 27.289,17.445 26.71,17.035 25.915,17.169 25.502,17.744 17.96,28.318 4.35,33.393 1.7,34.302 1.646,34.323 1.606,34.338 1.595,34.341 0.939,34.59 0.606,35.327 0.852,35.99 c 0.192,0.513 0.682,0.827 1.196,0.827 0.147,0 0.299,-0.025 0.435,-0.076 l 0.052,-0.015 z"
         id="path3104"
         inkscape:connector-curvature="0" /><path
         d="m 37.361,44.344 c -1.77,-0.59 -3.944,-2.14 -6.042,-3.631 -3.041,-2.164 -5.669,-4.034 -7.806,-3.669 -1.604,0.279 -4.419,2.073 -8.85,4.997 -3.192,2.105 -6.815,4.489 -8.391,4.916 -0.688,0.188 -1.092,0.889 -0.904,1.568 0.155,0.572 0.672,0.95 1.239,0.95 0.104,0 0.216,-0.015 0.329,-0.043 1.979,-0.536 5.452,-2.828 9.137,-5.26 2.98,-1.96 6.685,-4.4 7.875,-4.607 1.088,-0.184 3.751,1.708 5.888,3.233 2.253,1.602 4.58,3.265 6.717,3.977 0.675,0.225 1.402,-0.142 1.617,-0.814 0.226,-0.665 -0.134,-1.391 -0.809,-1.617 l 0,0 z"
         id="path3106"
         inkscape:connector-curvature="0" /><path
         d="m 34.158,50.614 c -1.029,-0.371 -2.705,-1.409 -4.331,-2.41 -3.428,-2.115 -5.604,-3.401 -7.164,-3.131 -1.581,0.271 -4.91,2.532 -10.486,6.607 -0.682,0.5 -1.272,0.927 -1.681,1.217 -0.581,0.41 -0.718,1.208 -0.308,1.783 0.252,0.354 0.651,0.544 1.05,0.544 0.252,0 0.509,-0.079 0.733,-0.232 0.423,-0.306 1.025,-0.74 1.716,-1.243 2.219,-1.621 8.125,-5.927 9.403,-6.149 0.797,-0.049 3.677,1.724 5.398,2.787 1.809,1.119 3.524,2.175 4.803,2.642 0.668,0.24 1.394,-0.106 1.638,-0.771 0.24,-0.671 -0.103,-1.404 -0.771,-1.644 l 0,0 z"
         id="path3108"
         inkscape:connector-curvature="0" /><path
         d="m 29.836,56.98 c -0.717,-0.47 -1.381,-0.939 -2.021,-1.394 -2.098,-1.499 -3.913,-2.799 -5.901,-2.449 -2.244,0.389 -5.81,3.973 -6.503,4.683 -0.489,0.513 -0.475,1.321 0.036,1.815 0.243,0.237 0.565,0.365 0.885,0.365 0.34,0 0.671,-0.131 0.924,-0.395 1.717,-1.771 4.148,-3.78 5.093,-3.95 0.936,-0.158 2.349,0.85 3.98,2.014 0.634,0.448 1.345,0.955 2.108,1.455 0.59,0.389 1.39,0.223 1.771,-0.369 0.384,-0.594 0.218,-1.387 -0.372,-1.775 l 0,0 z"
         id="path3110"
         inkscape:connector-curvature="0" /><path
         d="m 41.102,30.557 c -1.07,-0.453 -2.183,-0.927 -3.083,-1.671 -0.985,-0.823 -1.448,-1.904 -1.653,-3.152 -0.265,-1.625 -2.736,-0.935 -2.468,0.682 0.544,3.322 2.987,5.118 5.908,6.351 0.643,0.272 1.366,0.202 1.755,-0.46 0.318,-0.545 0.187,-1.479 -0.459,-1.75 l 0,0 z"
         id="path3112"
         inkscape:connector-curvature="0" /><path
         d="m 38.615,37.236 c -0.961,-0.297 -1.693,-0.67 -2.709,-1.272 -1.857,-1.094 -3.56,-2.694 -4.383,-4.732 -0.265,-0.647 -0.849,-1.093 -1.582,-0.895 -0.61,0.17 -1.153,0.931 -0.89,1.577 1.525,3.762 5.025,6.605 8.886,7.79 1.583,0.49 2.25,-1.982 0.678,-2.468 l 0,0 z"
         id="path3114"
         inkscape:connector-curvature="0" /></g></g></svg>