<?xml version="1.0" encoding="utf-8"?>
<!-- Generator: Adobe Illustrator 16.0.4, SVG Export Plug-In . SVG Version: 6.00 Build 0)  -->
<!DOCTYPE svg PUBLIC "-//W3C//DTD SVG 1.1//EN" "http://www.w3.org/Graphics/SVG/1.1/DTD/svg11.dtd">
<svg version="1.1" id="Layer_1" xmlns="http://www.w3.org/2000/svg" xmlns:xlink="http://www.w3.org/1999/xlink" x="0px" y="0px"
	 width="60px" height="60px" viewBox="0 0 60 60" enable-background="new 0 0 60 60" xml:space="preserve">
<g>
	<g>
		<g>
			<path d="M1.049,16.86c0.4,0.089,0.779,0.084,1.92-0.795c0.504-0.388,1.262-1.051,1.955-1.965l0.307-0.407
				c2.597-3.455,8.686-11.557,17.471-11.113c7.254,0.526,12.393,6.002,14.868,15.833c0.081,0.334,0.134,0.537,0.188,0.698
				c0.374,1.607,1.012,3.609,1.925,4.269c0.221,0.167,0.489,0.243,0.747,0.243c0.4,0,0.789-0.183,1.035-0.53
				c0.407-0.552,0.3-1.317-0.227-1.742c-0.254-0.328-0.726-1.696-1.01-2.919c-0.021-0.072-0.043-0.143-0.07-0.213
				c-0.021-0.086-0.071-0.264-0.113-0.428c-0.393-1.557-1.431-5.694-3.956-9.59c-3.256-5.025-7.702-7.779-13.215-8.176
				c-0.011,0-0.021,0-0.028,0C12.688-0.496,6.025,8.366,3.177,12.153L2.879,12.55c-0.778,1.032-1.702,1.672-2.017,1.86
				c-0.11,0.041-0.212,0.098-0.312,0.17c-0.395,0.305-0.586,0.815-0.481,1.307C0.181,16.372,0.559,16.758,1.049,16.86L1.049,16.86z"
				/>
			<path d="M33.113,21.77c0.96-2.412,0.988-4.907,0.06-6.837c-0.822-1.727-2.364-2.976-4.449-3.615
				c-3.062-0.938-6.771,0.762-10.171,4.655c-0.046,0.05-4.886,5.142-9.967,8.25c-0.036,0.023-3.754,2.258-7.64,3.314
				c-0.684,0.186-1.087,0.891-0.9,1.571c0.183,0.68,0.89,1.084,1.566,0.897c4.233-1.151,8.135-3.49,8.303-3.596
				c5.515-3.375,10.514-8.694,10.55-8.745c2.067-2.36,5.122-4.631,7.501-3.902c1.402,0.431,2.371,1.194,2.897,2.273
				c0.614,1.289,0.563,3.034-0.131,4.785c-1.307,3.255-5.368,7.195-11.442,11.081c-3.043,1.948-10.706,6.735-16.124,9.052
				c-0.647,0.277-0.949,1.026-0.667,1.68c0.203,0.483,0.678,0.773,1.178,0.773c0.166,0,0.338-0.033,0.499-0.104
				c5.587-2.387,13.399-7.26,16.495-9.242C25.287,31.104,31.185,26.578,33.113,21.77L33.113,21.77z"/>
		</g>
		<path d="M12.493,12.215c-0.581,0.64-1.101,1.324-1.658,1.98c-0.738,0.866-1.546,1.664-2.386,2.421
			c-0.858,0.783-1.56,1.336-2.582,1.924c-1.076,0.618-2.177,1.248-3.295,1.789c-0.39,0.185-0.716,0.312-1.151,0.439
			c-0.667,0.2-1.082,0.892-0.896,1.575c0.183,0.659,0.91,1.096,1.577,0.895c1.309-0.393,2.495-1.07,3.678-1.739
			c0.999-0.565,1.99-1.081,2.904-1.773c1.793-1.362,3.323-2.952,4.745-4.688c0.569-0.702,1.182-1.374,1.823-2.014
			c0.348-0.355,0.713-0.691,1.082-1.024c0.189-0.173,0.389-0.338,0.585-0.5c0.097-0.088,0.198-0.174,0.303-0.253
			c0.025-0.023,0.222-0.178,0.273-0.223c0.893-0.682,1.845-1.289,2.844-1.798c0.943-0.49,1.888-0.823,3.035-1.066
			c0.382-0.079,0.463-0.09,0.753-0.115c0.688-0.07,1.274-0.532,1.274-1.284c0-0.64-0.586-1.348-1.274-1.278
			C19.502,5.96,15.544,8.855,12.493,12.215L12.493,12.215z"/>
		<path d="M2.535,36.726c2.774-0.951,17.061-6.286,25.055-17.493c0.406-0.578,0.275-1.374-0.301-1.788
			c-0.579-0.41-1.374-0.276-1.787,0.299C17.96,28.318,4.35,33.393,1.7,34.302c-0.054,0.021-0.094,0.036-0.105,0.039
			c-0.656,0.249-0.989,0.986-0.743,1.649c0.192,0.513,0.682,0.827,1.196,0.827c0.147,0,0.299-0.025,0.435-0.076L2.535,36.726z"/>
		<path d="M37.361,44.344c-1.77-0.59-3.944-2.14-6.042-3.631c-3.041-2.164-5.669-4.034-7.806-3.669
			c-1.604,0.279-4.419,2.073-8.85,4.997c-3.192,2.105-6.815,4.489-8.391,4.916c-0.688,0.188-1.092,0.889-0.904,1.568
			c0.155,0.572,0.672,0.95,1.239,0.95c0.104,0,0.216-0.015,0.329-0.043c1.979-0.536,5.452-2.828,9.137-5.26
			c2.98-1.96,6.685-4.4,7.875-4.607c1.088-0.184,3.751,1.708,5.888,3.233c2.253,1.602,4.58,3.265,6.717,3.977
			c0.675,0.225,1.402-0.142,1.617-0.814C38.396,45.296,38.036,44.57,37.361,44.344L37.361,44.344z"/>
		<path d="M34.158,50.614c-1.029-0.371-2.705-1.409-4.331-2.41c-3.428-2.115-5.604-3.401-7.164-3.131
			c-1.581,0.271-4.91,2.532-10.486,6.607c-0.682,0.5-1.272,0.927-1.681,1.217c-0.581,0.41-0.718,1.208-0.308,1.783
			c0.252,0.354,0.651,0.544,1.05,0.544c0.252,0,0.509-0.079,0.733-0.232c0.423-0.306,1.025-0.74,1.716-1.243
			c2.219-1.621,8.125-5.927,9.403-6.149c0.797-0.049,3.677,1.724,5.398,2.787c1.809,1.119,3.524,2.175,4.803,2.642
			c0.668,0.24,1.394-0.106,1.638-0.771C35.169,51.587,34.826,50.854,34.158,50.614L34.158,50.614z"/>
		<path d="M29.836,56.98c-0.717-0.47-1.381-0.939-2.021-1.394c-2.098-1.499-3.913-2.799-5.901-2.449
			c-2.244,0.389-5.81,3.973-6.503,4.683c-0.489,0.513-0.475,1.321,0.036,1.815C15.69,59.872,16.012,60,16.332,60
			c0.34,0,0.671-0.131,0.924-0.395c1.717-1.771,4.148-3.78,5.093-3.95c0.936-0.158,2.349,0.85,3.98,2.014
			c0.634,0.448,1.345,0.955,2.108,1.455c0.59,0.389,1.39,0.223,1.771-0.369C30.592,58.161,30.426,57.368,29.836,56.98L29.836,56.98z
			"/>
		<path d="M41.102,30.557c-1.07-0.453-2.183-0.927-3.083-1.671c-0.985-0.823-1.448-1.904-1.653-3.152
			c-0.265-1.625-2.736-0.935-2.468,0.682c0.544,3.322,2.987,5.118,5.908,6.351c0.643,0.272,1.366,0.202,1.755-0.46
			C41.879,31.762,41.748,30.828,41.102,30.557L41.102,30.557z"/>
		<path d="M38.615,37.236c-0.961-0.297-1.693-0.67-2.709-1.272c-1.857-1.094-3.56-2.694-4.383-4.732
			c-0.265-0.647-0.849-1.093-1.582-0.895c-0.61,0.17-1.153,0.931-0.89,1.577c1.525,3.762,5.025,6.605,8.886,7.79
			C39.52,40.194,40.187,37.722,38.615,37.236L38.615,37.236z"/>
	</g>
</g>
</svg>
