<?xml version="1.0" encoding="UTF-8" standalone="no"?>
<!-- Generator: Adobe Illustrator 16.0.4, SVG Export Plug-In . SVG Version: 6.00 Build 0)  -->

<svg
   xmlns:dc="http://purl.org/dc/elements/1.1/"
   xmlns:cc="http://creativecommons.org/ns#"
   xmlns:rdf="http://www.w3.org/1999/02/22-rdf-syntax-ns#"
   xmlns:svg="http://www.w3.org/2000/svg"
   xmlns="http://www.w3.org/2000/svg"
   xmlns:sodipodi="http://sodipodi.sourceforge.net/DTD/sodipodi-0.dtd"
   xmlns:inkscape="http://www.inkscape.org/namespaces/inkscape"
   version="1.1"
   id="Layer_1"
   x="0px"
   y="0px"
   width="60px"
   height="60px"
   viewBox="0 0 60 60"
   enable-background="new 0 0 60 60"
   xml:space="preserve"
   inkscape:version="0.48.4 r9939"
   sodipodi:docname="fingerprint-book.svg"><metadata
     id="metadata3159"><rdf:RDF><cc:Work
         rdf:about=""><dc:format>image/svg+xml</dc:format><dc:type
           rdf:resource="http://purl.org/dc/dcmitype/StillImage" /></cc:Work></rdf:RDF></metadata><defs
     id="defs3157" /><sodipodi:namedview
     pagecolor="#ffffff"
     bordercolor="#666666"
     borderopacity="1"
     objecttolerance="10"
     gridtolerance="10"
     guidetolerance="10"
     inkscape:pageopacity="0"
     inkscape:pageshadow="2"
     inkscape:window-width="1600"
     inkscape:window-height="876"
     id="namedview3155"
     showgrid="false"
     inkscape:zoom="11.125147"
     inkscape:cx="26.977915"
     inkscape:cy="17.085002"
     inkscape:window-x="0"
     inkscape:window-y="24"
     inkscape:window-maximized="1"
     inkscape:current-layer="Layer_1" /><path
     d="M 32.75 0 C 25.818 6.793 4.875 15.15625 4.875 15.15625 L 2.09375 25.875 L 25.6875 60 L 57.90625 47.71875 L 57.59375 44.96875 L 26.9375 56.46875 C 26.9375 56.46875 27.4615 51.76175 28.0625 51.59375 C 44.6775 46.98475 57.8125 36.1875 57.8125 36.1875 L 32.75 0 z M 28.09375 15.46875 C 29.26075 15.437125 30.455 15.7085 31.6875 16.25 C 33.6005 17.089 35.0285 18.388 35.5625 18.875 C 35.6185 18.926 35.68975 18.974 35.71875 19 C 35.74675 19.02 35.75625 19.0405 35.78125 19.0625 C 36.19125 19.4525 36.701 19.84725 36.875 19.90625 C 37.178 19.93725 37.42125 20.192 37.40625 20.5 C 37.39825 20.691 37.30525 20.86975 37.15625 20.96875 C 37.05925 21.03275 36.9365 21.0695 36.8125 21.0625 C 36.3065 21.0415 35.56825 20.4505 35.03125 19.9375 C 34.97125 19.8915 34.89225 19.82275 34.78125 19.71875 C 31.42225 16.63675 28.13725 15.8445 25.28125 17.4375 C 21.87025 19.4415 21.59075 23.9965 21.46875 25.9375 L 21.4375 26.15625 C 21.4025 26.67125 21.2795 27.104 21.1875 27.375 C 20.9745 27.986 20.8595 28.09125 20.6875 28.15625 C 20.4775 28.23725 20.2215 28.18825 20.0625 28.03125 C 19.9015 27.87425 19.8645 27.61825 19.9375 27.40625 C 19.9575 27.35325 19.968 27.32425 20 27.28125 C 20.07 27.13325 20.2735 26.6435 20.3125 26.0625 L 20.3125 25.84375 C 20.4475 23.71675 20.77375 18.7505 24.71875 16.4375 C 25.80225 15.8315 26.92675 15.500375 28.09375 15.46875 z M 26.75 18.09375 C 26.970687 18.055359 27.22375 18.1615 27.34375 18.34375 C 27.52975 18.62675 27.39925 18.928 27.15625 19.125 C 27.05525 19.207 27.02925 19.253 26.90625 19.375 C 26.53325 19.75 26.26525 20.083 26.03125 20.5 C 25.78025 20.939 25.57325 21.42725 25.40625 21.90625 C 25.39725 21.93325 25.378 22.01525 25.375 22.03125 C 25.355 22.08725 25.3265 22.16175 25.3125 22.21875 C 25.2785 22.32975 25.24775 22.41925 25.21875 22.53125 C 25.16175 22.74825 25.1065 22.9685 25.0625 23.1875 C 24.9805 23.5885 24.916 24.00025 24.875 24.40625 C 24.771 25.40725 24.588 26.38975 24.25 27.34375 C 24.077 27.83075 23.82975 28.25875 23.59375 28.71875 C 23.31475 29.26275 23.05025 29.81025 22.65625 30.28125 C 22.45525 30.52225 22.07375 30.54675 21.84375 30.34375 C 21.60375 30.13175 21.57925 29.77025 21.78125 29.53125 C 21.91325 29.37625 21.99475 29.2275 22.09375 29.0625 C 22.37975 28.5815 22.65425 28.09375 22.90625 27.59375 C 23.14425 27.12075 23.27625 26.72475 23.40625 26.21875 C 23.53425 25.72675 23.6235 25.22475 23.6875 24.71875 C 23.7345 24.33475 23.7515 23.9455 23.8125 23.5625 C 24.1305 21.5465 24.91025 19.47925 26.53125 18.15625 C 26.59175 18.10675 26.676438 18.106547 26.75 18.09375 z M 30.40625 19.09375 C 31.087672 19.02325 31.7285 19.1655 32.28125 19.5 C 33.10625 19.997 33.7025 20.9185 33.9375 22.0625 C 34.3995 24.3455 33.28725 27.5 32.28125 29.75 C 31.60825 31.258 29.884 35.0345 28.375 37.3125 C 28.33 37.3785 28.28175 37.42775 28.21875 37.46875 C 28.03275 37.59175 27.78975 37.60275 27.59375 37.46875 C 27.32675 37.29375 27.23425 36.9535 27.40625 36.6875 C 28.87025 34.4805 30.586 30.76725 31.25 29.28125 C 32.572 26.32125 33.1265 23.8575 32.8125 22.3125 C 32.6405 21.4815 32.2365 20.80075 31.6875 20.46875 C 31.2255 20.19275 30.66625 20.15875 30.03125 20.34375 C 28.95825 20.65775 28.34925 22.25825 28.15625 23.65625 C 28.15525 23.68425 27.611 26.90125 26.375 29.53125 C 26.336 29.61225 25.431 31.4585 24.125 32.9375 C 23.915 33.1745 23.5475 33.211 23.3125 33 C 23.0745 32.792 23.07125 32.4255 23.28125 32.1875 C 24.48025 30.8315 25.3055 29.0795 25.3125 29.0625 C 26.4555 26.6385 27.02625 23.53 27.03125 23.5 C 27.34725 21.197 28.33775 19.62375 29.71875 19.21875 C 29.95425 19.14975 30.179109 19.11725 30.40625 19.09375 z M 30.6875 21.875 C 31.0065 21.888 31.22775 22.15175 31.21875 22.46875 C 30.98075 28.65575 26.931 34.207 26.125 35.25 C 26.087 35.303 26.02375 35.37025 25.96875 35.40625 C 25.77475 35.53425 25.5115 35.521 25.3125 35.375 C 25.0565 35.187 25.0035 34.85075 25.1875 34.59375 C 25.1905 34.58975 25.20175 34.55225 25.21875 34.53125 C 25.98875 33.53625 29.86975 28.2735 30.09375 22.4375 C 30.10675 22.1185 30.3695 21.863 30.6875 21.875 z M 35.75 22.59375 C 35.883828 22.580234 35.9995 22.614 36.125 22.75 C 36.508 23.17 36.95625 23.46525 37.53125 23.53125 C 38.05225 23.58925 38.58075 23.49925 39.09375 23.40625 C 39.40275 23.34925 39.70475 23.6535 39.71875 23.9375 C 39.73475 24.2805 39.46625 24.5055 39.15625 24.5625 C 37.75425 24.8215 36.398 24.738 35.375 23.625 C 34.99925 23.21925 35.348516 22.634297 35.75 22.59375 z M 35.25 25.875 C 35.392875 25.87125 35.559 25.94275 35.6875 26.03125 C 36.4995 26.59425 37.531 26.76575 38.5 26.71875 C 39.031 26.69575 39.3785 26.65625 39.8125 26.53125 C 40.5235 26.32525 40.9005 27.419 40.1875 27.625 C 38.4445 28.131 36.40725 27.912 34.90625 26.875 C 34.64625 26.696 34.687 26.2765 34.875 26.0625 C 34.988 25.934 35.107125 25.87875 35.25 25.875 z M 41.09375 29.5 C 41.40075 29.419 41.7315 29.60025 41.8125 29.90625 C 41.8965 30.21325 41.71625 30.543 41.40625 30.625 C 40.42825 30.885 39.14925 30.82725 37.90625 30.78125 C 36.72525 30.73625 35.237 30.69425 34.875 31.03125 C 34.479 31.40525 33.6965 33.2135 33.0625 34.6875 C 32.2765 36.5085 31.5495 38.2475 30.9375 38.9375 C 30.9025 38.9765 30.8525 39.00525 30.8125 39.03125 C 30.6005 39.16925 30.325 39.14675 30.125 38.96875 C 29.887 38.76075 29.8495 38.39625 30.0625 38.15625 C 30.5485 37.60725 31.321 35.829 32 34.25 C 32.943 32.057 33.56075 30.6875 34.09375 30.1875 C 34.80775 29.5215 36.2575 29.563 37.9375 29.625 C 39.0925 29.669 40.28175 29.714 41.09375 29.5 z M 13.3125 30.625 L 27.4375 49.3125 L 27.25 49.46875 L 13.125 30.78125 L 13.3125 30.625 z M 41.4375 32.65625 C 41.7475 32.58225 42.08325 32.78275 42.15625 33.09375 C 42.22925 33.40275 42.02875 33.70725 41.71875 33.78125 C 41.12375 33.92125 40.204 33.94375 39.25 33.96875 C 38.339 33.99475 36.81825 34.031 36.53125 34.25 C 36.10625 34.649 34.96425 37.718 34.53125 38.875 C 34.39525 39.237 34.2725 39.56225 34.1875 39.78125 C 34.1415 39.89325 34.06375 39.9995 33.96875 40.0625 C 33.81875 40.1605 33.6195 40.16275 33.4375 40.09375 C 33.1405 39.97775 33.009 39.63875 33.125 39.34375 C 33.208 39.13375 33.3055 38.855 33.4375 38.5 C 34.5285 35.592 35.223 33.89825 35.75 33.40625 C 36.271 32.91725 37.40775 32.8635 39.21875 32.8125 C 40.07875 32.7865 40.9585 32.77225 41.4375 32.65625 z M 39.46875 36.0625 C 39.735953 36.062906 39.99175 36.08225 40.28125 36.09375 C 40.63525 36.10575 41.02225 36.127 41.40625 36.125 C 41.72525 36.125 41.96875 36.3695 41.96875 36.6875 C 41.96975 37.0025 41.72225 37.28125 41.40625 37.28125 C 40.99625 37.28125 40.598 37.262 40.25 37.25 C 39.349 37.214 38.562 37.17775 38.25 37.46875 C 37.935 37.76375 37.5205 39.12875 37.3125 40.21875 C 37.2825 40.37675 37.1905 40.50975 37.0625 40.59375 C 36.9435 40.67275 36.80725 40.68425 36.65625 40.65625 C 36.34325 40.59525 36.1285 40.315 36.1875 40 C 36.2715 39.564 36.71975 37.324 37.46875 36.625 C 37.9645 36.1585 38.667141 36.061281 39.46875 36.0625 z "
     id="path3127" /><polygon
     id="polygon3129"
     points="54.863,42.676 54.863,42.676 55.164,44.054 26.054,54.747 "
     transform="translate(2.1055,0)" /><path
     inkscape:connector-curvature="0"
     id="path3131"
     d="m 34.1965,50.864 22.775,-9.35 0.086,-1.433 c 0,10e-4 0.388,0.73 -22.861,10.783" /></svg>