<?xml version="1.0" encoding="utf-8"?>
<!-- Generator: Adobe Illustrator 16.0.4, SVG Export Plug-In . SVG Version: 6.00 Build 0)  -->
<!DOCTYPE svg PUBLIC "-//W3C//DTD SVG 1.1//EN" "http://www.w3.org/Graphics/SVG/1.1/DTD/svg11.dtd">
<svg version="1.1" id="Layer_1" xmlns="http://www.w3.org/2000/svg" xmlns:xlink="http://www.w3.org/1999/xlink" x="0px" y="0px"
	 width="60px" height="60px" viewBox="0 0 60 60" enable-background="new 0 0 60 60" xml:space="preserve">
<g>
	<path d="M55.979,14.938c-2.684-4.596-6.322-8.233-10.918-10.915C40.465,1.341,35.443,0,30.002,0c-5.443,0-10.46,1.341-15.057,4.023
		c-4.6,2.682-8.236,6.319-10.918,10.915C1.342,19.539,0,24.556,0,29.998s1.342,10.463,4.027,15.06
		c2.682,4.596,6.319,8.236,10.915,10.915c4.6,2.686,9.617,4.026,15.06,4.026c5.441,0,10.463-1.341,15.059-4.026
		c4.594-2.679,8.234-6.319,10.918-10.915C58.658,40.461,60,35.44,60,29.998S58.658,19.535,55.979,14.938L55.979,14.938z"/>
	<path fill="#FFFFFF" d="M26.948,47.891h-4.593c-0.351,0-0.59,0.16-0.717,0.479c-0.129,0.304-0.071,0.583,0.168,0.837l7.654,7.655
		c0.176,0.146,0.359,0.217,0.549,0.217c0.194,0,0.375-0.071,0.553-0.217l7.629-7.632c0.16-0.188,0.24-0.382,0.24-0.572
		c0-0.225-0.074-0.408-0.217-0.552c-0.143-0.143-0.326-0.215-0.549-0.215l0,0h-4.594H26.948z"/>
	<g>
		<g>
			<path fill="#FFFFFF" d="M19.041,19.447c0.221,0.049,0.431,0.046,1.062-0.44c0.279-0.215,0.698-0.581,1.081-1.087l0.17-0.225
				c1.436-1.911,4.803-6.392,9.661-6.146c4.012,0.291,6.854,3.319,8.223,8.756c0.045,0.185,0.074,0.297,0.105,0.386
				c0.207,0.889,0.559,1.996,1.064,2.361c0.123,0.092,0.271,0.134,0.414,0.134c0.221,0,0.436-0.101,0.572-0.293
				c0.225-0.305,0.166-0.729-0.125-0.964c-0.141-0.181-0.402-0.938-0.559-1.614c-0.012-0.04-0.023-0.079-0.039-0.118
				c-0.012-0.048-0.039-0.146-0.062-0.237c-0.217-0.861-0.791-3.149-2.188-5.304c-1.801-2.779-4.26-4.302-7.309-4.521
				c-0.006,0-0.012,0-0.016,0c-5.617-0.287-9.302,4.614-10.877,6.709l-0.165,0.219c-0.43,0.571-0.941,0.925-1.115,1.029
				c-0.061,0.022-0.117,0.054-0.173,0.094c-0.218,0.169-0.324,0.451-0.266,0.723C18.561,19.177,18.77,19.39,19.041,19.447
				L19.041,19.447z"/>
			<path fill="#FFFFFF" d="M36.773,22.162c0.531-1.334,0.547-2.714,0.033-3.781c-0.455-0.955-1.307-1.646-2.461-1.999
				c-1.693-0.519-3.743,0.421-5.624,2.574c-0.025,0.028-2.702,2.844-5.512,4.562c-0.02,0.013-2.076,1.249-4.225,1.833
				c-0.378,0.103-0.601,0.493-0.498,0.869c0.101,0.376,0.492,0.6,0.866,0.497c2.341-0.637,4.499-1.931,4.592-1.989
				c3.05-1.866,5.815-4.808,5.835-4.836c1.143-1.305,2.832-2.561,4.148-2.158c0.775,0.238,1.312,0.66,1.602,1.257
				c0.34,0.713,0.312,1.678-0.072,2.646c-0.723,1.8-2.969,3.979-6.328,6.128c-1.683,1.078-5.921,3.725-8.917,5.006
				c-0.358,0.154-0.525,0.568-0.369,0.929c0.112,0.268,0.375,0.428,0.651,0.428c0.092,0,0.187-0.018,0.276-0.057
				c3.09-1.321,7.41-4.016,9.122-5.112C32.445,27.324,35.707,24.821,36.773,22.162L36.773,22.162z"/>
		</g>
		<path fill="#FFFFFF" d="M25.37,16.878c-0.321,0.354-0.609,0.732-0.917,1.095c-0.408,0.479-0.855,0.92-1.319,1.339
			c-0.475,0.433-0.863,0.739-1.428,1.064c-0.595,0.342-1.204,0.69-1.822,0.989c-0.216,0.103-0.396,0.173-0.637,0.243
			c-0.369,0.111-0.598,0.493-0.495,0.871c0.101,0.365,0.503,0.606,0.872,0.495c0.724-0.217,1.38-0.592,2.034-0.962
			c0.553-0.313,1.101-0.598,1.606-0.981c0.992-0.753,1.838-1.632,2.624-2.592c0.315-0.388,0.654-0.76,1.009-1.114
			c0.192-0.196,0.394-0.382,0.598-0.566c0.105-0.096,0.215-0.187,0.324-0.277c0.053-0.049,0.109-0.096,0.167-0.14
			c0.014-0.013,0.123-0.099,0.151-0.123c0.494-0.377,1.02-0.713,1.573-0.995c0.522-0.271,1.044-0.455,1.679-0.589
			c0.211-0.044,0.256-0.05,0.416-0.064c0.381-0.039,0.705-0.294,0.705-0.71c0-0.354-0.324-0.746-0.705-0.707
			C29.246,13.419,27.057,15.02,25.37,16.878L25.37,16.878z"/>
		<path fill="#FFFFFF" d="M19.863,30.433c1.534-0.526,9.435-3.476,13.856-9.674c0.225-0.32,0.152-0.76-0.166-0.989
			c-0.32-0.227-0.76-0.153-0.988,0.165c-4.172,5.848-11.699,8.655-13.164,9.158c-0.03,0.012-0.052,0.02-0.058,0.021
			c-0.363,0.138-0.547,0.546-0.411,0.913c0.106,0.283,0.377,0.457,0.662,0.457c0.081,0,0.165-0.014,0.24-0.042L19.863,30.433z"/>
		<path fill="#FFFFFF" d="M39.123,34.647c-0.979-0.327-2.182-1.184-3.342-2.009c-1.682-1.197-3.135-2.231-4.316-2.028
			c-0.888,0.153-2.444,1.146-4.894,2.763c-1.766,1.164-3.769,2.483-4.641,2.719c-0.38,0.104-0.604,0.491-0.5,0.867
			c0.086,0.317,0.372,0.525,0.685,0.525c0.058,0,0.12-0.007,0.182-0.023c1.094-0.297,3.015-1.564,5.053-2.909
			c1.648-1.084,3.697-2.434,4.355-2.548c0.602-0.102,2.074,0.944,3.256,1.788c1.246,0.886,2.533,1.805,3.715,2.199
			c0.373,0.124,0.775-0.078,0.895-0.45C39.695,35.173,39.496,34.771,39.123,34.647L39.123,34.647z"/>
		<path fill="#FFFFFF" d="M37.352,38.114c-0.57-0.205-1.496-0.779-2.396-1.333c-1.895-1.17-3.098-1.88-3.962-1.731
			c-0.874,0.15-2.715,1.4-5.799,3.654c-0.377,0.276-0.704,0.513-0.93,0.673c-0.321,0.227-0.397,0.668-0.17,0.986
			c0.14,0.195,0.36,0.301,0.581,0.301c0.139,0,0.281-0.044,0.405-0.129c0.234-0.169,0.567-0.409,0.949-0.688
			c1.227-0.896,4.493-3.277,5.2-3.4c0.441-0.027,2.033,0.953,2.986,1.542c1,0.618,1.949,1.203,2.656,1.46
			c0.369,0.133,0.771-0.059,0.906-0.426C37.91,38.653,37.721,38.247,37.352,38.114L37.352,38.114z"/>
		<path fill="#FFFFFF" d="M34.961,41.635c-0.396-0.26-0.764-0.52-1.117-0.771c-1.16-0.829-2.164-1.548-3.264-1.354
			c-1.241,0.214-3.213,2.197-3.596,2.59c-0.271,0.283-0.263,0.73,0.02,1.003c0.134,0.131,0.312,0.201,0.489,0.201
			c0.188,0,0.371-0.072,0.511-0.217c0.949-0.979,2.294-2.091,2.816-2.184c0.518-0.089,1.299,0.469,2.202,1.113
			c0.35,0.248,0.744,0.528,1.166,0.805c0.326,0.214,0.768,0.122,0.979-0.205C35.379,42.288,35.287,41.85,34.961,41.635
			L34.961,41.635z"/>
		<path fill="#FFFFFF" d="M41.191,27.022c-0.592-0.251-1.207-0.513-1.705-0.925c-0.545-0.455-0.801-1.053-0.914-1.743
			c-0.146-0.899-1.514-0.517-1.365,0.377c0.301,1.837,1.652,2.83,3.268,3.512c0.355,0.151,0.756,0.112,0.971-0.254
			C41.621,27.688,41.549,27.172,41.191,27.022L41.191,27.022z"/>
		<path fill="#FFFFFF" d="M39.816,30.716c-0.531-0.164-0.936-0.371-1.498-0.704c-1.027-0.605-1.969-1.49-2.424-2.617
			c-0.146-0.358-0.469-0.605-0.875-0.495c-0.338,0.094-0.637,0.515-0.492,0.872c0.844,2.08,2.779,3.653,4.914,4.308
			C40.316,32.351,40.686,30.984,39.816,30.716L39.816,30.716z"/>
	</g>
</g>
</svg>
