<?xml version="1.0" encoding="utf-8"?>
<!-- Generator: Adobe Illustrator 16.0.4, SVG Export Plug-In . SVG Version: 6.00 Build 0)  -->
<!DOCTYPE svg PUBLIC "-//W3C//DTD SVG 1.1//EN" "http://www.w3.org/Graphics/SVG/1.1/DTD/svg11.dtd">
<svg version="1.1" id="Layer_1" xmlns="http://www.w3.org/2000/svg" xmlns:xlink="http://www.w3.org/1999/xlink" x="0px" y="0px"
	 width="60px" height="60px" viewBox="0 0 60 60" enable-background="new 0 0 60 60" xml:space="preserve">
<g>
	<path fill="#FFFFFF" d="M55.719,36.192c0,0-1.769,5.336-0.221,8.916c0.774,1.79-30.444,11.936-30.444,11.936l-0.88-2.055
		l0.637-3.55L55.719,36.192L55.719,36.192z"/>
	<path d="M0,25.889l2.779-10.72c0,0,20.928-8.376,27.86-15.169l25.08,36.192c0,0-13.148,10.794-29.763,15.403
		c-0.601,0.168-1.136,4.871-1.136,4.871l30.677-11.51l0.292,2.763L23.568,60L0,25.889L0,25.889z"/>
	<polygon points="54.863,42.676 55.164,44.054 26.054,54.747 54.863,42.676 	"/>
	<path d="M32.091,50.864l22.775-9.35l0.086-1.433C54.952,40.082,55.34,40.811,32.091,50.864"/>
	
		<line fill="#FFFFFF" stroke="#FFFFFF" stroke-width="0.2341" stroke-miterlimit="10" x1="25.233" y1="49.396" x2="11.116" y2="30.709"/>
	<g>
		<path fill="#FFFFFF" d="M18.567,28.148c0.172-0.065,0.313-0.162,0.526-0.773c0.092-0.271,0.214-0.707,0.249-1.222l0.016-0.228
			c0.122-1.941,0.409-6.488,3.82-8.492c2.856-1.593,6.139-0.804,9.498,2.278c0.111,0.104,0.184,0.168,0.244,0.214
			c0.537,0.513,1.271,1.108,1.777,1.129c0.124,0.007,0.245-0.029,0.342-0.093c0.149-0.099,0.25-0.264,0.258-0.455
			c0.015-0.308-0.215-0.57-0.518-0.601c-0.174-0.059-0.69-0.456-1.1-0.846c-0.025-0.022-0.051-0.043-0.079-0.063
			c-0.029-0.026-0.09-0.083-0.146-0.134c-0.534-0.487-1.944-1.787-3.857-2.626c-2.465-1.083-4.817-1.021-6.984,0.191
			c-0.005,0.003-0.008,0.006-0.012,0.008c-3.945,2.313-4.259,7.29-4.394,9.417l-0.015,0.222c-0.039,0.581-0.228,1.049-0.298,1.197
			c-0.032,0.043-0.055,0.089-0.075,0.142c-0.073,0.212-0.019,0.452,0.142,0.609C18.12,28.179,18.357,28.229,18.567,28.148
			L18.567,28.148z M18.567,28.148"/>
		<path fill="#FFFFFF" d="M31.829,22.073c-0.235-1.144-0.84-2.088-1.665-2.585c-0.737-0.446-1.624-0.535-2.566-0.259
			c-1.381,0.405-2.356,1.958-2.672,4.261c-0.005,0.03-0.565,3.139-1.708,5.563c-0.007,0.017-0.853,1.775-2.052,3.131
			c-0.21,0.238-0.188,0.604,0.05,0.812c0.235,0.211,0.601,0.188,0.811-0.049c1.306-1.479,2.194-3.321,2.233-3.402
			c1.236-2.63,1.802-5.864,1.803-5.892c0.193-1.398,0.782-3.006,1.855-3.32c0.635-0.185,1.188-0.137,1.65,0.139
			c0.549,0.332,0.96,1,1.132,1.831c0.314,1.545-0.239,4.029-1.561,6.989c-0.664,1.486-2.362,5.177-3.826,7.384
			c-0.172,0.266-0.102,0.621,0.165,0.796c0.196,0.134,0.447,0.124,0.633,0.001c0.063-0.041,0.119-0.096,0.164-0.162
			c1.509-2.278,3.241-6.039,3.914-7.547C31.195,27.514,32.291,24.356,31.829,22.073L31.829,22.073z M31.829,22.073"/>
	</g>
	<path fill="#FFFFFF" d="M21.72,23.576c-0.061,0.383-0.087,0.77-0.134,1.154c-0.064,0.506-0.17,1.006-0.298,1.498
		c-0.13,0.506-0.257,0.887-0.495,1.36c-0.252,0.5-0.511,1.006-0.797,1.487c-0.099,0.165-0.191,0.294-0.323,0.449
		c-0.202,0.239-0.187,0.601,0.053,0.813c0.23,0.203,0.612,0.187,0.813-0.054c0.394-0.471,0.674-1.018,0.953-1.562
		c0.236-0.46,0.48-0.897,0.653-1.384c0.338-0.954,0.521-1.931,0.625-2.932c0.041-0.406,0.105-0.808,0.187-1.209
		c0.044-0.219,0.097-0.434,0.154-0.651c0.029-0.112,0.062-0.223,0.096-0.334c0.014-0.057,0.031-0.113,0.051-0.169
		c0.003-0.016,0.04-0.123,0.049-0.15c0.167-0.479,0.374-0.94,0.625-1.379c0.234-0.417,0.506-0.777,0.879-1.152
		c0.123-0.122,0.151-0.146,0.252-0.228c0.243-0.197,0.351-0.514,0.165-0.797c-0.16-0.243-0.555-0.363-0.797-0.165
		C22.81,19.494,22.038,21.56,21.72,23.576L21.72,23.576z M21.72,23.576"/>
	<path fill="#FFFFFF" d="M24.032,35.245c0.806-1.043,4.858-6.575,5.096-12.762c0.009-0.317-0.237-0.584-0.556-0.597
		c-0.318-0.012-0.585,0.235-0.598,0.554c-0.224,5.836-4.083,11.107-4.853,12.102c-0.017,0.021-0.029,0.036-0.032,0.04
		c-0.184,0.257-0.127,0.616,0.129,0.804c0.199,0.146,0.46,0.142,0.654,0.014c0.055-0.036,0.106-0.082,0.144-0.135L24.032,35.245z
		 M24.032,35.245"/>
	<path fill="#FFFFFF" d="M39.003,29.507c-0.812,0.214-2.013,0.171-3.168,0.127c-1.68-0.062-3.127-0.116-3.841,0.55
		c-0.533,0.5-1.148,1.87-2.091,4.063c-0.679,1.579-1.452,3.371-1.938,3.92c-0.213,0.24-0.191,0.604,0.047,0.812
		c0.2,0.178,0.488,0.191,0.7,0.053c0.04-0.026,0.079-0.06,0.114-0.099c0.612-0.69,1.349-2.411,2.135-4.232
		c0.634-1.474,1.425-3.304,1.821-3.678c0.362-0.337,1.829-0.283,3.01-0.238c1.243,0.046,2.529,0.095,3.507-0.165
		c0.31-0.082,0.491-0.399,0.407-0.706C39.625,29.608,39.31,29.426,39.003,29.507L39.003,29.507z M39.003,29.507"/>
	<path fill="#FFFFFF" d="M39.347,32.653c-0.479,0.116-1.364,0.141-2.224,0.167c-1.811,0.051-2.944,0.104-3.465,0.593
		c-0.527,0.492-1.22,2.164-2.311,5.072c-0.132,0.355-0.248,0.663-0.331,0.873c-0.116,0.295,0.028,0.631,0.325,0.747
		c0.182,0.069,0.379,0.042,0.529-0.056c0.095-0.063,0.171-0.157,0.217-0.269c0.085-0.219,0.203-0.53,0.339-0.892
		c0.433-1.157,1.589-4.234,2.014-4.633c0.287-0.219,1.808-0.262,2.719-0.288c0.954-0.025,1.862-0.053,2.457-0.193
		c0.31-0.074,0.498-0.384,0.425-0.693C39.968,32.77,39.657,32.579,39.347,32.653L39.347,32.653z M39.347,32.653"/>
	<path fill="#FFFFFF" d="M39.293,36.114c-0.384,0.002-0.749-0.013-1.103-0.025c-1.158-0.046-2.161-0.085-2.822,0.537
		c-0.749,0.699-1.202,2.929-1.286,3.365c-0.059,0.315,0.147,0.614,0.46,0.675c0.151,0.028,0.303-0.004,0.422-0.083
		c0.128-0.084,0.221-0.217,0.251-0.375c0.208-1.09,0.624-2.447,0.939-2.742c0.312-0.291,1.092-0.262,1.993-0.226
		c0.348,0.012,0.741,0.026,1.151,0.026c0.316,0,0.574-0.262,0.573-0.577C39.871,36.371,39.612,36.114,39.293,36.114L39.293,36.114z
		 M39.293,36.114"/>
	<path fill="#FFFFFF" d="M37.002,23.402c-0.513,0.093-1.05,0.191-1.571,0.133c-0.575-0.066-1.016-0.357-1.399-0.777
		c-0.502-0.544-1.26,0.326-0.759,0.867c1.023,1.113,2.386,1.185,3.788,0.926c0.31-0.057,0.563-0.261,0.547-0.604
		C37.594,23.663,37.311,23.345,37.002,23.402L37.002,23.402z M37.002,23.402"/>
	<path fill="#FFFFFF" d="M37.717,26.526c-0.434,0.125-0.801,0.167-1.332,0.19c-0.969,0.047-2.005-0.133-2.817-0.696
		c-0.257-0.177-0.587-0.202-0.813,0.055c-0.188,0.214-0.205,0.633,0.055,0.812c1.501,1.037,3.521,1.24,5.264,0.734
		C38.787,27.415,38.428,26.32,37.717,26.526L37.717,26.526z M37.717,26.526"/>
</g>
</svg>
