<?xml version="1.0" encoding="utf-8"?>
<!-- Generator: Adobe Illustrator 16.0.4, SVG Export Plug-In . SVG Version: 6.00 Build 0)  -->
<!DOCTYPE svg PUBLIC "-//W3C//DTD SVG 1.1//EN" "http://www.w3.org/Graphics/SVG/1.1/DTD/svg11.dtd">
<svg version="1.1" id="Layer_1" xmlns="http://www.w3.org/2000/svg" xmlns:xlink="http://www.w3.org/1999/xlink" x="0px" y="0px"
	 width="24px" height="24px" viewBox="0 0 24 24" enable-background="new 0 0 24 24" xml:space="preserve">
<path fill="#231F20" d="M24,14.25V9.747l-3.439-0.573c-0.141-0.425-0.311-0.836-0.51-1.23l2.027-2.837L18.893,1.92l-2.832,2.023
	c-0.396-0.2-0.809-0.372-1.236-0.513L14.252,0H9.748L9.175,3.431c-0.427,0.141-0.84,0.311-1.236,0.512L5.106,1.92L1.921,5.106
	l2.027,2.836C3.749,8.337,3.579,8.748,3.44,9.174L0,9.747v4.503l3.448,0.574c0.139,0.422,0.309,0.83,0.507,1.221l-2.034,2.848
	l3.186,3.186l2.852-2.037c0.389,0.195,0.793,0.363,1.213,0.502L9.748,24h4.504l0.576-3.457c0.42-0.139,0.824-0.307,1.215-0.502
	l2.85,2.035l3.186-3.184l-2.033-2.848c0.199-0.391,0.367-0.799,0.508-1.223L24,14.25z M12,15c-1.657,0-3-1.346-3-3
	c0-1.657,1.343-3,3-3c1.656,0,3,1.343,3,3C15,13.654,13.656,15,12,15z"/>
</svg>
