<?xml version="1.0" encoding="UTF-8" standalone="no"?>
<!-- Generator: Adobe Illustrator 21.1.0, SVG Export Plug-In . SVG Version: 6.00 Build 0)  -->

<svg
   xmlns:dc="http://purl.org/dc/elements/1.1/"
   xmlns:cc="http://creativecommons.org/ns#"
   xmlns:rdf="http://www.w3.org/1999/02/22-rdf-syntax-ns#"
   xmlns:svg="http://www.w3.org/2000/svg"
   xmlns="http://www.w3.org/2000/svg"
   xmlns:sodipodi="http://sodipodi.sourceforge.net/DTD/sodipodi-0.dtd"
   xmlns:inkscape="http://www.inkscape.org/namespaces/inkscape"
   version="1.1"
   id="Layer_1"
   x="0px"
   y="0px"
   viewBox="0 0 60 60"
   style="enable-background:new 0 0 60 60;"
   xml:space="preserve"
   inkscape:version="0.91 r13725"
   sodipodi:docname="goodreads-o.svg"><metadata
     id="metadata17"><rdf:RDF><cc:Work
         rdf:about=""><dc:format>image/svg+xml</dc:format><dc:type
           rdf:resource="http://purl.org/dc/dcmitype/StillImage" /><dc:title></dc:title></cc:Work></rdf:RDF></metadata><defs
     id="defs15" /><sodipodi:namedview
     pagecolor="#ffffff"
     bordercolor="#666666"
     borderopacity="1"
     objecttolerance="10"
     gridtolerance="10"
     guidetolerance="10"
     inkscape:pageopacity="0"
     inkscape:pageshadow="2"
     inkscape:window-width="1600"
     inkscape:window-height="876"
     id="namedview13"
     showgrid="false"
     inkscape:zoom="11.125147"
     inkscape:cx="12.445001"
     inkscape:cy="32.323928"
     inkscape:window-x="0"
     inkscape:window-y="24"
     inkscape:window-maximized="1"
     inkscape:current-layer="Layer_1" /><style
     type="text/css"
     id="style3">
	.st0{fill:#FFFFFF;}
</style><path
     inkscape:connector-curvature="0"
     id="path9"
     d="m 45.6,0.8 c 7.6,0 13.7,6.1 13.7,13.7 l 0,31.1 c 0,7.6 -6.1,13.7 -13.7,13.7 l -31.1,0 C 6.9,59.3 0.8,53.2 0.8,45.6 l 0,-31.2 C 0.8,6.8 6.9,0.7 14.5,0.7 l 31.1,0 M 45.6,0 14.5,0 C 6.5,0 0,6.5 0,14.4 L 0,45.5 C 0,53.5 6.5,60 14.5,60 l 31.1,0 C 53.6,60 60,53.5 60,45.5 L 60,14.4 C 60,6.5 53.5,0 45.6,0 l 0,0 z" /><path
     d="M40.5,30.5h-0.1c-1.1,4.8-6,7.6-10.7,7.6c-7.5,0-11.3-6-11.3-13c0-7.3,4-13.3,11.7-13.3c5.2,0,9.2,3.4,10.3,7.9h0.1v-7.2  h1.1v26.3c0,7.4-4.2,10.9-11.3,10.9c-5.5,0-10.2-2.5-10.3-8.6H21c0.2,5.4,4.3,7.5,9.2,7.5c6.6,0,10.3-3.1,10.3-9.8V30.5z M30.1,12.9  c-7,0-10.6,5.7-10.6,12.3c0,6.7,3.6,11.9,10.2,11.9c7,0,10.8-5.4,10.8-11.9C40.5,18.9,36.9,12.9,30.1,12.9"
     id="path11" /></svg>