<?xml version="1.0" encoding="UTF-8" standalone="no"?>
<!-- Generator: Adobe Illustrator 21.1.0, SVG Export Plug-In . SVG Version: 6.00 Build 0)  -->

<svg
   xmlns:dc="http://purl.org/dc/elements/1.1/"
   xmlns:cc="http://creativecommons.org/ns#"
   xmlns:rdf="http://www.w3.org/1999/02/22-rdf-syntax-ns#"
   xmlns:svg="http://www.w3.org/2000/svg"
   xmlns="http://www.w3.org/2000/svg"
   xmlns:sodipodi="http://sodipodi.sourceforge.net/DTD/sodipodi-0.dtd"
   xmlns:inkscape="http://www.inkscape.org/namespaces/inkscape"
   version="1.1"
   id="Layer_1"
   x="0px"
   y="0px"
   viewBox="0 0 60 70"
   xml:space="preserve"
   inkscape:version="0.91 r13725"
   sodipodi:docname="goodreads.svg"
   width="60"
   height="70"><metadata
     id="metadata17"><rdf:RDF><cc:Work
         rdf:about=""><dc:format>image/svg+xml</dc:format><dc:type
           rdf:resource="http://purl.org/dc/dcmitype/StillImage" /><dc:title /></cc:Work></rdf:RDF></metadata><defs
     id="defs15" /><sodipodi:namedview
     pagecolor="#ffffff"
     bordercolor="#666666"
     borderopacity="1"
     objecttolerance="10"
     gridtolerance="10"
     guidetolerance="10"
     inkscape:pageopacity="0"
     inkscape:pageshadow="2"
     inkscape:window-width="1600"
     inkscape:window-height="876"
     id="namedview13"
     showgrid="false"
     inkscape:zoom="7.8666669"
     inkscape:cx="23.628913"
     inkscape:cy="31.554168"
     inkscape:window-x="0"
     inkscape:window-y="24"
     inkscape:window-maximized="1"
     inkscape:current-layer="Layer_1" /><style
     type="text/css"
     id="style3">
	.st0{fill:#FFFFFF;}
</style><path
     d="M 14.5,5 C 6.5,5 0,11.500391 0,19.400391 L 0,50.5 C 0,58.5 6.5,65 14.5,65 l 31.099609,0 C 53.599609,65 60,58.5 60,50.5 L 60,19.400391 C 60,11.500391 53.499609,5 45.599609,5 L 14.5,5 Z m 15.599609,11.800781 c 5.2,0 9.200782,3.398438 10.300782,7.898438 l 0.09961,0 0,-7.199219 1.099609,0 0,26.300781 c 0,7.4 -4.198828,10.898438 -11.298828,10.898438 -5.5,0 -10.200781,-2.49961 -10.300781,-8.59961 l 1,0 c 0.2,5.4 4.299219,7.5 9.199219,7.5 6.6,0 10.300781,-3.098828 10.300781,-9.798828 l 0,-8.300781 -0.09961,0 c -1.1,4.8 -6.001172,7.599609 -10.701172,7.599609 -7.5,0 -11.298828,-6 -11.298828,-13 0,-7.3 3.999218,-13.298828 11.699218,-13.298828 z m 0,1.09961 c -7,0 -10.599609,5.698828 -10.599609,12.298828 0,6.7 3.599219,11.90039 10.199219,11.90039 7,0 10.800781,-5.40039 10.800781,-11.90039 0,-6.3 -3.600391,-12.298828 -10.400391,-12.298828 z"
     id="path9"
     inkscape:connector-curvature="0" /></svg>