<?xml version="1.0" encoding="UTF-8" standalone="no"?>
<!-- Generator: Adobe Illustrator 21.1.0, SVG Export Plug-In . SVG Version: 6.00 Build 0)  -->

<svg
   xmlns:dc="http://purl.org/dc/elements/1.1/"
   xmlns:cc="http://creativecommons.org/ns#"
   xmlns:rdf="http://www.w3.org/1999/02/22-rdf-syntax-ns#"
   xmlns:svg="http://www.w3.org/2000/svg"
   xmlns="http://www.w3.org/2000/svg"
   xmlns:sodipodi="http://sodipodi.sourceforge.net/DTD/sodipodi-0.dtd"
   xmlns:inkscape="http://www.inkscape.org/namespaces/inkscape"
   version="1.1"
   id="Layer_1"
   x="0px"
   y="0px"
   viewBox="0 0 60 70"
   xml:space="preserve"
   inkscape:version="0.91 r13725"
   sodipodi:docname="goodreads-o.svg"
   width="60"
   height="70"><metadata
     id="metadata17"><rdf:RDF><cc:Work
         rdf:about=""><dc:format>image/svg+xml</dc:format><dc:type
           rdf:resource="http://purl.org/dc/dcmitype/StillImage" /><dc:title /></cc:Work></rdf:RDF></metadata><defs
     id="defs15" /><sodipodi:namedview
     pagecolor="#ffffff"
     bordercolor="#666666"
     borderopacity="1"
     objecttolerance="10"
     gridtolerance="10"
     guidetolerance="10"
     inkscape:pageopacity="0"
     inkscape:pageshadow="2"
     inkscape:window-width="1600"
     inkscape:window-height="876"
     id="namedview13"
     showgrid="false"
     inkscape:zoom="11.125147"
     inkscape:cx="29.156898"
     inkscape:cy="36.852984"
     inkscape:window-x="0"
     inkscape:window-y="24"
     inkscape:window-maximized="1"
     inkscape:current-layer="Layer_1" /><style
     type="text/css"
     id="style3">
	.st0{fill:#FFFFFF;}
</style><g
     id="g4292"><path
       id="path4191"
       d="m 46.09091,6.3636356 c 7.090909,0 12.545454,5.5909094 12.545454,13.0909094 l 0,31.227274 c 0,7.5 -5.454545,13.090909 -12.545454,13.090909 l -31.227274,0 C 7.4999994,63.636364 1.3636356,57.636364 1.3636356,50.545455 l 0,-31.09091 c 0,-7.090909 6.1363638,-13.0909094 13.5000004,-13.0909094 l 31.227274,0 m 0,-1.3636364 -31.227274,0 C 6.8181812,4.9999992 -8e-7,11.40909 -8e-7,19.454545 l 0,31.227274 c 0,7.909091 6.818182,14.318182 14.8636368,14.318182 l 31.227274,0 c 7.909091,0 13.909091,-6.409091 13.909091,-14.454546 l 0,-31.09091 c 0,-8.045455 -6,-14.4545458 -13.909091,-14.4545458 l 0,0 z"
       class="st0"
       inkscape:connector-curvature="0"
       style="fill:#000000" /><path
       style="fill:#000000"
       inkscape:connector-curvature="0"
       id="path11"
       d="m 40.5,35.5 -0.1,0 c -1.1,4.8 -6,7.6 -10.7,7.6 -7.5,0 -11.3,-6 -11.3,-13 0,-7.3 4,-13.3 11.7,-13.3 5.2,0 9.2,3.4 10.3,7.9 l 0.1,0 0,-7.2 1.1,0 0,26.3 c 0,7.4 -4.2,10.9 -11.3,10.9 -5.5,0 -10.2,-2.5 -10.3,-8.6 l 1,0 c 0.2,5.4 4.3,7.5 9.2,7.5 6.6,0 10.3,-3.1 10.3,-9.8 l 0,-8.3 z M 30.1,17.9 c -7,0 -10.6,5.7 -10.6,12.3 0,6.7 3.6,11.9 10.2,11.9 7,0 10.8,-5.4 10.8,-11.9 0,-6.3 -3.6,-12.3 -10.4,-12.3" /></g><style
     id="style4187"
     type="text/css">
	.st0{fill:#231F20;}
</style><style
     id="style4258"
     type="text/css">
	.st0{fill:#231F20;}
	.st1{fill:#FFFFFF;}
</style></svg>