<?xml version="1.0" encoding="utf-8"?>
<!-- Generator: Adobe Illustrator 16.0.4, SVG Export Plug-In . SVG Version: 6.00 Build 0)  -->
<!DOCTYPE svg PUBLIC "-//W3C//DTD SVG 1.1//EN" "http://www.w3.org/Graphics/SVG/1.1/DTD/svg11.dtd">
<svg version="1.1" id="Layer_1" xmlns="http://www.w3.org/2000/svg" xmlns:xlink="http://www.w3.org/1999/xlink" x="0px" y="0px"
	 width="24px" height="24px" viewBox="0 0 24 24" enable-background="new 0 0 24 24" xml:space="preserve">
<g>
	<path fill="#231F20" d="M14.181,5.744c-0.652,0.652-1.445,0.979-2.382,0.979c-0.911,0-1.699-0.332-2.363-0.997
		C8.77,5.061,8.438,4.273,8.438,3.361c0-0.936,0.326-1.729,0.979-2.381C10.069,0.327,10.863,0,11.799,0
		c0.937,0,1.729,0.327,2.382,0.98c0.653,0.651,0.979,1.445,0.979,2.381S14.834,5.092,14.181,5.744z"/>
</g>
<path fill="#231F20" d="M5.778,24v-0.344c0-0.541,0.443-0.983,0.983-0.983h1.624c0.541,0,0.984-0.442,0.984-0.983V13.82l0.002,0.043
	c0-0.541-0.443-0.983-0.984-0.983H6.491c-0.541,0-0.984-0.442-0.984-0.983v-2.76c0-0.541,0.443-0.984,0.984-0.984h7.427
	c0.54,0,0.983,0.443,0.983,0.984v12.571c0,0.541,0.443,0.982,0.984,0.982h1.623c0.542,0,0.984,0.443,0.984,0.984V24H5.778z"/>
</svg>
