<?xml version="1.0" encoding="UTF-8" standalone="no"?>
<svg
   xmlns:dc="http://purl.org/dc/elements/1.1/"
   xmlns:cc="http://creativecommons.org/ns#"
   xmlns:rdf="http://www.w3.org/1999/02/22-rdf-syntax-ns#"
   xmlns:svg="http://www.w3.org/2000/svg"
   xmlns="http://www.w3.org/2000/svg"
   xmlns:sodipodi="http://sodipodi.sourceforge.net/DTD/sodipodi-0.dtd"
   xmlns:inkscape="http://www.inkscape.org/namespaces/inkscape"
   viewBox="0 0 20 19.999999"
   version="1.1"
   id="svg3777"
   sodipodi:docname="info.svg"
   width="20"
   height="20"
   inkscape:version="0.92.3 (d244b95, 2018-08-02)">
  <metadata
     id="metadata3783">
    <rdf:RDF>
      <cc:Work
         rdf:about="">
        <dc:format>image/svg+xml</dc:format>
        <dc:type
           rdf:resource="http://purl.org/dc/dcmitype/StillImage" />
        <dc:title>info_icon</dc:title>
      </cc:Work>
    </rdf:RDF>
  </metadata>
  <defs
     id="defs3781" />
  <sodipodi:namedview
     pagecolor="#ffffff"
     bordercolor="#666666"
     borderopacity="1"
     objecttolerance="10"
     gridtolerance="10"
     guidetolerance="10"
     inkscape:pageopacity="0"
     inkscape:pageshadow="2"
     inkscape:window-width="1920"
     inkscape:window-height="1016"
     id="namedview3779"
     showgrid="false"
     inkscape:zoom="41.437842"
     inkscape:cx="4.0737229"
     inkscape:cy="10.015"
     inkscape:window-x="0"
     inkscape:window-y="27"
     inkscape:window-maximized="1"
     inkscape:current-layer="svg3777" />
  <title
     id="title3771">info_icon</title>
  <path
     d="m 6.3874915,16.940724 c 0.06,-0.29 0.16,-0.67 0.29,-1.15 l 1.78,-6.4799999 c 0,-0.07 0,-0.15 0,-0.22 a 1.8,1.8 0 0 0 0,-0.22 c 0,-0.38 -0.12,-0.62 -0.37,-0.71 a 4.58,4.58 0 0 0 -1.26,-0.16 v -0.79 c 0.54,-0.04 1.32,-0.11 2.39,-0.21 1.0700005,-0.1 1.7600005,-0.22 2.1900005,-0.3 l 1.23,-0.24 -2.28,8.1899999 -0.3800005,1.46 a 8.57,8.57 0 0 0 -0.25,1.36 0.47,0.47 0 0 0 0.14,0.4 0.59,0.59 0 0 0 0.3500005,0.13 c 0.29,0 0.66,-0.25 1.09,-0.75 a 11.94,11.94 0 0 0 1.14,-1.56 l 0.64,0.41 a 19.59,19.59 0 0 1 -2.16,2.79 3.77,3.77 0 0 1 -2.7100005,1.11 2.22,2.22 0 0 1 -1.41,-0.49 1.75,1.75 0 0 1 -0.59,-1.45 6.06,6.06 0 0 1 0.17,-1.12 z M 13.217492,0.56072413 a 1.86,1.86 0 0 1 0.57,1.36999997 1.87,1.87 0 0 1 -0.57,1.37 1.84,1.84 0 0 1 -1.36,0.57 1.88,1.88 0 0 1 -1.43,-0.57 1.87,1.87 0 0 1 -0.5700005,-1.37 1.86,1.86 0 0 1 0.5700005,-1.36999997 1.91,1.91 0 0 1 1.38,-0.55999999721 1.86,1.86 0 0 1 1.41,0.55999999721 z"
     id="path3773"
     inkscape:connector-curvature="0" />
</svg>
