<?xml version="1.0" encoding="UTF-8" standalone="no"?>
<svg
   xmlns:dc="http://purl.org/dc/elements/1.1/"
   xmlns:cc="http://creativecommons.org/ns#"
   xmlns:rdf="http://www.w3.org/1999/02/22-rdf-syntax-ns#"
   xmlns:svg="http://www.w3.org/2000/svg"
   xmlns="http://www.w3.org/2000/svg"
   xmlns:sodipodi="http://sodipodi.sourceforge.net/DTD/sodipodi-0.dtd"
   xmlns:inkscape="http://www.inkscape.org/namespaces/inkscape"
   viewBox="0 0 20 19.999999"
   version="1.1"
   id="svg3777"
   sodipodi:docname="info-circle-o.svg"
   width="20"
   height="20"
   inkscape:version="0.92.3 (d244b95, 2018-08-02)">
  <metadata
     id="metadata3783">
    <rdf:RDF>
      <cc:Work
         rdf:about="">
        <dc:format>image/svg+xml</dc:format>
        <dc:type
           rdf:resource="http://purl.org/dc/dcmitype/StillImage" />
        <dc:title>info_icon</dc:title>
      </cc:Work>
    </rdf:RDF>
  </metadata>
  <defs
     id="defs3781" />
  <sodipodi:namedview
     pagecolor="#ffffff"
     bordercolor="#666666"
     borderopacity="1"
     objecttolerance="10"
     gridtolerance="10"
     guidetolerance="10"
     inkscape:pageopacity="0"
     inkscape:pageshadow="2"
     inkscape:window-width="1920"
     inkscape:window-height="1016"
     id="namedview3779"
     showgrid="false"
     inkscape:zoom="41.5"
     inkscape:cx="10"
     inkscape:cy="10"
     inkscape:window-x="0"
     inkscape:window-y="27"
     inkscape:window-maximized="1"
     inkscape:current-layer="svg3777" />
  <title
     id="title3771">info_icon</title>
  <path
     style="fill:none;stroke:#000000;stroke-width:0.33290923;stroke-miterlimit:4;stroke-dasharray:none;stroke-opacity:1"
     d="M 19.833546,9.9999995 A 9.8335453,9.8335451 0 0 1 9.9999997,19.833546 9.8335453,9.8335451 0 0 1 0.16645439,9.9999995 9.8335453,9.8335451 0 0 1 9.9999997,0.16645446 9.8335453,9.8335451 0 0 1 19.833546,9.9999995 Z"
     id="path3940"
     inkscape:connector-curvature="0" />
  <path
     d="M 7.28948,15.207731 C 7.334499,14.99014 7.4095305,14.70502 7.5070714,14.344868 L 8.8426325,9.4828256 c 0,-0.052523 0,-0.1125474 0,-0.1650694 a 1.3505674,1.3505674 0 0 0 0,-0.1650694 c 0,-0.2851198 -0.090038,-0.4651954 -0.2776167,-0.5327237 A 3.4364438,3.4364438 0 0 0 7.6196186,8.4999126 V 7.9071635 C 8.0247889,7.8771505 8.6100347,7.8246285 9.4128724,7.7495973 10.215709,7.6745663 10.733427,7.584528 11.056063,7.5245028 L 11.97895,7.3444271 10.268232,13.48951 9.9831114,14.584969 a 6.4302015,6.4302015 0 0 0 -0.187578,1.020429 0.35264816,0.35264816 0 0 0 0.105044,0.300127 0.44268599,0.44268599 0 0 0 0.2626106,0.09754 c 0.217591,0 0.495207,-0.187579 0.817842,-0.562736 a 8.9587638,8.9587638 0 0 0 0.85536,-1.170492 l 0.480202,0.307629 a 14.698675,14.698675 0 0 1 -1.620681,2.09338 2.8286884,2.8286884 0 0 1 -2.0333541,0.83285 A 1.6656998,1.6656998 0 0 1 7.6046124,17.136041 1.3130516,1.3130516 0 0 1 7.1619264,16.048084 4.5469103,4.5469103 0 0 1 7.28948,15.207731 Z M 12.414133,2.9175673 A 1.3955863,1.3955863 0 0 1 12.841812,3.9454991 1.4030895,1.4030895 0 0 1 12.414133,4.973431 1.38058,1.38058 0 0 1 11.393704,5.4011107 1.4105927,1.4105927 0 0 1 10.320753,4.973431 1.4030895,1.4030895 0 0 1 9.8930744,3.9454991 1.3955863,1.3955863 0 0 1 10.320753,2.9175673 1.4331021,1.4331021 0 0 1 11.356188,2.4973908 1.3955863,1.3955863 0 0 1 12.414133,2.9175673 Z"
     id="path3773"
     inkscape:connector-curvature="0"
     style="stroke-width:0.75031525" />
</svg>
