<?xml version="1.0" encoding="utf-8"?>
<!-- Generator: Adobe Illustrator 26.0.3, SVG Export Plug-In . SVG Version: 6.00 Build 0)  -->
<svg version="1.1"
	 id="svg3777" inkscape:version="0.92.3 (d244b95, 2018-08-02)" sodipodi:docname="info-circle-o.svg" xmlns:cc="http://creativecommons.org/ns#" xmlns:dc="http://purl.org/dc/elements/1.1/" xmlns:inkscape="http://www.inkscape.org/namespaces/inkscape" xmlns:rdf="http://www.w3.org/1999/02/22-rdf-syntax-ns#" xmlns:sodipodi="http://sodipodi.sourceforge.net/DTD/sodipodi-0.dtd" xmlns:svg="http://www.w3.org/2000/svg"
	 xmlns="http://www.w3.org/2000/svg" xmlns:xlink="http://www.w3.org/1999/xlink" x="0px" y="0px" viewBox="0 0 20 20"
	 style="enable-background:new 0 0 20 20;" xml:space="preserve">
<sodipodi:namedview  bordercolor="#666666" borderopacity="1" gridtolerance="10" guidetolerance="10" id="namedview3779" inkscape:current-layer="svg3777" inkscape:cx="10" inkscape:cy="10" inkscape:pageopacity="0" inkscape:pageshadow="2" inkscape:window-height="1016" inkscape:window-maximized="1" inkscape:window-width="1920" inkscape:window-x="0" inkscape:window-y="27" inkscape:zoom="41.5" objecttolerance="10" pagecolor="#ffffff" showgrid="false">
	</sodipodi:namedview>
<path d="M10,20C4.5,20,0,15.5,0,10C0,4.5,4.5,0,10,0c5.5,0,10,4.5,10,10C20,15.5,15.5,20,10,20z M10,0.3c-5.3,0-9.7,4.3-9.7,9.7
	c0,5.3,4.3,9.7,9.7,9.7c5.3,0,9.7-4.3,9.7-9.7C19.7,4.7,15.3,0.3,10,0.3z"/>
<path id="path3773" inkscape:connector-curvature="0" d="M7.3,15.2c0-0.2,0.1-0.5,0.2-0.9l1.3-4.9c0-0.1,0-0.1,0-0.2
	c0-0.1,0-0.1,0-0.2c0-0.3-0.1-0.5-0.3-0.5C8.3,8.5,7.9,8.5,7.6,8.5V7.9c0.4,0,1-0.1,1.8-0.2c0.8-0.1,1.3-0.2,1.6-0.2L12,7.3
	l-1.7,6.1L10,14.6c-0.1,0.3-0.2,0.7-0.2,1c0,0.1,0,0.2,0.1,0.3C10,16,10.1,16,10.2,16c0.2,0,0.5-0.2,0.8-0.6
	c0.3-0.4,0.6-0.8,0.9-1.2l0.5,0.3c-0.5,0.7-1,1.4-1.6,2.1c-0.5,0.5-1.3,0.8-2,0.8c-0.4,0-0.8-0.1-1.1-0.4c-0.3-0.3-0.5-0.7-0.4-1.1
	C7.2,15.8,7.2,15.5,7.3,15.2z M12.4,2.9c0.3,0.3,0.4,0.6,0.4,1c0,0.4-0.1,0.8-0.4,1c-0.3,0.3-0.6,0.4-1,0.4c-0.4,0-0.8-0.1-1.1-0.4
	c-0.3-0.3-0.4-0.6-0.4-1c0-0.4,0.1-0.8,0.4-1c0.3-0.3,0.6-0.4,1-0.4C11.8,2.5,12.1,2.6,12.4,2.9z"/>
</svg>
