<?xml version="1.0" encoding="UTF-8" standalone="no"?>
<svg
   xmlns:dc="http://purl.org/dc/elements/1.1/"
   xmlns:cc="http://creativecommons.org/ns#"
   xmlns:rdf="http://www.w3.org/1999/02/22-rdf-syntax-ns#"
   xmlns:svg="http://www.w3.org/2000/svg"
   xmlns="http://www.w3.org/2000/svg"
   xmlns:sodipodi="http://sodipodi.sourceforge.net/DTD/sodipodi-0.dtd"
   xmlns:inkscape="http://www.inkscape.org/namespaces/inkscape"
   viewBox="0 0 20 19.999999"
   version="1.1"
   id="svg3777"
   sodipodi:docname="info-circle.svg"
   width="20"
   height="20"
   inkscape:version="0.92.3 (d244b95, 2018-08-02)">
  <metadata
     id="metadata3783">
    <rdf:RDF>
      <cc:Work
         rdf:about="">
        <dc:format>image/svg+xml</dc:format>
        <dc:type
           rdf:resource="http://purl.org/dc/dcmitype/StillImage" />
        <dc:title>info_icon</dc:title>
      </cc:Work>
    </rdf:RDF>
  </metadata>
  <defs
     id="defs3781" />
  <sodipodi:namedview
     pagecolor="#ffffff"
     bordercolor="#666666"
     borderopacity="1"
     objecttolerance="10"
     gridtolerance="10"
     guidetolerance="10"
     inkscape:pageopacity="0"
     inkscape:pageshadow="2"
     inkscape:window-width="1920"
     inkscape:window-height="1016"
     id="namedview3779"
     showgrid="false"
     inkscape:zoom="41.437842"
     inkscape:cx="4.0737229"
     inkscape:cy="10.015"
     inkscape:window-x="0"
     inkscape:window-y="27"
     inkscape:window-maximized="1"
     inkscape:current-layer="svg3777" />
  <title
     id="title3771">info_icon</title>
  <path
     style="fill:#000000;stroke:none;stroke-width:4.04295683"
     d="M 10 0 A 10 10 0 0 0 0 10 A 10 10 0 0 0 10 20 A 10 10 0 0 0 20 10 A 10 10 0 0 0 10 0 z M 11.355469 2.4980469 A 1.3955863 1.3955863 0 0 1 12.414062 2.9179688 A 1.3955863 1.3955863 0 0 1 12.841797 3.9453125 A 1.4030895 1.4030895 0 0 1 12.414062 4.9726562 A 1.38058 1.38058 0 0 1 11.394531 5.4003906 A 1.4105927 1.4105927 0 0 1 10.320312 4.9726562 A 1.4030895 1.4030895 0 0 1 9.8925781 3.9453125 A 1.3955863 1.3955863 0 0 1 10.320312 2.9179688 A 1.4331021 1.4331021 0 0 1 11.355469 2.4980469 z M 11.978516 7.34375 L 10.267578 13.490234 L 9.9824219 14.585938 A 6.4302015 6.4302015 0 0 0 9.7949219 15.605469 A 0.35264816 0.35264816 0 0 0 9.9003906 15.90625 A 0.44268599 0.44268599 0 0 0 10.164062 16.003906 C 10.381654 16.003906 10.657834 15.81461 10.980469 15.439453 A 8.9587638 8.9587638 0 0 0 11.835938 14.269531 L 12.316406 14.578125 A 14.698675 14.698675 0 0 1 10.695312 16.669922 A 2.8286884 2.8286884 0 0 1 8.6621094 17.503906 A 1.6656998 1.6656998 0 0 1 7.6054688 17.136719 A 1.3130516 1.3130516 0 0 1 7.1621094 16.048828 A 4.5469103 4.5469103 0 0 1 7.2890625 15.207031 C 7.3340815 14.98944 7.4102716 14.705855 7.5078125 14.345703 L 8.8417969 9.4824219 L 8.8417969 9.3183594 A 1.3505674 1.3505674 0 0 0 8.8417969 9.1523438 C 8.8417969 8.8672239 8.7520318 8.6866689 8.5644531 8.6191406 A 3.4364438 3.4364438 0 0 0 7.6191406 8.5 L 7.6191406 7.90625 C 8.0243109 7.876237 8.6092717 7.8250312 9.4121094 7.75 C 10.214946 7.674969 10.734005 7.5854158 11.056641 7.5253906 L 11.978516 7.34375 z "
     id="path3940" />
</svg>
