<svg xmlns="http://www.w3.org/2000/svg" viewBox="0 0 45.42 55.88"><defs><style>.cls-1{fill:#fff;}</style></defs><title>logo_insights</title><g id="Layer_2" data-name="Layer 2"><g id="ARTWORK"><path class="cls-1" d="M36.42,20.3C35.75,16,33,9.38,22.73,9.38c-7.52,0-11,3.57-12.6,7.16,8.25-3.91,15-4.64,17.7-2.5C36.75,21.1,14.33,30.32,15,25.09c1.31,1.36,9-3.66,7.83-6.47s-7.24-2-13.58.73a16.5,16.5,0,0,0-.38,3.49,11.77,11.77,0,0,0,.09,1.42c4.67-2.82,9.49-4,9.2-1.63-1.16-1.21-7.66,2.7-8.26,5.55a20.22,20.22,0,0,0,.81,2c2.73,2.15,10.77-.72,20.36-6.28l-1.16-1.2Z"/><path class="cls-1" d="M36.63,22.84c0-.24,0-.52,0-.82v1l-2.78,3.57-1.47-1.23a77.29,77.29,0,0,1-17.44,11c2.06,3,1.92,4.11,1.92,4.11v3.58H15.65a1.34,1.34,0,0,0,0,2.67H29.77a1.34,1.34,0,0,0,0-2.67H28.63V40.51s-.25-1.74,4.11-7A19,19,0,0,0,36.63,22.84Z"/><path class="cls-1" d="M28,51.21H17.43a1.34,1.34,0,0,1,0-2.67H28a1.34,1.34,0,1,1,0,2.67Z"/><path class="cls-1" d="M27.44,53.21H18s2.33,2.67,4.67,2.67S27.44,53.21,27.44,53.21Z"/><rect class="cls-1" x="2.45" y="30.48" width="6.36" height="3.34" transform="translate(-14.85 6.74) rotate(-28.93)"/><rect class="cls-1" x="36.99" y="11.5" width="5.95" height="3.34" transform="translate(-1.38 20.98) rotate(-28.93)"/><rect class="cls-1" x="38.12" y="28.97" width="3.34" height="6.36" transform="translate(-7.6 51.42) rotate(-61.07)"/><rect class="cls-1" x="3.78" y="10.2" width="3.34" height="5.95" transform="translate(-8.71 11.57) rotate(-61.07)"/><rect class="cls-1" x="29.82" y="4.09" width="5.94" height="3.34" transform="translate(11.09 31) rotate(-59.27)"/><rect class="cls-1" x="10.96" y="2.79" width="3.34" height="5.94" transform="translate(-1.17 7.26) rotate(-30.73)"/><rect class="cls-1" x="39.02" y="21.04" width="6.41" height="3.34"/><rect class="cls-1" y="21.04" width="6.41" height="3.34"/><rect class="cls-1" x="21.04" width="3.34" height="6.54"/></g></g></svg>