<?xml version="1.0" encoding="UTF-8" standalone="no"?>
<!-- Generator: Adobe Illustrator 21.1.0, SVG Export Plug-In . SVG Version: 6.00 Build 0)  -->

<svg
   xmlns:dc="http://purl.org/dc/elements/1.1/"
   xmlns:cc="http://creativecommons.org/ns#"
   xmlns:rdf="http://www.w3.org/1999/02/22-rdf-syntax-ns#"
   xmlns:svg="http://www.w3.org/2000/svg"
   xmlns="http://www.w3.org/2000/svg"
   xmlns:sodipodi="http://sodipodi.sourceforge.net/DTD/sodipodi-0.dtd"
   xmlns:inkscape="http://www.inkscape.org/namespaces/inkscape"
   version="1.1"
   id="Layer_1"
   x="0px"
   y="0px"
   viewBox="0 0 60 70"
   xml:space="preserve"
   inkscape:version="0.91 r13725"
   sodipodi:docname="kobo.svg"
   width="60"
   height="70"><metadata
     id="metadata17"><rdf:RDF><cc:Work
         rdf:about=""><dc:format>image/svg+xml</dc:format><dc:type
           rdf:resource="http://purl.org/dc/dcmitype/StillImage" /><dc:title></dc:title></cc:Work></rdf:RDF></metadata><defs
     id="defs15" /><sodipodi:namedview
     pagecolor="#ffffff"
     bordercolor="#666666"
     borderopacity="1"
     objecttolerance="10"
     gridtolerance="10"
     guidetolerance="10"
     inkscape:pageopacity="0"
     inkscape:pageshadow="2"
     inkscape:window-width="1600"
     inkscape:window-height="876"
     id="namedview13"
     showgrid="false"
     inkscape:zoom="3.9333333"
     inkscape:cx="30"
     inkscape:cy="30"
     inkscape:window-x="0"
     inkscape:window-y="24"
     inkscape:window-maximized="1"
     inkscape:current-layer="Layer_1" /><style
     type="text/css"
     id="style3">
	.st0{fill-rule:evenodd;clip-rule:evenodd;}
</style><path
     class="st0"
     d="m 33.9,32.291667 c 1.8,-2.2 3.9,-2.8 6.2,-2 1.6,0.6 2.5,1.9 3,3.5 0.9,2.8 0.9,5.6 0.2,8.4 -0.9,3.4 -3.2,5 -7.1,4.8 -3.5,-0.2 -5.8,-2.4 -6.1,-5.9 0,-0.6 -0.1,-1.2 -0.1,-1.7 0,-5.2 0,-10.3 0,-15.5 0,-0.6 0.2,-0.8 0.8,-0.7 0.8,0.1 1.6,0 2.5,0 0.5,0 0.6,0.1 0.6,0.6 0,2.7 0,5.4 0,8.1 0,0 0,0.1 0,0.4 z m 5.8,6 c 0,-0.5 0,-1 0,-1.6 -0.1,-1.1 -0.2,-2.3 -0.8,-3.3 -0.5,-0.8 -1.4,-1.2 -2.3,-1 -1,0.2 -1.5,1 -1.9,1.8 -0.4,1 -0.6,2 -0.7,3.1 -0.1,1.7 -0.1,3.5 0.4,5.2 0.3,1.1 1.1,1.6 2.2,1.7 1.1,0.1 1.9,-0.4 2.4,-1.4 0.2,-0.4 0.3,-0.9 0.4,-1.3 0.3,-1 0.3,-2.1 0.3,-3.2 z"
     id="path5"
     inkscape:connector-curvature="0"
     style="clip-rule:evenodd;fill-rule:evenodd" /><path
     class="st0"
     d="m 14.1,46.591667 c -1.5,0 -3,0 -4.4,0 -0.3,0 -0.4,-0.2 -0.5,-0.4 -1.6,-2.3 -3.2,-4.6 -4.8,-6.9 -0.2,-0.2 -0.3,-0.5 -0.5,-0.8 -0.2,0.2 -0.1,0.4 -0.1,0.6 0,2.3 0,4.6 0,6.9 0,0.4 -0.1,0.6 -0.6,0.6 -0.9,0 -1.8,0 -2.8,0 -0.3,0 -0.5,0 -0.5,-0.4 0.1,-7.6 0.1,-15.2 0.1,-22.7 0,-0.4 0.1,-0.5 0.5,-0.5 0.9,0 1.8,0 2.8,0 0.5,0 0.6,0.1 0.6,0.6 0,4 0,8 0,12 0,0.2 -0.1,0.5 0.1,0.8 0.8,-0.9 1.5,-1.8 2.3,-2.7 0.8,-1 1.7,-2 2.5,-3 0.2,-0.3 0.4,-0.4 0.8,-0.4 1.3,0 2.6,0 4,0 -0.1,0.3 -0.3,0.5 -0.4,0.7 -1.7,2 -3.4,4 -5.1,5.9 -0.3,0.3 -0.3,0.5 0,0.9 1.9,2.9 3.9,5.8 6,8.8 z"
     id="path7"
     inkscape:connector-curvature="0"
     style="clip-rule:evenodd;fill-rule:evenodd" /><path
     class="st0"
     d="m 28.1,38.391667 c 0,1.7 -0.2,3.3 -0.9,4.8 -1.1,2.3 -2.9,3.5 -5.3,3.7 -1,0.1 -2,0.1 -2.9,-0.2 -2.4,-0.6 -3.9,-2.1 -4.6,-4.4 -0.8,-2.6 -0.8,-5.2 0,-7.8 0.9,-2.8 2.8,-4.3 5.7,-4.6 1.1,-0.1 2.2,0 3.2,0.3 2.8,0.9 4.1,3 4.6,5.7 0.1,0.9 0.2,1.7 0.2,2.5 z m -4.1,0.1 c 0,-0.2 0,-0.4 0,-0.7 -0.1,-1.2 -0.1,-2.3 -0.6,-3.4 -0.5,-1.1 -1.3,-1.7 -2.5,-1.7 -1.2,0 -2.1,0.6 -2.6,1.8 -0.1,0.4 -0.2,0.7 -0.3,1.1 -0.3,1.4 -0.3,2.9 -0.2,4.3 0.1,0.9 0.1,1.7 0.5,2.5 0.5,1.4 1.5,2 3,1.9 1.3,-0.1 2,-1 2.4,-2.2 0.3,-1.2 0.3,-2.4 0.3,-3.6 z"
     id="path9"
     inkscape:connector-curvature="0"
     style="clip-rule:evenodd;fill-rule:evenodd" /><path
     class="st0"
     d="m 52.8,46.891667 c -3.7,0 -6.1,-2 -6.8,-5.6 -0.4,-1.9 -0.4,-3.8 0,-5.7 0.9,-4.2 3.9,-6.1 8,-5.6 2.9,0.3 4.8,2.1 5.6,4.9 0.6,2.3 0.6,4.6 0.1,6.9 -1,3.4 -3.4,5.1 -6.9,5.1 z m 3.1,-8.5 c 0,-0.6 -0.1,-1.3 -0.1,-1.9 0,-0.6 -0.2,-1.3 -0.4,-1.9 -0.4,-1 -0.9,-1.7 -2,-1.9 -1.6,-0.3 -2.8,0.4 -3.3,2 -0.3,0.9 -0.4,1.9 -0.4,2.8 -0.1,1.6 -0.1,3.2 0.5,4.7 0.6,1.6 2,2.4 3.6,1.8 1.1,-0.4 1.6,-1.3 1.9,-2.4 0.2,-1 0.2,-2.1 0.2,-3.2 z"
     id="path11"
     inkscape:connector-curvature="0"
     style="clip-rule:evenodd;fill-rule:evenodd" /></svg>