<?xml version="1.0" encoding="UTF-8" standalone="no"?>
<!-- Generator: Adobe Illustrator 21.1.0, SVG Export Plug-In . SVG Version: 6.00 Build 0)  -->

<svg
   xmlns:dc="http://purl.org/dc/elements/1.1/"
   xmlns:cc="http://creativecommons.org/ns#"
   xmlns:rdf="http://www.w3.org/1999/02/22-rdf-syntax-ns#"
   xmlns:svg="http://www.w3.org/2000/svg"
   xmlns="http://www.w3.org/2000/svg"
   xmlns:sodipodi="http://sodipodi.sourceforge.net/DTD/sodipodi-0.dtd"
   xmlns:inkscape="http://www.inkscape.org/namespaces/inkscape"
   version="1.1"
   id="Layer_3"
   x="0px"
   y="0px"
   viewBox="0 0 60 60"
   xml:space="preserve"
   inkscape:version="0.91 r13725"
   sodipodi:docname="linkedin.svg"
   width="60"
   height="60"><metadata
     id="metadata21"><rdf:RDF><cc:Work
         rdf:about=""><dc:format>image/svg+xml</dc:format><dc:type
           rdf:resource="http://purl.org/dc/dcmitype/StillImage" /><dc:title></dc:title></cc:Work></rdf:RDF></metadata><defs
     id="defs19" /><sodipodi:namedview
     pagecolor="#ffffff"
     bordercolor="#666666"
     borderopacity="1"
     objecttolerance="10"
     gridtolerance="10"
     guidetolerance="10"
     inkscape:pageopacity="0"
     inkscape:pageshadow="2"
     inkscape:window-width="1600"
     inkscape:window-height="876"
     id="namedview17"
     showgrid="false"
     inkscape:zoom="5.3636364"
     inkscape:cx="-9.7881354"
     inkscape:cy="22"
     inkscape:window-x="0"
     inkscape:window-y="24"
     inkscape:window-maximized="1"
     inkscape:current-layer="Layer_3" /><style
     type="text/css"
     id="style3">
	.st0{fill:#231F20;}
	.st1{fill-rule:evenodd;clip-rule:evenodd;fill:#231F20;}
</style><g
     id="g4137"
     transform="matrix(1.7959183,0,0,1.7959183,-23.7551,-13.673468)"><path
       class="st1"
       d="m 20.727272,18.454545 -6.818182,0 0,21.818183 6.818182,0 0,-21.818183 z m -3.545454,-2.727273 c 2.454545,0 3.954545,-1.636363 3.954545,-3.681818 0,-2.045454 -1.5,-3.681818 -3.954545,-3.681818 -2.454546,0 -3.954546,1.5 -3.954546,3.681818 0.136364,2.045455 1.636364,3.681818 3.954546,3.681818 l 0,0 z"
       id="path13"
       inkscape:connector-curvature="0"
       style="clip-rule:evenodd;fill:#000000;fill-rule:evenodd" /><path
       class="st1"
       d="m 24.818182,40.272728 6.818182,0 0,-12.272728 c 0,-0.681818 0.136363,-1.227273 0.272727,-1.772727 0.545455,-1.227273 1.363636,-2.590909 3.272727,-2.590909 2.590909,0 3.272728,1.909091 3.272728,4.772727 l 0,11.727273 8.181818,0 0,-12.409091 c 0,-6.545455 -3.681818,-9.818182 -8.318182,-9.818182 -3.818182,0 -5.727273,1.909091 -6.681818,3.272727 l 0,0 0,-2.727273 -6.954546,0 c 0.136364,2.727273 0,21.818183 0,21.818183"
       id="path15"
       inkscape:connector-curvature="0"
       style="clip-rule:evenodd;fill:#000000;fill-rule:evenodd" /></g><style
     id="style3-3"
     type="text/css">
	.st0{fill:#231F20;}
</style></svg>