<?xml version="1.0" encoding="UTF-8" standalone="no"?>
<!-- Generator: Adobe Illustrator 21.1.0, SVG Export Plug-In . SVG Version: 6.00 Build 0)  -->

<svg
   xmlns:dc="http://purl.org/dc/elements/1.1/"
   xmlns:cc="http://creativecommons.org/ns#"
   xmlns:rdf="http://www.w3.org/1999/02/22-rdf-syntax-ns#"
   xmlns:svg="http://www.w3.org/2000/svg"
   xmlns="http://www.w3.org/2000/svg"
   xmlns:sodipodi="http://sodipodi.sourceforge.net/DTD/sodipodi-0.dtd"
   xmlns:inkscape="http://www.inkscape.org/namespaces/inkscape"
   version="1.1"
   id="Layer_3"
   x="0px"
   y="0px"
   viewBox="0 0 60 70"
   xml:space="preserve"
   inkscape:version="0.91 r13725"
   sodipodi:docname="linkedin.svg"
   width="60"
   height="70"><metadata
     id="metadata21"><rdf:RDF><cc:Work
         rdf:about=""><dc:format>image/svg+xml</dc:format><dc:type
           rdf:resource="http://purl.org/dc/dcmitype/StillImage" /><dc:title></dc:title></cc:Work></rdf:RDF></metadata><defs
     id="defs19" /><sodipodi:namedview
     pagecolor="#ffffff"
     bordercolor="#666666"
     borderopacity="1"
     objecttolerance="10"
     gridtolerance="10"
     guidetolerance="10"
     inkscape:pageopacity="0"
     inkscape:pageshadow="2"
     inkscape:window-width="1600"
     inkscape:window-height="876"
     id="namedview17"
     showgrid="false"
     inkscape:zoom="10.727273"
     inkscape:cx="15.363284"
     inkscape:cy="36.886676"
     inkscape:window-x="0"
     inkscape:window-y="24"
     inkscape:window-maximized="1"
     inkscape:current-layer="Layer_3" /><style
     type="text/css"
     id="style3">
	.st0{fill:#231F20;}
	.st1{fill-rule:evenodd;clip-rule:evenodd;fill:#231F20;}
</style><path
     style="fill:#000000"
     d="M 14.863281 5 C 6.8178267 5 1.1842379e-15 11.409623 0 19.455078 L 0 50.681641 C 0 58.590732 6.8178267 65 14.863281 65 L 46.091797 65 C 54.000888 65 60 58.590377 60 50.544922 L 60 19.455078 C 60 11.409623 54.000888 5 46.091797 5 L 14.863281 5 z M 17.181641 18.363281 C 19.636186 18.363281 21.136719 19.999468 21.136719 22.044922 C 21.136719 24.090377 19.636186 25.726562 17.181641 25.726562 C 14.863459 25.726562 13.362928 24.090377 13.226562 22.044922 C 13.226562 19.863104 14.727095 18.363281 17.181641 18.363281 z M 38.318359 27.908203 C 42.954723 27.908203 46.636719 31.181107 46.636719 37.726562 L 46.636719 50.136719 L 38.455078 50.136719 L 38.455078 38.408203 C 38.455078 35.544567 37.77255 33.636719 35.181641 33.636719 C 33.27255 33.636719 32.453658 34.99929 31.908203 36.226562 C 31.771839 36.772017 31.636719 37.318182 31.636719 38 L 31.636719 50.273438 L 24.818359 50.273438 L 24.681641 50.273438 C 24.681641 50.273438 24.818005 31.182351 24.681641 28.455078 L 31.636719 28.455078 L 31.636719 31.181641 C 32.591264 29.818005 34.500177 27.908203 38.318359 27.908203 z M 13.908203 28.455078 L 20.726562 28.455078 L 20.726562 50.273438 L 13.908203 50.273438 L 13.908203 28.455078 z "
     id="path7" /><style
     id="style3-3"
     type="text/css">
	.st0{fill:#231F20;}
</style></svg>