<?xml version="1.0" encoding="utf-8"?>
<!-- Generator: Adobe Illustrator 21.1.0, SVG Export Plug-In . SVG Version: 6.00 Build 0)  -->
<svg version="1.1" id="Layer_1" xmlns="http://www.w3.org/2000/svg" xmlns:xlink="http://www.w3.org/1999/xlink" x="0px" y="0px"
	 viewBox="0 0 24 24" style="enable-background:new 0 0 24 24;" xml:space="preserve">
<style type="text/css">
	.st0{fill-rule:evenodd;clip-rule:evenodd;fill:#231F20;}
</style>
<g>
	<path class="st0" d="M23.6,5.3l-22.2,15c-0.1,0.1-0.3,0.2-0.5,0.2c-0.5,0-0.9-0.4-0.9-0.9c0-0.3,0.2-0.6,0.4-0.7l22.2-15
		c0.1-0.1,0.3-0.2,0.5-0.2c0.5,0,0.9,0.4,0.9,0.9C24,4.9,23.8,5.2,23.6,5.3 M2.8,9.3c0-1,0.8-1.8,1.8-1.8v0h6l6.1-5l0,0
		c0.3-0.3,0.7-0.4,1.1-0.4c0.9,0,1.7,0.7,1.8,1.6L2.8,15.1V9.3z M19.5,13.5v1.8v1.8v3c0,1-0.8,1.8-1.8,1.8c-0.4,0-0.8-0.1-1.1-0.3
		l0,0l-6.1-4.4H9.4l10.1-6.8V13.5z"/>
</g>
</svg>
