<?xml version="1.0" encoding="UTF-8" standalone="no"?>
<!-- Generator: Adobe Illustrator 16.0.5, SVG Export Plug-In . SVG Version: 6.00 Build 0)  -->

<svg
   xmlns:dc="http://purl.org/dc/elements/1.1/"
   xmlns:cc="http://creativecommons.org/ns#"
   xmlns:rdf="http://www.w3.org/1999/02/22-rdf-syntax-ns#"
   xmlns:svg="http://www.w3.org/2000/svg"
   xmlns="http://www.w3.org/2000/svg"
   xmlns:sodipodi="http://sodipodi.sourceforge.net/DTD/sodipodi-0.dtd"
   xmlns:inkscape="http://www.inkscape.org/namespaces/inkscape"
   version="1.1"
   id="Layer_1"
   x="0px"
   y="0px"
   width="24px"
   height="24px"
   viewBox="0 0 24 24"
   enable-background="new 0 0 24 24"
   xml:space="preserve"
   sodipodi:docname="netgalley-circle.svg"
   inkscape:version="0.92.3 (d244b95, 2018-08-02)"><metadata
   id="metadata64"><rdf:RDF><cc:Work
       rdf:about=""><dc:format>image/svg+xml</dc:format><dc:type
         rdf:resource="http://purl.org/dc/dcmitype/StillImage" /><dc:title></dc:title></cc:Work></rdf:RDF></metadata><defs
   id="defs62" /><sodipodi:namedview
   pagecolor="#ffffff"
   bordercolor="#666666"
   borderopacity="1"
   objecttolerance="10"
   gridtolerance="10"
   guidetolerance="10"
   inkscape:pageopacity="0"
   inkscape:pageshadow="2"
   inkscape:window-width="1920"
   inkscape:window-height="1016"
   id="namedview60"
   showgrid="false"
   inkscape:zoom="34.583333"
   inkscape:cx="12.375904"
   inkscape:cy="12"
   inkscape:window-x="0"
   inkscape:window-y="27"
   inkscape:window-maximized="1"
   inkscape:current-layer="Layer_1" />

<path
   style="fill:#000000;fill-opacity:1;stroke:none;stroke-width:2.37757802;stroke-miterlimit:4;stroke-dasharray:none;stroke-opacity:1"
   d="M 12.001996,0 A 11.999786,11.99951 0 0 0 2.2718348,4.9996488 c 5.612081,-2.456681 9.6364962,-2.5241395 10.1174512,-2.5145663 1.72162,-0.011322 3.066452,0.340769 3.928797,1.0530009 C 24.191193,10.04853 4.3877908,18.556173 4.9509228,13.722708 6.1063398,14.986921 12.815378,10.363344 11.790383,7.7669356 11.198098,6.242112 8.9471798,5.8291897 6.1207788,6.3601262 4.2439218,6.7068748 2.4443118,7.2233767 0.75860929,7.8216916 A 11.999786,11.99951 0 0 0 1.9498672e-7,12 11.999786,11.99951 0 0 0 0.02395619,12.606527 C 4.7636018,10.36517 8.0497088,9.3051024 7.7937108,11.460863 6.8521588,10.415451 1.8383988,13.445736 0.69472639,15.99298 a 11.999786,11.99951 0 0 0 1.50923341,2.914705 c 3.033941,0.86663 9.4654552,-1.735868 16.9888532,-6.284309 L 18.158709,11.511407 23.64066,9.1316247 A 11.999786,11.99951 0 0 0 12.001996,0 Z m 11.994012,11.823095 -2.351689,3.276939 -1.289635,-1.133028 c -4.513807,3.899913 -9.05406,6.920149 -13.1119622,9.043172 A 11.999786,11.99951 0 0 0 12.001996,24 11.999786,11.99951 0 0 0 24,12 11.999786,11.99951 0 0 0 23.996,11.823096 Z"
   id="path89"
   inkscape:connector-curvature="0" />
</svg>