<?xml version="1.0" encoding="utf-8"?>
<!-- Generator: Adobe Illustrator 16.0.5, SVG Export Plug-In . SVG Version: 6.00 Build 0)  -->
<!DOCTYPE svg PUBLIC "-//W3C//DTD SVG 1.1//EN" "http://www.w3.org/Graphics/SVG/1.1/DTD/svg11.dtd">
<svg version="1.1" id="Layer_1" xmlns="http://www.w3.org/2000/svg" xmlns:xlink="http://www.w3.org/1999/xlink" x="0px" y="0px"
	 width="24px" height="24px" viewBox="0 0 24 24" enable-background="new 0 0 24 24" xml:space="preserve">
<path fill="#231F20" d="M18.267,10.024l0.673,0.686c-6.184,3.544-11.25,5.188-12.148,3.013c-0.669-1.6,3.977-4.513,4.72-3.731
	c0.172-1.373-2.087-0.653-5.332,0.821l0,0c-6.059,3.041-5.32,6.356-5.265,6.584c0.773,3.389,5.196,2.327,9.849-0.067
	c2.738-1.317,5.852-3.263,8.935-5.788l0.838,0.699L24,7.663L18.267,10.024z"/>
<path fill="#231F20" d="M17.067,5.098c-0.562-0.44-1.438-0.656-2.56-0.649c-0.371-0.007-3.958,0.028-8.693,2.532
	C3.964,7.932,2.045,9.231,0,10.982v0.127c1.507-0.979,5.597-3.421,10.422-4.266c1.842-0.328,3.309-0.073,3.695,0.869
	c0.668,1.604-3.705,4.46-4.458,3.679C9.292,14.377,22.198,9.12,17.067,5.098z"/>
</svg>
