<?xml version="1.0" encoding="utf-8"?>
<!-- Generator: Adobe Illustrator 16.0.4, SVG Export Plug-In . SVG Version: 6.00 Build 0)  -->
<!DOCTYPE svg PUBLIC "-//W3C//DTD SVG 1.1//EN" "http://www.w3.org/Graphics/SVG/1.1/DTD/svg11.dtd">
<svg version="1.1" id="Layer_1" xmlns="http://www.w3.org/2000/svg" xmlns:xlink="http://www.w3.org/1999/xlink" x="0px" y="0px"
	 width="24px" height="24px" viewBox="0 0 24 24" enable-background="new 0 0 24 24" xml:space="preserve">
<path d="M10.908,6.53c0.889,2.162-5.007,6.016-6.011,4.974c-0.495,4.02,16.726-3.068,9.876-8.487C12.565,1.271,6.867,2.008,0,5.513
	v1.786C5.036,5.024,10.01,4.348,10.908,6.53z M16.347,9.661l0.894,0.92c-8.255,4.78-15.022,6.993-16.225,4.068
	c-0.889-2.162,5.306-6.081,6.308-5.038C7.554,7.722,3.662,8.737,0,11.023v10.868c4.578-1.095,11.473-4.582,18.254-10.185
	l1.129,0.949l2.133-2.742L24,6.463L16.347,9.661z"/>
</svg>
