<svg xmlns="http://www.w3.org/2000/svg" viewBox="0 0 24 24"><defs><style>.cls-1{fill:#231f20;}</style></defs><title>NO</title><g id="Layer_2" data-name="Layer 2"><g id="Layer_1-2" data-name="Layer 1"><rect class="cls-1" x="9.33" y="17.18" width="5.35" height="0.81"/><path class="cls-1" d="M10.72,14.55A1.24,1.24,0,0,0,9.63,13.2a1.24,1.24,0,0,0-1.06,1.36,1.24,1.24,0,0,0,1.09,1.35A1.24,1.24,0,0,0,10.72,14.55Z"/><path class="cls-1" d="M12,0A12,12,0,1,0,24,12,12,12,0,0,0,12,0Zm2,21.82a5,5,0,0,0-1.74,1.09,1.68,1.68,0,0,1-.21.18,1.84,1.84,0,0,1-.22-.17,5.1,5.1,0,0,0-1.75-1.07c-2.86-1.05-5-4.36-5.18-8.36l0-2.35a.9.9,0,0,1,.9-.9H7.44l10.71-.08a.9.9,0,0,1,.91.89l0,2.35C19,17.38,16.88,20.73,14,21.82ZM18.89,9.41l-13.76.1a.92.92,0,0,1-1-1C4.63,6.3,6.75,4.54,9.54,3.87A2,2,0,0,0,11.22,2l0-.44A.71.71,0,0,1,12,.92a.67.67,0,0,1,.62.63V2a2,2,0,0,0,1.7,1.87c2.81.63,5,2.35,5.51,4.5A.92.92,0,0,1,18.89,9.41Z"/><path class="cls-1" d="M14.34,13.16a1.25,1.25,0,0,0-1.06,1.37,1.24,1.24,0,0,0,1.09,1.34,1.23,1.23,0,0,0,1.06-1.36A1.24,1.24,0,0,0,14.34,13.16Z"/></g></g></svg>