<svg xmlns="http://www.w3.org/2000/svg" viewBox="0 0 24 24"><defs><style>.cls-1{fill:#231f20;}</style></defs><title>YES</title><g id="Layer_2" data-name="Layer 2"><g id="Layer_1-2" data-name="Layer 1"><path class="cls-1" d="M9.64,15c.6,0,1.08-.92,1.08-2S10.24,11,9.64,11,8.57,11.87,8.57,13,9.05,15,9.64,15Z"/><path class="cls-1" d="M8.93,16.4A3.37,3.37,0,0,0,12,20a3.37,3.37,0,0,0,3.07-3.61H8.93Z"/><path class="cls-1" d="M14.36,11c-.6,0-1.08.92-1.08,2.05s.48,2,1.08,2,1.07-.92,1.07-2S15,11,14.36,11Z"/><path class="cls-1" d="M12,0A12,12,0,1,0,24,12,12,12,0,0,0,12,0Zm7.07,13.44c-.15,4-2.26,7.33-5.11,8.39a5.31,5.31,0,0,0-1.75,1.09,1.2,1.2,0,0,1-.21.17,1.2,1.2,0,0,1-.21-.17A5.31,5.31,0,0,0,10,21.83c-2.85-1.06-5-4.39-5.11-8.39V11.09a.9.9,0,0,1,.9-.9H18.17a.9.9,0,0,1,.9.9Zm-.17-4H5.1a.92.92,0,0,1-1-1.06c.54-2.15,2.67-3.9,5.48-4.55A2,2,0,0,0,11.27,2V1.54a.7.7,0,0,1,.85-.62.67.67,0,0,1,.61.64V2a2,2,0,0,0,1.69,1.87c2.81.65,4.94,2.4,5.48,4.55A.92.92,0,0,1,18.9,9.46Z"/></g></g></svg>