<?xml version="1.0" encoding="utf-8"?>
<!-- Generator: Adobe Illustrator 16.0.5, SVG Export Plug-In . SVG Version: 6.00 Build 0)  -->
<!DOCTYPE svg PUBLIC "-//W3C//DTD SVG 1.1//EN" "http://www.w3.org/Graphics/SVG/1.1/DTD/svg11.dtd">
<svg version="1.1" id="Layer_1" xmlns="http://www.w3.org/2000/svg" xmlns:xlink="http://www.w3.org/1999/xlink" x="0px" y="0px"
	 width="24px" height="24px" viewBox="0 0 24 24" enable-background="new 0 0 24 24" xml:space="preserve">
<g>
	<path fill-rule="evenodd" clip-rule="evenodd" d="M23.301,19.421l-10.854,4.493C12.313,23.971,12.162,24,12.004,24
		s-0.309-0.029-0.445-0.086l-10.85-4.493C0.29,19.252,0,18.847,0,18.377V1.121C0,0.503,0.509,0,1.129,0
		c0.151,0,0.299,0.03,0.43,0.083v0.002L1.57,0.087l10.434,4.318l10.432-4.318l0.01-0.002V0.083C22.581,0.03,22.728,0,22.882,0
		C23.499,0,24,0.503,24,1.121v17.256C24,18.847,23.71,19.252,23.301,19.421 M10.877,6.377l-8.621-3.57v14.819l8.621,3.567V6.377z
		 M21.75,2.807l-8.621,3.57v14.816l8.621-3.567V2.807z M14.915,7.978L19.038,6.1c0.145-0.064,0.302-0.099,0.464-0.099
		c0.624,0,1.127,0.501,1.127,1.125c0,0.455-0.272,0.846-0.656,1.023l-4.131,1.877c-0.137,0.062-0.299,0.098-0.465,0.098
		c-0.618,0-1.12-0.503-1.12-1.123C14.257,8.542,14.522,8.152,14.915,7.978 M14.915,12.102L14.915,12.102l4.123-1.875
		c0.145-0.067,0.302-0.104,0.464-0.104c0.624,0,1.127,0.505,1.127,1.128c0,0.456-0.272,0.847-0.656,1.025l-4.131,1.871
		c-0.137,0.068-0.299,0.105-0.465,0.105c-0.618,0-1.12-0.506-1.12-1.125C14.257,12.67,14.522,12.279,14.915,12.102 M14.915,16.229
		L14.915,16.229l4.123-1.877c0.145-0.063,0.302-0.099,0.464-0.099c0.624,0,1.127,0.503,1.127,1.122c0,0.459-0.272,0.851-0.656,1.023
		l-4.131,1.877c-0.137,0.064-0.299,0.102-0.465,0.102c-0.618,0-1.12-0.502-1.12-1.126C14.257,16.799,14.522,16.403,14.915,16.229
		 M4.506,6.001c0.164,0,0.324,0.035,0.464,0.099l4.125,1.877C9.484,8.152,9.754,8.542,9.754,9c0,0.62-0.503,1.123-1.123,1.123
		c-0.17,0-0.324-0.036-0.472-0.098L4.04,8.149c-0.388-0.177-0.66-0.568-0.66-1.023C3.379,6.502,3.883,6.001,4.506,6.001
		 M4.506,10.124c0.164,0,0.324,0.036,0.464,0.104l4.125,1.875c0.388,0.178,0.659,0.569,0.659,1.026c0,0.619-0.503,1.125-1.123,1.125
		c-0.17,0-0.324-0.037-0.472-0.105l-4.12-1.871c-0.388-0.178-0.66-0.569-0.66-1.025C3.379,10.628,3.883,10.124,4.506,10.124
		 M4.506,14.253c0.164,0,0.324,0.035,0.464,0.099l4.125,1.877c0.388,0.175,0.659,0.57,0.659,1.022c0,0.624-0.503,1.126-1.123,1.126
		c-0.17,0-0.324-0.037-0.472-0.102l-4.12-1.877c-0.388-0.173-0.66-0.564-0.66-1.023C3.379,14.756,3.883,14.253,4.506,14.253"/>
</g>
</svg>
