<?xml version="1.0" encoding="utf-8"?>
<!-- Generator: Adobe Illustrator 16.0.4, SVG Export Plug-In . SVG Version: 6.00 Build 0)  -->
<!DOCTYPE svg PUBLIC "-//W3C//DTD SVG 1.1//EN" "http://www.w3.org/Graphics/SVG/1.1/DTD/svg11.dtd">
<svg version="1.1" id="Layer_1" xmlns="http://www.w3.org/2000/svg" xmlns:xlink="http://www.w3.org/1999/xlink" x="0px" y="0px"
	 width="24px" height="24px" viewBox="0 0 24 24" enable-background="new 0 0 24 24" xml:space="preserve">
<path fill-rule="evenodd" clip-rule="evenodd" d="M23.656,3.654l-2.49,2.484l-3.321-3.312l2.491-2.483
	c0.458-0.458,1.201-0.458,1.66,0l1.66,1.655C24.115,2.456,24.115,3.197,23.656,3.654 M6.216,14.417l3.321,3.311L5.111,18.83
	L6.216,14.417z M20.336,6.965L10.374,16.9L7.053,13.59l9.962-9.936L20.336,6.965z M2.359,3.572v18.072h18.086V8.606l2.359-2.357
	v16.574c0,0.651-0.528,1.178-1.18,1.178H1.179C0.528,24,0,23.474,0,22.822V2.394c0-0.651,0.528-1.179,1.179-1.179h16.654
	l-2.358,2.357H2.359z"/>
</svg>
