<?xml version="1.0" encoding="utf-8"?>
<!-- Generator: Adobe Illustrator 16.0.4, SVG Export Plug-In . SVG Version: 6.00 Build 0)  -->
<!DOCTYPE svg PUBLIC "-//W3C//DTD SVG 1.1//EN" "http://www.w3.org/Graphics/SVG/1.1/DTD/svg11.dtd">
<svg version="1.1" id="Layer_1" xmlns="http://www.w3.org/2000/svg" xmlns:xlink="http://www.w3.org/1999/xlink" x="0px" y="0px"
	 width="24px" height="24px" viewBox="0 0 24 24" enable-background="new 0 0 24 24" xml:space="preserve">
<g>
	<path d="M20.875,10.224c-0.445,2.646-1.701,4.811-3.59,6.04c-0.46,0.3-1.015,0.576-1.641,0.758
		c-0.626,0.183-1.336,0.318-2.098,0.266c-0.742-0.054-1.347-0.253-1.855-0.539c-0.508-0.285-0.928-0.634-1.231-1.165
		c-0.195,0.779-0.394,1.595-0.596,2.394c-0.205,0.788-0.378,1.585-0.67,2.31c-0.488,1.198-1.104,2.359-1.915,3.298
		c-0.535,0.622-0.422,0.371-0.585,0.339c-0.122-0.023-0.133-0.146-0.159-0.319c-0.13-0.955-0.042-2.056,0.01-3.124
		c0.056-1.224,0.312-2.236,0.55-3.249c0.452-1.929,0.883-3.822,1.34-5.765c0.031-0.129,0.115-0.344,0.086-0.418
		c-0.208-0.54-0.34-1.022-0.399-1.592C8.052,8.806,8.105,8.2,8.25,7.638c0.258-0.99,0.853-1.865,1.772-2.187
		c0.583-0.203,1.228-0.112,1.622,0.123c0.403,0.241,0.681,0.623,0.81,1.165c0.14,0.577,0.039,1.265-0.073,1.769
		c-0.25,1.141-0.578,1.997-0.876,3.097c-0.146,0.547-0.314,1.107-0.177,1.695c0.125,0.54,0.406,0.913,0.793,1.191
		c0.398,0.291,0.871,0.447,1.52,0.425c1.15-0.039,1.947-0.771,2.479-1.467c0.854-1.105,1.371-2.602,1.566-4.381
		c0.062-0.574,0.111-1.235,0.065-1.885c-0.079-1.201-0.455-2.168-1.051-2.917c-0.571-0.712-1.375-1.282-2.352-1.599
		c-0.972-0.314-2.314-0.422-3.504-0.219C8.676,2.821,7.147,4.054,6.246,5.753C5.777,6.646,5.464,7.671,5.464,8.946
		c0,0.982,0.243,1.744,0.632,2.338c0.125,0.189,0.307,0.342,0.431,0.558c0.171,0.306-0.028,0.759-0.112,1.09
		c-0.106,0.397-0.114,0.946-0.581,0.956C5.646,13.89,5.4,13.75,5.238,13.661c-1.218-0.676-1.959-1.903-2.262-3.496
		c-0.188-0.964-0.185-2.092,0-3.028C3.15,6.233,3.484,5.4,3.853,4.722C4.612,3.319,5.729,2.194,7.086,1.39
		C8.13,0.773,9.308,0.34,10.738,0.13c0.478-0.067,0.967-0.098,1.504-0.12c1.559-0.076,2.977,0.279,4.046,0.752
		c1.123,0.507,2.024,1.182,2.788,2.01c0.781,0.855,1.353,1.852,1.714,3.097c0.185,0.647,0.373,1.34,0.373,2.139
		C21.164,8.811,20.993,9.516,20.875,10.224z"/>
</g>
</svg>
