<?xml version="1.0" encoding="utf-8"?>
<!-- Generator: Adobe Illustrator 16.0.4, SVG Export Plug-In . SVG Version: 6.00 Build 0)  -->
<!DOCTYPE svg PUBLIC "-//W3C//DTD SVG 1.1//EN" "http://www.w3.org/Graphics/SVG/1.1/DTD/svg11.dtd">
<svg version="1.1" id="Layer_1" xmlns="http://www.w3.org/2000/svg" xmlns:xlink="http://www.w3.org/1999/xlink" x="0px" y="0px"
	 width="24px" height="24px" viewBox="0 0 24 24" enable-background="new 0 0 24 24" xml:space="preserve">
<g>
	<path d="M11.999,0C5.374,0,0,5.374,0,11.999C0,18.627,5.374,24,11.999,24C18.627,24,24,18.627,24,11.999
		C24,5.374,18.627,0,11.999,0z M18.042,11.776c-0.312,1.852-1.19,3.366-2.512,4.227c-0.322,0.21-0.71,0.403-1.148,0.53
		c-0.438,0.128-0.935,0.223-1.468,0.186c-0.519-0.037-0.942-0.177-1.298-0.377c-0.355-0.199-0.649-0.443-0.861-0.815
		c-0.137,0.546-0.275,1.116-0.417,1.675c-0.144,0.552-0.265,1.109-0.469,1.616c-0.342,0.839-0.772,1.651-1.34,2.308
		c-0.374,0.436-0.295,0.26-0.409,0.237c-0.085-0.017-0.093-0.103-0.111-0.224c-0.091-0.668-0.029-1.438,0.007-2.186
		c0.039-0.856,0.219-1.565,0.385-2.273c0.316-1.35,0.618-2.675,0.938-4.034c0.021-0.091,0.08-0.241,0.061-0.292
		c-0.146-0.378-0.238-0.715-0.279-1.114c-0.05-0.455-0.013-0.878,0.089-1.272c0.181-0.692,0.597-1.305,1.24-1.53
		c0.408-0.142,0.859-0.078,1.135,0.086c0.282,0.169,0.477,0.436,0.566,0.815c0.098,0.403,0.027,0.885-0.051,1.238
		c-0.175,0.798-0.404,1.397-0.613,2.167c-0.103,0.383-0.22,0.775-0.124,1.186c0.087,0.378,0.284,0.639,0.555,0.834
		c0.278,0.203,0.609,0.312,1.063,0.297c0.805-0.027,1.362-0.539,1.734-1.026c0.597-0.773,0.959-1.82,1.096-3.065
		c0.044-0.401,0.078-0.864,0.046-1.319C15.8,8.81,15.537,8.133,15.12,7.609c-0.399-0.499-0.962-0.897-1.646-1.119
		c-0.68-0.22-1.619-0.295-2.452-0.153C9.506,6.597,8.437,7.459,7.806,8.648c-0.328,0.625-0.547,1.342-0.547,2.234
		c0,0.688,0.17,1.22,0.442,1.636c0.088,0.133,0.215,0.239,0.302,0.391c0.12,0.214-0.02,0.531-0.078,0.763
		c-0.074,0.278-0.08,0.662-0.406,0.669c-0.133,0.001-0.305-0.097-0.418-0.159c-0.853-0.473-1.371-1.332-1.583-2.446
		c-0.132-0.675-0.129-1.464,0-2.119c0.122-0.633,0.355-1.216,0.613-1.69c0.531-0.981,1.313-1.769,2.263-2.332
		c0.73-0.431,1.555-0.734,2.556-0.881c0.334-0.047,0.677-0.068,1.053-0.084c1.091-0.053,2.083,0.195,2.831,0.526
		c0.786,0.354,1.417,0.827,1.951,1.406c0.547,0.599,0.946,1.295,1.199,2.167c0.129,0.453,0.261,0.938,0.261,1.497
		C18.244,10.788,18.125,11.281,18.042,11.776z"/>
</g>
</svg>
