<?xml version="1.0" encoding="UTF-8" standalone="no"?>
<svg
   xmlns:dc="http://purl.org/dc/elements/1.1/"
   xmlns:cc="http://creativecommons.org/ns#"
   xmlns:rdf="http://www.w3.org/1999/02/22-rdf-syntax-ns#"
   xmlns:svg="http://www.w3.org/2000/svg"
   xmlns="http://www.w3.org/2000/svg"
   xmlns:sodipodi="http://sodipodi.sourceforge.net/DTD/sodipodi-0.dtd"
   xmlns:inkscape="http://www.inkscape.org/namespaces/inkscape"
   viewBox="0 0 55.4 55.4"
   version="1.1"
   id="svg1022"
   sodipodi:docname="plus-circle-o.svg"
   inkscape:version="0.92.3 (d244b95, 2018-08-02)">
  <metadata
     id="metadata1026">
    <rdf:RDF>
      <cc:Work
         rdf:about="">
        <dc:format>image/svg+xml</dc:format>
        <dc:type
           rdf:resource="http://purl.org/dc/dcmitype/StillImage" />
        <dc:title>plus</dc:title>
      </cc:Work>
    </rdf:RDF>
  </metadata>
  <sodipodi:namedview
     pagecolor="#ffffff"
     bordercolor="#666666"
     borderopacity="1"
     objecttolerance="10"
     gridtolerance="10"
     guidetolerance="10"
     inkscape:pageopacity="0"
     inkscape:pageshadow="2"
     inkscape:window-width="1920"
     inkscape:window-height="1016"
     id="namedview1024"
     showgrid="false"
     inkscape:zoom="12.048895"
     inkscape:cx="28.040179"
     inkscape:cy="28.471173"
     inkscape:window-x="0"
     inkscape:window-y="27"
     inkscape:window-maximized="1"
     inkscape:current-layer="svg1022" />
  <defs
     id="defs1014">
    <style
       id="style1012">.cls-1{fill:#231f20;}</style>
  </defs>
  <title
     id="title1016">plus</title>
  <path
     style="fill:#231f20"
     d="M 27.699219 0 A 27.7 27.7 0 1 0 55.400391 27.699219 A 27.7 27.7 0 0 0 27.699219 0 z M 27.699219 2 C 41.892937 2 53.400391 13.505501 53.400391 27.699219 C 53.400391 50.597066 25.716604 62.060354 9.5273438 45.871094 C -6.6619165 29.681834 4.8013718 2 27.699219 2 z "
     id="path1018" />
  <path
     style="fill:#000000;stroke-width:0.92779785"
     d="M 24 10.160156 L 24 24 L 10.160156 24 L 10.160156 31.390625 L 24 31.390625 L 24 45.240234 L 31.390625 45.240234 L 31.390625 31.390625 L 45.240234 31.390625 L 45.240234 24 L 31.380859 24 L 31.380859 10.160156 L 24 10.160156 z "
     id="path1052" />
</svg>
