<?xml version="1.0" encoding="UTF-8" standalone="no"?>
<!-- Generator: Adobe Illustrator 16.0.4, SVG Export Plug-In . SVG Version: 6.00 Build 0)  -->

<svg
   xmlns:dc="http://purl.org/dc/elements/1.1/"
   xmlns:cc="http://creativecommons.org/ns#"
   xmlns:rdf="http://www.w3.org/1999/02/22-rdf-syntax-ns#"
   xmlns:svg="http://www.w3.org/2000/svg"
   xmlns="http://www.w3.org/2000/svg"
   xmlns:sodipodi="http://sodipodi.sourceforge.net/DTD/sodipodi-0.dtd"
   xmlns:inkscape="http://www.inkscape.org/namespaces/inkscape"
   version="1.1"
   id="Layer_1"
   x="0px"
   y="0px"
   width="60px"
   height="60px"
   viewBox="0 0 60 60"
   enable-background="new 0 0 60 60"
   xml:space="preserve"
   inkscape:version="0.48.4 r9939"
   sodipodi:docname="protected.svg"><metadata
     id="metadata3269"><rdf:RDF><cc:Work
         rdf:about=""><dc:format>image/svg+xml</dc:format><dc:type
           rdf:resource="http://purl.org/dc/dcmitype/StillImage" /></cc:Work></rdf:RDF></metadata><defs
     id="defs3267" /><sodipodi:namedview
     pagecolor="#ffffff"
     bordercolor="#666666"
     borderopacity="1"
     objecttolerance="10"
     gridtolerance="10"
     guidetolerance="10"
     inkscape:pageopacity="0"
     inkscape:pageshadow="2"
     inkscape:window-width="640"
     inkscape:window-height="480"
     id="namedview3265"
     showgrid="false"
     inkscape:zoom="3.9333333"
     inkscape:cx="-0.25423729"
     inkscape:cy="30"
     inkscape:window-x="0"
     inkscape:window-y="24"
     inkscape:window-maximized="0"
     inkscape:current-layer="Layer_1" /><path
     d="m 47.003999,23.998 h -1.002 V 12 c 0,-6.615 -5.386,-12 -12.004,-12 h -7.999 c -6.612,0 -12,5.384 -12,12 v 11.999 h -1 c -1.648,-10e-4 -3.0000001,1.35 -3.0000001,3.002 v 30.001 c 0,1.651 1.3520001,2.998 3.0010001,2.998 h 34.004 c 1.644,0 2.997,-1.347 2.997,-2.998 V 27.001 c 0.002,-1.652 -1.352,-3.003 -2.997,-3.003 z m -13.006,28.001 h -7.999 l 1.742,-8.698 c -1.053,-0.721 -1.742,-1.931 -1.742,-3.3 0,-2.21 1.792,-4 4.002,-4 2.211,0 3.997,1.788 3.997,4 0,1.369 -0.687,2.579 -1.737,3.3 l 1.737,8.698 z m 4.004,-28.001 h -16.001 V 12 c 0,-2.207 1.791,-4 3.998,-4 h 7.999 c 2.211,0 4.004,1.793 4.004,4 v 11.998 z"
     id="path3263"
     inkscape:connector-curvature="0" /></svg>