<?xml version="1.0" encoding="utf-8"?>
<!-- Generator: Adobe Illustrator 16.0.4, SVG Export Plug-In . SVG Version: 6.00 Build 0)  -->
<!DOCTYPE svg PUBLIC "-//W3C//DTD SVG 1.1//EN" "http://www.w3.org/Graphics/SVG/1.1/DTD/svg11.dtd">
<svg version="1.1" id="Layer_1" xmlns="http://www.w3.org/2000/svg" xmlns:xlink="http://www.w3.org/1999/xlink" x="0px" y="0px"
	 width="60px" height="60px" viewBox="0 0 60 60" enable-background="new 0 0 60 60" xml:space="preserve">
<path d="M37.005,23.998h-1.002V12c0-6.615-5.386-12-12.004-12H16C9.388,0,4,5.384,4,12v11.999h-1C1.352,23.998,0,25.349,0,27.001
	v30.001C0,58.653,1.352,60,3.001,60h34.004c1.644,0,2.997-1.347,2.997-2.998V27.001C40.004,25.349,38.65,23.998,37.005,23.998z
	 M23.999,51.999H16l1.742-8.698C16.689,42.58,16,41.37,16,40.001c0-2.21,1.792-4,4.002-4c2.211,0,3.997,1.788,3.997,4
	c0,1.369-0.687,2.579-1.737,3.3L23.999,51.999z M28.003,23.998H12.002V12c0-2.207,1.791-4,3.998-4h7.999
	c2.211,0,4.004,1.793,4.004,4V23.998z"/>
</svg>
