<?xml version="1.0" encoding="utf-8"?>
<!-- Generator: Adobe Illustrator 16.0.4, SVG Export Plug-In . SVG Version: 6.00 Build 0)  -->
<!DOCTYPE svg PUBLIC "-//W3C//DTD SVG 1.1//EN" "http://www.w3.org/Graphics/SVG/1.1/DTD/svg11.dtd">
<svg version="1.1" id="Layer_1" xmlns="http://www.w3.org/2000/svg" xmlns:xlink="http://www.w3.org/1999/xlink" x="0px" y="0px"
	 width="60px" height="60px" viewBox="0 0 60 60" enable-background="new 0 0 60 60" xml:space="preserve">
<path d="M55.979,14.94c-2.684-4.596-6.322-8.233-10.918-10.916C40.465,1.342,35.444,0,30.002,0c-5.443,0-10.46,1.342-15.057,4.024
	c-4.6,2.681-8.236,6.32-10.918,10.916C1.342,19.539,0,24.557,0,30c0,5.444,1.342,10.461,4.027,15.059
	c2.682,4.598,6.319,8.236,10.915,10.916c4.6,2.684,9.617,4.025,15.06,4.025c5.442,0,10.463-1.342,15.059-4.025
	c4.594-2.68,8.234-6.318,10.918-10.916C58.658,40.461,60,35.443,60,30C60,24.557,58.658,19.537,55.979,14.94L55.979,14.94z"/>
<path fill="#FFFFFF" d="M26.948,47.891h-4.593c-0.351,0-0.59,0.162-0.717,0.48c-0.129,0.303-0.071,0.582,0.168,0.838l7.654,7.654
	c0.176,0.145,0.358,0.217,0.55,0.217c0.193,0,0.375-0.072,0.553-0.217l7.629-7.631c0.161-0.191,0.24-0.383,0.24-0.574
	c0-0.225-0.073-0.406-0.216-0.551s-0.327-0.217-0.549-0.217l0,0h-4.595H26.948z"/>
<path fill="#FFFFFF" d="M39.348,20.225h-0.551v-6.596c0-3.637-2.961-6.597-6.6-6.597H27.8c-3.635,0-6.597,2.96-6.597,6.597v6.596
	h-0.549c-0.907,0-1.65,0.743-1.65,1.651v16.493c0,0.908,0.743,1.648,1.65,1.648h18.693c0.904,0,1.648-0.74,1.648-1.648V21.876
	C40.996,20.968,40.252,20.225,39.348,20.225z M32.197,35.619H27.8l0.958-4.782c-0.579-0.396-0.958-1.061-0.958-1.814
	c0-1.215,0.985-2.199,2.2-2.199c1.216,0,2.197,0.983,2.197,2.199c0,0.753-0.377,1.418-0.955,1.814L32.197,35.619z M34.399,20.225
	h-8.797v-6.596c0-1.213,0.985-2.199,2.198-2.199h4.397c1.216,0,2.202,0.986,2.202,2.199V20.225z"/>
</svg>
