<?xml version="1.0" encoding="utf-8"?>
<!-- Generator: Adobe Illustrator 16.0.4, SVG Export Plug-In . SVG Version: 6.00 Build 0)  -->
<!DOCTYPE svg PUBLIC "-//W3C//DTD SVG 1.1//EN" "http://www.w3.org/Graphics/SVG/1.1/DTD/svg11.dtd">
<svg version="1.1" id="Layer_1" xmlns="http://www.w3.org/2000/svg" xmlns:xlink="http://www.w3.org/1999/xlink" x="0px" y="0px"
	 width="24px" height="24px" viewBox="0 0 24 24" enable-background="new 0 0 24 24" xml:space="preserve">
<path d="M11.817,20.435h11.245v-0.937H24V15.54c0-0.291-1.337-0.729-1.629-0.729h-8.312c0-0.938-0.976-3.523,0.188-3.919l0.177,0.09
	c1.277-0.254,3.017-0.714,3.017-1.241V4.998c0,0,0-0.108,0-0.165c0-0.564-3.013-1.268-5.444-1.268h0.009
	c-2.432,0-5.444,0.703-5.444,1.268c0,0.057,0,0.165,0,0.165v4.743c0,0.527,1.739,0.987,3.018,1.241l0.176-0.09
	c1.164,0.396,0.189,2.981,0.189,3.919H1.629C1.338,14.812,0,15.249,0,15.54v3.958h0.938v0.937h11.246H11.817z"/>
</svg>
