<svg xmlns="http://www.w3.org/2000/svg" viewBox="0 0 22.71 23.83"><title>Asset 1</title><g id="Layer_2" data-name="Layer 2"><g id="Layer_1-2" data-name="Layer 1"><path d="M21,6.45l.13-.08.31-.31a.92.92,0,0,0,0-1.29L19.29,2.66a.92.92,0,0,0-1.29,0L17.69,3s0,0,0,.06A11.22,11.22,0,0,0,13.9,1.42a1.42,1.42,0,0,0,0-.2V.91A.91.91,0,0,0,13,0H10a.92.92,0,0,0-.92.91v.31a.79.79,0,0,0,0,.13A11.38,11.38,0,1,0,21,6.45ZM11.35,21.13A8.66,8.66,0,1,1,20,12.48,8.65,8.65,0,0,1,11.35,21.13Z"/><path d="M14.31,8.74,12.1,10.46l-.42-5a.48.48,0,0,0-.95,0l-.59,6.93a.54.54,0,0,0,0,.18v0a.73.73,0,0,0,0,.2,1.18,1.18,0,0,0,.07.2s0,.05.06.08a1,1,0,0,0,.21.24h0s.07,0,.1.06a2.06,2.06,0,0,0,.26.12,1.66,1.66,0,0,0,.22,0,.92.92,0,0,0,.16,0h0a1.08,1.08,0,0,0,.29-.09.38.38,0,0,0,.1,0,1.37,1.37,0,0,0,.23-.19A.27.27,0,0,0,12,13.2l0,0L15,9.41a.48.48,0,0,0,0-.59A.49.49,0,0,0,14.31,8.74Z"/></g></g></svg>