<?xml version="1.0" encoding="utf-8"?>
<!-- Generator: Adobe Illustrator 16.0.4, SVG Export Plug-In . SVG Version: 6.00 Build 0)  -->
<!DOCTYPE svg PUBLIC "-//W3C//DTD SVG 1.1//EN" "http://www.w3.org/Graphics/SVG/1.1/DTD/svg11.dtd">
<svg version="1.1" id="Layer_1" xmlns="http://www.w3.org/2000/svg" xmlns:xlink="http://www.w3.org/1999/xlink" x="0px" y="0px"
	 width="24px" height="24px" viewBox="0 0 24 24" enable-background="new 0 0 24 24" xml:space="preserve">
<g>
	<path d="M4.358,0c5.093,0,10.191,0,15.286,0c1.405,0.645,1.867,1.744,1.852,3.275c-0.058,5.94-0.022,11.881-0.025,17.822
		c0,1.943-0.961,2.9-2.911,2.902C14.184,24,9.813,24,5.44,23.999c-1.953-0.002-2.91-0.957-2.91-2.904
		C2.528,15.182,2.563,9.269,2.505,3.357C2.491,1.808,2.914,0.662,4.358,0z M19.42,18.962c0-5.351,0-10.634,0-15.896
		c-4.996,0-9.933,0-14.854,0c0,5.331,0,10.596,0,15.896C9.529,18.962,14.443,18.962,19.42,18.962z M13.491,21.491
		c-0.005-0.808-0.671-1.479-1.478-1.488c-0.805-0.008-1.486,0.652-1.505,1.46c-0.021,0.842,0.681,1.548,1.518,1.531
		C12.833,22.979,13.495,22.299,13.491,21.491z"/>
</g>
</svg>
