<?xml version="1.0" encoding="utf-8"?>
<!-- Generator: Adobe Illustrator 16.0.4, SVG Export Plug-In . SVG Version: 6.00 Build 0)  -->
<!DOCTYPE svg PUBLIC "-//W3C//DTD SVG 1.1//EN" "http://www.w3.org/Graphics/SVG/1.1/DTD/svg11.dtd">
<svg version="1.1" id="Layer_1" xmlns="http://www.w3.org/2000/svg" xmlns:xlink="http://www.w3.org/1999/xlink" x="0px" y="0px"
	 width="24px" height="24px" viewBox="0 0 24 24" enable-background="new 0 0 24 24" xml:space="preserve">
<path fill="#231F20" d="M12,0.75c6.628,0,12,5.373,12,12c0,4.519-2.498,8.455-6.188,10.5H6.188C2.498,21.204,0,17.269,0,12.75
	C0,6.123,5.372,0.75,12,0.75z M18.795,19.545c1.815-1.815,2.815-4.229,2.815-6.795H19.5V11.25h1.993
	c-0.164-1.055-0.501-2.067-0.998-3.001H18v-1.5h1.507c-0.222-0.276-0.458-0.541-0.712-0.794C17.712,4.872,16.416,4.08,15,3.617V5.25
	h-1.5V3.257C13.009,3.18,12.507,3.141,12,3.141s-1.008,0.04-1.5,0.117V5.25H9V3.617C7.585,4.08,6.289,4.872,5.205,5.956
	C4.952,6.209,4.715,6.474,4.493,6.75H6v1.5H3.505c-0.496,0.934-0.833,1.946-0.998,3.001H4.5v1.499H2.392
	c0,2.567,0.999,4.98,2.813,6.795c0.252,0.251,0.514,0.486,0.787,0.705H10.5l0.857-12h1.285l0.857,12h4.509
	C18.281,20.031,18.544,19.796,18.795,19.545z"/>
</svg>
