<?xml version="1.0" encoding="UTF-8" standalone="no"?>
<svg
   xmlns:dc="http://purl.org/dc/elements/1.1/"
   xmlns:cc="http://creativecommons.org/ns#"
   xmlns:rdf="http://www.w3.org/1999/02/22-rdf-syntax-ns#"
   xmlns:svg="http://www.w3.org/2000/svg"
   xmlns="http://www.w3.org/2000/svg"
   xmlns:sodipodi="http://sodipodi.sourceforge.net/DTD/sodipodi-0.dtd"
   xmlns:inkscape="http://www.inkscape.org/namespaces/inkscape"
   viewBox="0 0 30 30"
   version="1.1"
   id="svg8"
   sodipodi:docname="thermometer-circle.svg"
   width="30"
   height="30"
   inkscape:version="0.92.3 (3ce5693, 2018-03-11)">
  <metadata
     id="metadata14">
    <rdf:RDF>
      <cc:Work
         rdf:about="">
        <dc:format>image/svg+xml</dc:format>
        <dc:type
           rdf:resource="http://purl.org/dc/dcmitype/StillImage" />
        <dc:title>icon_thermo</dc:title>
      </cc:Work>
    </rdf:RDF>
  </metadata>
  <defs
     id="defs12" />
  <sodipodi:namedview
     pagecolor="#ffffff"
     bordercolor="#666666"
     borderopacity="1"
     objecttolerance="10"
     gridtolerance="10"
     guidetolerance="10"
     inkscape:pageopacity="0"
     inkscape:pageshadow="2"
     inkscape:window-width="1920"
     inkscape:window-height="1016"
     id="namedview10"
     showgrid="false"
     inkscape:zoom="9.8333333"
     inkscape:cx="7.3220339"
     inkscape:cy="12"
     inkscape:window-x="0"
     inkscape:window-y="27"
     inkscape:window-maximized="1"
     inkscape:current-layer="svg8" />
  <title
     id="title2">icon_thermo</title>
  <path
     style="fill:#000000;stroke:none;stroke-width:1.01374578"
     d="M 15 0 A 15 15 0 0 0 0 15 A 15 15 0 0 0 15 30 A 15 15 0 0 0 30 15 A 15 15 0 0 0 15 0 z M 14.912109 2.9882812 A 3 3 0 0 1 18 5.9863281 L 18 15.816406 A 6 6 0 1 1 12 15.816406 L 12 5.9863281 A 3 3 0 0 1 14.912109 2.9882812 z M 15.042969 4.4882812 A 1.5 1.5 0 0 0 13.5 5.9863281 L 13.5 7.4863281 L 15 7.4863281 L 15 8.9863281 L 13.5 8.9863281 L 13.5 10.486328 L 15 10.486328 L 15 11.986328 L 13.5 11.986328 L 13.5 13.486328 L 16.5 13.486328 L 16.5 5.9863281 A 1.5 1.5 0 0 0 15.042969 4.4882812 z M 10.580078 20.236328 A 4.78 4.78 0 0 0 10.5 20.986328 A 4.5 4.5 0 0 0 15 25.486328 A 4.49 4.49 0 0 0 19.5 20.986328 A 4.76 4.76 0 0 0 19.429688 20.240234 A 4.49 4.49 0 0 1 10.580078 20.236328 z "
     id="path35" />
</svg>
