<?xml version="1.0" encoding="UTF-8" standalone="no"?>
<svg
   xmlns:dc="http://purl.org/dc/elements/1.1/"
   xmlns:cc="http://creativecommons.org/ns#"
   xmlns:rdf="http://www.w3.org/1999/02/22-rdf-syntax-ns#"
   xmlns:svg="http://www.w3.org/2000/svg"
   xmlns="http://www.w3.org/2000/svg"
   xmlns:sodipodi="http://sodipodi.sourceforge.net/DTD/sodipodi-0.dtd"
   xmlns:inkscape="http://www.inkscape.org/namespaces/inkscape"
   viewBox="0 0 24 24"
   version="1.1"
   id="svg8"
   sodipodi:docname="thermometer.svg"
   width="24"
   height="24"
   inkscape:version="0.92.3 (3ce5693, 2018-03-11)">
  <metadata
     id="metadata14">
    <rdf:RDF>
      <cc:Work
         rdf:about="">
        <dc:format>image/svg+xml</dc:format>
        <dc:type
           rdf:resource="http://purl.org/dc/dcmitype/StillImage" />
        <dc:title>icon_thermo</dc:title>
      </cc:Work>
    </rdf:RDF>
  </metadata>
  <defs
     id="defs12" />
  <sodipodi:namedview
     pagecolor="#ffffff"
     bordercolor="#666666"
     borderopacity="1"
     objecttolerance="10"
     gridtolerance="10"
     guidetolerance="10"
     inkscape:pageopacity="0"
     inkscape:pageshadow="2"
     inkscape:window-width="1920"
     inkscape:window-height="1016"
     id="namedview10"
     showgrid="false"
     inkscape:zoom="9.8333333"
     inkscape:cx="6"
     inkscape:cy="12"
     inkscape:window-x="0"
     inkscape:window-y="27"
     inkscape:window-maximized="1"
     inkscape:current-layer="svg8" />
  <title
     id="title2">icon_thermo</title>
  <g
     id="Layer_2"
     data-name="Layer 2"
     transform="translate(6)">
    <g
       id="Layer_1-2"
       data-name="Layer 1">
      <path
         d="M 9,12.83 V 3 A 3,3 0 0 0 3,3 v 9.83 a 6,6 0 1 0 6,0 z M 4.5,9 H 6 V 7.5 H 4.5 V 6 H 6 V 4.5 H 4.5 V 3 a 1.5,1.5 0 0 1 3,0 v 7.5 h -3 z M 6,22.5 A 4.5,4.5 0 0 1 1.5,18 a 4.78,4.78 0 0 1 0.08,-0.75 4.49,4.49 0 0 0 8.85,0 A 4.76,4.76 0 0 1 10.5,18 4.49,4.49 0 0 1 6,22.5 Z"
         id="path4"
         inkscape:connector-curvature="0" />
    </g>
  </g>
</svg>
