<?xml version="1.0" encoding="utf-8"?>
<!-- Generator: Adobe Illustrator 16.0.4, SVG Export Plug-In . SVG Version: 6.00 Build 0)  -->
<!DOCTYPE svg PUBLIC "-//W3C//DTD SVG 1.1//EN" "http://www.w3.org/Graphics/SVG/1.1/DTD/svg11.dtd">
<svg version="1.1" id="Layer_1" xmlns="http://www.w3.org/2000/svg" xmlns:xlink="http://www.w3.org/1999/xlink" x="0px" y="0px"
	 width="24px" height="24px" viewBox="0 0 24 24" enable-background="new 0 0 24 24" xml:space="preserve">
<g>
	<g>
		<path d="M23.977,11.986c0,6.622-5.371,11.989-11.99,11.989C5.368,23.977,0,18.607,0,11.986C0,5.366,5.368,0,11.986,0
			S23.977,5.366,23.977,11.986z"/>
	</g>
	<g>
		<path fill="#FFFFFF" d="M4.592,18.396c-0.48-1.164-0.718-2.322-0.718-3.474c0-1.182,0.263-2.334,0.791-3.46h1.713
			c0.393,0,0.681-0.066,0.867-0.198c0.186-0.13,0.496-0.496,0.938-1.091l0.411-0.543C9.041,9.019,9.36,8.603,9.545,8.387
			l2.727-2.888l0.732-3.253l0.41,0.102c1.543,0.362,2.312,1.271,2.312,2.727c0,0.526-0.259,1.274-0.775,2.24L14.73,7.728
			c-0.428,0.82-0.703,1.67-0.82,2.548h0.412c1.417,0,2.56,0.249,3.429,0.743c0.869,0.493,1.304,1.134,1.304,1.924
			c0,0.695-0.27,1.326-0.808,1.892c0.216,0.342,0.323,0.664,0.323,0.97c0,0.75-0.396,1.232-1.189,1.447
			c0.032,0.178,0.045,0.321,0.045,0.428c0,0.909-0.523,1.406-1.578,1.497c0.02,0.124,0.026,0.218,0.026,0.275
			c0,0.507-0.179,0.89-0.534,1.144c-0.357,0.254-0.896,0.381-1.617,0.381h-0.646l-0.514-0.263c-0.644,0.177-1.214,0.263-1.701,0.263
			c-0.174,0-0.449-0.015-0.819-0.043c-1.172-0.537-2.264-1.383-3.269-2.537H4.592L4.592,18.396z"/>
	</g>
</g>
</svg>
