<?xml version="1.0" encoding="utf-8"?>
<!-- Generator: Adobe Illustrator 16.0.4, SVG Export Plug-In . SVG Version: 6.00 Build 0)  -->
<!DOCTYPE svg PUBLIC "-//W3C//DTD SVG 1.1//EN" "http://www.w3.org/Graphics/SVG/1.1/DTD/svg11.dtd">
<svg version="1.1" id="Layer_1" xmlns="http://www.w3.org/2000/svg" xmlns:xlink="http://www.w3.org/1999/xlink" x="0px" y="0px"
	 width="24px" height="24px" viewBox="0 0 24 24" enable-background="new 0 0 24 24" xml:space="preserve">
<g id="Layer_1_1_" display="none">
	<g display="inline">
		<g>
			<path fill="#A8B9C6" d="M23.977,11.986c0,6.622-5.371,11.989-11.99,11.989C5.368,23.977,0,18.607,0,11.986
				C0,5.366,5.368,0,11.986,0S23.977,5.366,23.977,11.986z"/>
		</g>
		<g>
			<path fill="#FFFFFF" d="M4.592,18.396c-0.48-1.164-0.718-2.322-0.718-3.474c0-1.182,0.263-2.334,0.791-3.46h1.713
				c0.393,0,0.681-0.066,0.867-0.198c0.186-0.13,0.496-0.496,0.938-1.091l0.411-0.543C9.041,9.019,9.36,8.603,9.545,8.387
				l2.727-2.888l0.732-3.253l0.41,0.102c1.543,0.362,2.312,1.271,2.312,2.727c0,0.526-0.259,1.274-0.775,2.24L14.73,7.728
				c-0.428,0.82-0.703,1.67-0.82,2.548h0.412c1.417,0,2.56,0.249,3.429,0.743c0.869,0.493,1.304,1.134,1.304,1.924
				c0,0.695-0.27,1.326-0.808,1.892c0.216,0.342,0.323,0.664,0.323,0.97c0,0.75-0.396,1.232-1.189,1.447
				c0.032,0.178,0.045,0.321,0.045,0.428c0,0.909-0.523,1.406-1.578,1.497c0.02,0.124,0.026,0.218,0.026,0.275
				c0,0.507-0.179,0.89-0.534,1.144c-0.357,0.254-0.896,0.381-1.617,0.381h-0.646l-0.514-0.263
				c-0.644,0.177-1.214,0.263-1.701,0.263c-0.174,0-0.449-0.015-0.819-0.043c-1.172-0.537-2.264-1.383-3.269-2.537H4.592
				L4.592,18.396z"/>
		</g>
	</g>
</g>
<g id="Layer_2">
	<g>
		<g>
			<circle cx="12" cy="12" r="12"/>
		</g>
		<g>
			<path fill="#FFFFFF" d="M19.395,5.869c0.481,1.167,0.723,2.324,0.723,3.479c0,1.181-0.266,2.333-0.795,3.462h-1.717
				c-0.389,0-0.679,0.065-0.863,0.193c-0.188,0.137-0.501,0.496-0.938,1.096l-0.414,0.545c-0.449,0.615-0.767,1.028-0.955,1.244
				l-2.728,2.894l-0.734,3.255l-0.41-0.102c-1.545-0.359-2.319-1.271-2.319-2.728c0-0.53,0.261-1.278,0.776-2.246l0.221-0.411
				c0.431-0.82,0.706-1.672,0.824-2.554H9.654c-1.417,0-2.564-0.246-3.431-0.741c-0.871-0.496-1.306-1.138-1.306-1.93
				c0-0.695,0.269-1.324,0.805-1.894C5.509,9.093,5.401,8.77,5.401,8.469c0-0.755,0.393-1.239,1.188-1.455
				C6.558,6.837,6.542,6.695,6.542,6.587c0-0.909,0.53-1.407,1.587-1.496C8.108,4.964,8.1,4.871,8.1,4.814
				c0-0.51,0.178-0.891,0.536-1.145c0.354-0.251,0.894-0.382,1.62-0.382H10.9l0.516,0.266c0.644-0.177,1.212-0.266,1.7-0.266
				c0.176,0,0.448,0.016,0.821,0.043c1.174,0.537,2.265,1.383,3.273,2.538L19.395,5.869L19.395,5.869z"/>
		</g>
	</g>
</g>
</svg>
