<?xml version="1.0" encoding="utf-8"?>
<!-- Generator: Adobe Illustrator 26.0.3, SVG Export Plug-In . SVG Version: 6.00 Build 0)  -->
<svg version="1.1"
	 id="Layer_1" inkscape:version="0.91 r13725" sodipodi:docname="twitter-square-o.svg" xmlns:cc="http://creativecommons.org/ns#" xmlns:dc="http://purl.org/dc/elements/1.1/" xmlns:inkscape="http://www.inkscape.org/namespaces/inkscape" xmlns:rdf="http://www.w3.org/1999/02/22-rdf-syntax-ns#" xmlns:sodipodi="http://sodipodi.sourceforge.net/DTD/sodipodi-0.dtd" xmlns:svg="http://www.w3.org/2000/svg"
	 xmlns="http://www.w3.org/2000/svg" xmlns:xlink="http://www.w3.org/1999/xlink" x="0px" y="0px" viewBox="0 0 60 70"
	 style="enable-background:new 0 0 60 70;" xml:space="preserve">
<sodipodi:namedview  bordercolor="#666666" borderopacity="1" gridtolerance="10" guidetolerance="10" id="namedview15" inkscape:current-layer="Layer_1" inkscape:cx="-10.481303" inkscape:cy="21.936804" inkscape:pageopacity="0" inkscape:pageshadow="2" inkscape:window-height="876" inkscape:window-maximized="1" inkscape:window-width="1600" inkscape:window-x="0" inkscape:window-y="24" inkscape:zoom="5.3636364" objecttolerance="10" pagecolor="#ffffff" showgrid="false">
	</sodipodi:namedview>
<path d="M46.1,5H14.9C6.8,5,0,11.4,0,19.5v31.2C0,58.6,6.8,65,14.9,65h31.2C54,65,60,58.6,60,50.5V19.5C60,11.4,54,5,46.1,5z
	 M45.6,31.5v-0.2c-3.5,0-6.7-2-8.7-4.7v16c0,6.5-5.2,11.7-11.7,11.7S13.4,49,13.4,42.5s5.2-11.7,11.7-11.7h0.7v5.7h-0.7
	c-3.2,0-6,2.7-6,6c0,3.5,2.7,6,6,6c3.2,0,6-2.7,6.2-6V15.8h5.5c0.5,5,4.5,9,9.5,9.2l0.2,6.5H45.6z"/>
</svg>
