<?xml version="1.0" encoding="utf-8"?>
<!-- Generator: Adobe Illustrator 16.0.4, SVG Export Plug-In . SVG Version: 6.00 Build 0)  -->
<!DOCTYPE svg PUBLIC "-//W3C//DTD SVG 1.1//EN" "http://www.w3.org/Graphics/SVG/1.1/DTD/svg11.dtd">
<svg version="1.1" id="Layer_1" xmlns="http://www.w3.org/2000/svg" xmlns:xlink="http://www.w3.org/1999/xlink" x="0px" y="0px"
	 width="24px" height="24px" viewBox="0 0 24 24" enable-background="new 0 0 24 24" xml:space="preserve">
<g>
	<g>
		<path d="M12,0C5.372,0,0,5.374,0,12c0,6.628,5.372,12,12,12c6.629,0,12-5.372,12-12C24,5.374,18.629,0,12,0z M16.433,19.533
			c-0.643,0.301-1.223,0.516-1.742,0.637c-0.52,0.122-1.082,0.184-1.688,0.184c-0.685,0-1.294-0.086-1.819-0.262
			c-0.528-0.175-0.977-0.42-1.35-0.742c-0.373-0.318-0.631-0.662-0.774-1.023c-0.146-0.36-0.216-0.883-0.216-1.57v-5.267H7.184
			V9.364c0.589-0.192,1.094-0.467,1.515-0.824C9.12,8.183,9.459,7.751,9.712,7.249c0.253-0.499,0.431-1.136,0.525-1.913h2.133v3.795
			h3.562v2.358H12.37v3.85c0,0.872,0.047,1.432,0.14,1.677c0.092,0.247,0.266,0.443,0.516,0.592c0.331,0.2,0.708,0.299,1.14,0.299
			c0.76,0,1.515-0.248,2.268-0.742V19.533z"/>
	</g>
</g>
</svg>
