<?xml version="1.0" encoding="utf-8"?>
<!-- Generator: Adobe Illustrator 16.0.4, SVG Export Plug-In . SVG Version: 6.00 Build 0)  -->
<!DOCTYPE svg PUBLIC "-//W3C//DTD SVG 1.1//EN" "http://www.w3.org/Graphics/SVG/1.1/DTD/svg11.dtd">
<svg version="1.1" id="Layer_1" xmlns="http://www.w3.org/2000/svg" xmlns:xlink="http://www.w3.org/1999/xlink" x="0px" y="0px"
	 width="24px" height="24px" viewBox="0 0 24 24" enable-background="new 0 0 24 24" xml:space="preserve">
<g>
	<g>
		<path d="M19.391,22.689c-1.026,0.48-1.953,0.823-2.784,1.018C15.776,23.901,14.878,24,13.908,24c-1.094,0-2.068-0.138-2.907-0.418
			c-0.845-0.279-1.561-0.671-2.157-1.187c-0.596-0.509-1.008-1.058-1.237-1.636c-0.232-0.575-0.345-1.41-0.345-2.509V9.834H4.609
			V6.438C5.551,6.13,6.357,5.691,7.03,5.122C7.704,4.549,8.246,3.86,8.65,3.057C9.055,2.26,9.339,1.241,9.49,0h3.408v6.065h5.693
			v3.769h-5.693v6.152c0,1.394,0.075,2.287,0.224,2.68c0.146,0.395,0.424,0.708,0.824,0.945c0.528,0.32,1.131,0.478,1.821,0.478
			c1.214,0,2.42-0.396,3.623-1.186V22.689z"/>
	</g>
</g>
</svg>
