<?xml version="1.0" encoding="UTF-8" standalone="no"?>
<!-- Generator: Adobe Illustrator 21.1.0, SVG Export Plug-In . SVG Version: 6.00 Build 0)  -->

<svg
   xmlns:dc="http://purl.org/dc/elements/1.1/"
   xmlns:cc="http://creativecommons.org/ns#"
   xmlns:rdf="http://www.w3.org/1999/02/22-rdf-syntax-ns#"
   xmlns:svg="http://www.w3.org/2000/svg"
   xmlns="http://www.w3.org/2000/svg"
   xmlns:sodipodi="http://sodipodi.sourceforge.net/DTD/sodipodi-0.dtd"
   xmlns:inkscape="http://www.inkscape.org/namespaces/inkscape"
   version="1.1"
   id="Layer_1"
   x="0px"
   y="0px"
   viewBox="0 0 60 60"
   xml:space="preserve"
   inkscape:version="0.91 r13725"
   sodipodi:docname="twitter.svg"
   width="60"
   height="60"><metadata
     id="metadata19"><rdf:RDF><cc:Work
         rdf:about=""><dc:format>image/svg+xml</dc:format><dc:type
           rdf:resource="http://purl.org/dc/dcmitype/StillImage" /><dc:title></dc:title></cc:Work></rdf:RDF></metadata><defs
     id="defs17" /><sodipodi:namedview
     pagecolor="#ffffff"
     bordercolor="#666666"
     borderopacity="1"
     objecttolerance="10"
     gridtolerance="10"
     guidetolerance="10"
     inkscape:pageopacity="0"
     inkscape:pageshadow="2"
     inkscape:window-width="1600"
     inkscape:window-height="876"
     id="namedview15"
     showgrid="false"
     inkscape:zoom="5.3636364"
     inkscape:cx="-10.481303"
     inkscape:cy="21.936804"
     inkscape:window-x="0"
     inkscape:window-y="24"
     inkscape:window-maximized="1"
     inkscape:current-layer="Layer_1" /><style
     type="text/css"
     id="style3">
	.st0{fill:#231F20;}
</style><path
     style="fill:#000000"
     inkscape:connector-curvature="0"
     id="path13"
     d="m 58.90511,6.8978095 c -2.408759,1.313869 -5.036497,2.408759 -7.883212,2.846717 -2.189782,-2.408759 -5.474452,-3.722628 -8.978103,-3.722628 -6.788321,0 -12.262774,5.4744515 -12.262774,12.0437945 C 29.781021,18.941604 30,20.036496 30,20.912408 19.70803,20.474452 10.729928,15.656934 4.598541,8.2116785 3.5036508,9.9635035 2.8467164,12.153285 2.8467164,14.343065 c 0,4.160584 2.1897803,7.883212 5.4744524,10.072992 -1.9708032,0 -3.5036508,-0.656933 -5.6934311,-1.532846 l 0,0.218979 c 0,5.912408 4.1605836,10.729926 9.8540143,11.824816 -1.09489,0.218979 -2.189781,0.437956 -3.2846717,0.437956 -0.8759115,0 -1.5328459,0 -2.408759,-0.218977 1.5328475,4.817519 6.1313867,8.321167 11.3868627,8.321167 -4.160586,3.284672 -9.4160594,5.255474 -15.3284676,5.255474 -1.0948902,0 -1.9708033,0 -2.8467164,-0.218977 5.4744525,3.503649 11.824818,5.474452 18.832116,5.474452 22.554745,0 35.036497,-18.394161 35.036497,-34.379562 0,-0.437956 0,-1.09489 0,-1.532846 2.408759,-1.751825 4.598539,-3.941607 6.131387,-6.350366 -2.189782,0.875913 -4.598541,1.532848 -7.0073,1.970804 3.065693,-1.532846 5.036497,-3.9416045 5.91241,-6.7883215"
     class="st0" /></svg>