<?xml version="1.0" encoding="utf-8"?>
<!-- Generator: Adobe Illustrator 16.0.4, SVG Export Plug-In . SVG Version: 6.00 Build 0)  -->
<!DOCTYPE svg PUBLIC "-//W3C//DTD SVG 1.1//EN" "http://www.w3.org/Graphics/SVG/1.1/DTD/svg11.dtd">
<svg version="1.1" id="Layer_1" xmlns="http://www.w3.org/2000/svg" xmlns:xlink="http://www.w3.org/1999/xlink" x="0px" y="0px"
	 width="24px" height="24px" viewBox="0 0 24 24" enable-background="new 0 0 24 24" xml:space="preserve">
<g>
	<path d="M9.908,17.119c0.578,0.58,1.281,0.87,2.106,0.87h5.951c0.825,0,1.534,0.294,2.122,0.882
		c0.592,0.594,0.886,1.299,0.886,2.123c0,0.825-0.294,1.533-0.886,2.122C19.5,23.709,18.791,24,17.969,24H12.02
		c-2.479,0-4.598-0.876-6.355-2.635c-1.758-1.762-2.638-3.876-2.638-6.354V3.01c0-0.85,0.291-1.567,0.88-2.146
		C4.491,0.29,5.208,0,6.051,0c0.821,0,1.525,0.293,2.111,0.885c0.583,0.588,0.88,1.296,0.88,2.121v3.005h8.916
		c0.825,0,1.533,0.295,2.13,0.888c0.592,0.59,0.886,1.298,0.886,2.12c0,0.825-0.294,1.532-0.886,2.122
		c-0.588,0.591-1.297,0.885-2.122,0.885H9.042v2.981C9.042,15.833,9.327,16.539,9.908,17.119z"/>
</g>
</svg>
