<?xml version="1.0" encoding="utf-8"?>
<!-- Generator: Adobe Illustrator 16.0.4, SVG Export Plug-In . SVG Version: 6.00 Build 0)  -->
<!DOCTYPE svg PUBLIC "-//W3C//DTD SVG 1.1//EN" "http://www.w3.org/Graphics/SVG/1.1/DTD/svg11.dtd">
<svg version="1.1" id="Layer_1" xmlns="http://www.w3.org/2000/svg" xmlns:xlink="http://www.w3.org/1999/xlink" x="0px" y="0px"
	 width="24px" height="24px" viewBox="0 0 24 24" enable-background="new 0 0 24 24" xml:space="preserve">
<g>
	<path d="M12,0C5.371,0,0,5.374,0,12c0,6.627,5.371,12,12,12s12-5.373,12-12C24,5.374,18.629,0,12,0z M10.505,15.474
		c0.362,0.362,0.801,0.544,1.316,0.544h3.719c0.516,0,0.959,0.184,1.326,0.551c0.37,0.371,0.554,0.812,0.554,1.327
		s-0.184,0.958-0.554,1.326c-0.367,0.37-0.811,0.552-1.324,0.552h-3.718c-1.549,0-2.874-0.547-3.972-1.646
		c-1.098-1.101-1.648-2.422-1.648-3.971v-7.5c0-0.531,0.182-0.979,0.55-1.341c0.365-0.359,0.813-0.541,1.34-0.541
		c0.513,0,0.954,0.183,1.319,0.553c0.365,0.367,0.55,0.81,0.55,1.325v1.878h5.572c0.516,0,0.958,0.185,1.331,0.555
		c0.37,0.369,0.554,0.811,0.554,1.325c0,0.516-0.184,0.958-0.554,1.326c-0.367,0.369-0.811,0.553-1.326,0.553H9.964v1.863
		C9.964,14.67,10.142,15.111,10.505,15.474z"/>
</g>
</svg>
