<?xml version="1.0" encoding="UTF-8" standalone="no"?>
<!-- Generator: Adobe Illustrator 21.1.0, SVG Export Plug-In . SVG Version: 6.00 Build 0)  -->

<svg
   xmlns:dc="http://purl.org/dc/elements/1.1/"
   xmlns:cc="http://creativecommons.org/ns#"
   xmlns:rdf="http://www.w3.org/1999/02/22-rdf-syntax-ns#"
   xmlns:svg="http://www.w3.org/2000/svg"
   xmlns="http://www.w3.org/2000/svg"
   xmlns:sodipodi="http://sodipodi.sourceforge.net/DTD/sodipodi-0.dtd"
   xmlns:inkscape="http://www.inkscape.org/namespaces/inkscape"
   version="1.1"
   id="Layer_1"
   x="0px"
   y="0px"
   viewBox="0 0 60 70"
   xml:space="preserve"
   inkscape:version="0.91 r13725"
   sodipodi:docname="twitter-square-o.svg"
   width="60"
   height="70"><metadata
     id="metadata19"><rdf:RDF><cc:Work
         rdf:about=""><dc:format>image/svg+xml</dc:format><dc:type
           rdf:resource="http://purl.org/dc/dcmitype/StillImage" /><dc:title /></cc:Work></rdf:RDF></metadata><defs
     id="defs17" /><sodipodi:namedview
     pagecolor="#ffffff"
     bordercolor="#666666"
     borderopacity="1"
     objecttolerance="10"
     gridtolerance="10"
     guidetolerance="10"
     inkscape:pageopacity="0"
     inkscape:pageshadow="2"
     inkscape:window-width="1600"
     inkscape:window-height="876"
     id="namedview15"
     showgrid="false"
     inkscape:zoom="5.3636364"
     inkscape:cx="-10.481303"
     inkscape:cy="21.936804"
     inkscape:window-x="0"
     inkscape:window-y="24"
     inkscape:window-maximized="1"
     inkscape:current-layer="Layer_1" /><style
     type="text/css"
     id="style3">
	.st0{fill:#231F20;}
</style><g
     id="g4135"
     style="fill:#000000"><path
       class="st0"
       d="m 46.09091,6.3636356 c 7.090909,0 12.545454,5.5909094 12.545454,13.0909094 l 0,31.227274 c 0,7.5 -5.454545,13.090909 -12.545454,13.090909 l -31.227274,0 C 7.4999994,63.636364 1.3636356,57.636364 1.3636356,50.545455 l 0,-31.09091 c 0,-7.090909 6.1363638,-13.0909094 13.5000004,-13.0909094 l 31.227274,0 m 0,-1.3636364 -31.227274,0 C 6.8181812,4.9999992 -8e-7,11.40909 -8e-7,19.454545 l 0,31.227274 c 0,7.909091 6.818182,14.318182 14.8636368,14.318182 l 31.227274,0 c 7.909091,0 13.909091,-6.409091 13.909091,-14.454546 l 0,-31.09091 c 0,-8.045455 -6,-14.4545458 -13.909091,-14.4545458 l 0,0 z"
       id="path7"
       inkscape:connector-curvature="0"
       style="fill:#000000" /><path
       class="st0"
       d="m 47.59091,20.136363 c -1.5,0.818182 -3.136364,1.5 -4.909091,1.772728 -1.363637,-1.5 -3.409091,-2.318182 -5.59091,-2.318182 -4.227273,0 -7.636364,3.409091 -7.636364,7.5 0,0.545454 0.136364,1.227273 0.136364,1.772727 -6.409091,-0.272727 -12,-3.272727 -15.818182,-7.909091 -0.681818,1.090909 -1.090909,2.454546 -1.090909,3.818182 0,2.590909 1.363636,4.909091 3.409091,6.272727 -1.227273,0 -2.181819,-0.40909 -3.545455,-0.954545 l 0,0.136364 c 0,3.681818 2.590909,6.681818 6.136364,7.363636 -0.681818,0.136364 -1.363637,0.272727 -2.045455,0.272727 -0.545454,0 -0.954545,0 -1.5,-0.136363 0.954546,3 3.818182,5.181818 7.09091,5.181818 -2.59091,2.045455 -5.863637,3.272727 -9.545455,3.272727 -0.681818,0 -1.227273,0 -1.772728,-0.136363 3.409091,2.181818 7.363637,3.409091 11.727273,3.409091 14.045455,0 21.818183,-11.454546 21.818183,-21.409092 0,-0.272727 0,-0.681818 0,-0.954545 1.5,-1.090909 2.863636,-2.454546 3.818182,-3.954546 -1.363637,0.545455 -2.863637,0.954546 -4.363637,1.227273 1.909091,-0.954545 3.136364,-2.454545 3.681819,-4.227273"
       id="path13"
       inkscape:connector-curvature="0"
       style="fill:#000000" /></g></svg>