<?xml version="1.0" encoding="UTF-8" standalone="no"?>
<!-- Generator: Adobe Illustrator 21.1.0, SVG Export Plug-In . SVG Version: 6.00 Build 0)  -->

<svg
   xmlns:dc="http://purl.org/dc/elements/1.1/"
   xmlns:cc="http://creativecommons.org/ns#"
   xmlns:rdf="http://www.w3.org/1999/02/22-rdf-syntax-ns#"
   xmlns:svg="http://www.w3.org/2000/svg"
   xmlns="http://www.w3.org/2000/svg"
   xmlns:sodipodi="http://sodipodi.sourceforge.net/DTD/sodipodi-0.dtd"
   xmlns:inkscape="http://www.inkscape.org/namespaces/inkscape"
   version="1.1"
   id="Layer_1"
   x="0px"
   y="0px"
   viewBox="0 0 60 70"
   xml:space="preserve"
   inkscape:version="0.91 r13725"
   sodipodi:docname="twitter-square.svg"
   width="60"
   height="70"><metadata
     id="metadata19"><rdf:RDF><cc:Work
         rdf:about=""><dc:format>image/svg+xml</dc:format><dc:type
           rdf:resource="http://purl.org/dc/dcmitype/StillImage" /><dc:title /></cc:Work></rdf:RDF></metadata><defs
     id="defs17" /><sodipodi:namedview
     pagecolor="#ffffff"
     bordercolor="#666666"
     borderopacity="1"
     objecttolerance="10"
     gridtolerance="10"
     guidetolerance="10"
     inkscape:pageopacity="0"
     inkscape:pageshadow="2"
     inkscape:window-width="1600"
     inkscape:window-height="876"
     id="namedview15"
     showgrid="false"
     inkscape:zoom="10.727273"
     inkscape:cx="8.4670094"
     inkscape:cy="36.044202"
     inkscape:window-x="0"
     inkscape:window-y="24"
     inkscape:window-maximized="1"
     inkscape:current-layer="Layer_1" /><style
     type="text/css"
     id="style3">
	.st0{fill:#231F20;}
</style><path
     style="fill:#000000"
     d="M 14.863281 5 C 6.8178265 5 -1.1842379e-15 11.409623 0 19.455078 L 0 50.681641 C 0 58.590732 6.8178265 65 14.863281 65 L 46.091797 65 C 54.000888 65 60 58.590377 60 50.544922 L 60 19.455078 C 60 11.409623 54.000888 5 46.091797 5 L 14.863281 5 z M 37.091797 19.591797 C 39.273616 19.591797 41.318004 20.408203 42.681641 21.908203 C 44.454368 21.635475 46.091797 20.954901 47.591797 20.136719 C 47.046342 21.909447 45.817294 23.408736 43.908203 24.363281 C 45.408203 24.090554 46.909801 23.682174 48.273438 23.136719 C 47.318892 24.636719 45.955078 26.000888 44.455078 27.091797 L 44.455078 28.044922 C 44.455078 37.999468 36.682174 49.455078 22.636719 49.455078 C 18.273083 49.455078 14.317294 48.22674 10.908203 46.044922 C 11.453658 46.181285 11.999823 46.181641 12.681641 46.181641 C 16.363459 46.181641 19.635652 44.953658 22.226562 42.908203 C 18.953834 42.908203 16.091265 40.726562 15.136719 37.726562 C 15.682174 37.862926 16.091265 37.863281 16.636719 37.863281 C 17.318537 37.863281 17.999823 37.728161 18.681641 37.591797 C 15.136186 36.909979 12.544922 33.908381 12.544922 30.226562 L 12.544922 30.091797 C 13.908558 30.637252 14.864524 31.044922 16.091797 31.044922 C 14.046342 29.681286 12.681641 27.364346 12.681641 24.773438 C 12.681641 23.409802 13.09162 22.045987 13.773438 20.955078 C 17.591619 25.591442 23.182706 28.590554 29.591797 28.863281 C 29.591797 28.317827 29.455078 27.637251 29.455078 27.091797 C 29.455078 23.000888 32.864524 19.591797 37.091797 19.591797 z "
     id="path7" /></svg>