<?xml version="1.0" encoding="utf-8"?>
<!-- Generator: Adobe Illustrator 16.0.4, SVG Export Plug-In . SVG Version: 6.00 Build 0)  -->
<!DOCTYPE svg PUBLIC "-//W3C//DTD SVG 1.1//EN" "http://www.w3.org/Graphics/SVG/1.1/DTD/svg11.dtd">
<svg version="1.1" id="Layer_1" xmlns="http://www.w3.org/2000/svg" xmlns:xlink="http://www.w3.org/1999/xlink" x="0px" y="0px"
	 width="24px" height="24px" viewBox="0 0 24 24" enable-background="new 0 0 24 24" xml:space="preserve">
<g>
	<path d="M18.862,0H5.139C4.652,0,4.253,0.399,4.253,0.886v22.229C4.253,23.602,4.652,24,5.139,24h13.724
		c0.486,0,0.885-0.398,0.885-0.885V0.886C19.747,0.399,19.349,0,18.862,0z M16.721,4.906h1.181v9.447h-1.181V4.906z M10.302,1.259
		h3.395c0.204,0,0.369,0.166,0.369,0.369c0,0.203-0.165,0.369-0.369,0.369h-3.395c-0.203,0-0.369-0.166-0.369-0.369
		C9.934,1.424,10.099,1.259,10.302,1.259z M5.799,5.199h9.445v9.447H5.799V5.199z M5.799,17.009h12.103v1.181H5.799V17.009z
		 M18.03,20.595H5.927v-1.181H18.03V20.595z"/>
	<path d="M6.159,14.286h1.147c0.109-1.721,1.547-3.138,3.324-3.138c1.775,0,3.214,1.417,3.323,3.138h0.931V5.56H6.159V14.286z
		 M10.63,6.555c0.879,0,1.591,0.712,1.591,1.592c0,0.878-0.712,1.591-1.591,1.591c-0.879,0-1.592-0.713-1.592-1.591
		C9.038,7.267,9.75,6.555,10.63,6.555z"/>
</g>
</svg>
