<?xml version="1.0" encoding="UTF-8" standalone="no"?>
<!-- Generator: Adobe Illustrator 16.0.4, SVG Export Plug-In . SVG Version: 6.00 Build 0)  -->

<svg
   xmlns:dc="http://purl.org/dc/elements/1.1/"
   xmlns:cc="http://creativecommons.org/ns#"
   xmlns:rdf="http://www.w3.org/1999/02/22-rdf-syntax-ns#"
   xmlns:svg="http://www.w3.org/2000/svg"
   xmlns="http://www.w3.org/2000/svg"
   xmlns:sodipodi="http://sodipodi.sourceforge.net/DTD/sodipodi-0.dtd"
   xmlns:inkscape="http://www.inkscape.org/namespaces/inkscape"
   version="1.1"
   id="Layer_1"
   x="0px"
   y="0px"
   width="40px"
   height="40px"
   viewBox="0 0 40 40"
   enable-background="new 0 0 40 40"
   xml:space="preserve"
   inkscape:version="0.48.4 r9939"
   sodipodi:docname="user-admin.svg"><metadata
     id="metadata9"><rdf:RDF><cc:Work
         rdf:about=""><dc:format>image/svg+xml</dc:format><dc:type
           rdf:resource="http://purl.org/dc/dcmitype/StillImage" /><dc:title /></cc:Work></rdf:RDF></metadata><defs
     id="defs7" /><sodipodi:namedview
     pagecolor="#ffffff"
     bordercolor="#666666"
     borderopacity="1"
     objecttolerance="10"
     gridtolerance="10"
     guidetolerance="10"
     inkscape:pageopacity="0"
     inkscape:pageshadow="2"
     inkscape:window-width="1600"
     inkscape:window-height="876"
     id="namedview5"
     showgrid="false"
     inkscape:zoom="11.8"
     inkscape:cx="17.969307"
     inkscape:cy="12.73297"
     inkscape:window-x="0"
     inkscape:window-y="24"
     inkscape:window-maximized="1"
     inkscape:current-layer="Layer_1" /><g
     id="g3891"
     transform="translate(-1.546875,0)"><path
       d="m 26.01695,4.4067798 c 0,2.4337972 -1.972982,4.4067797 -4.40678,4.4067797 -2.433797,0 -4.406779,-1.9729825 -4.406779,-4.4067797 C 17.203391,1.9729825 19.176373,0 21.61017,0 c 2.433798,0 4.40678,1.9729825 4.40678,4.4067798 z"
       sodipodi:ry="4.4067798"
       sodipodi:rx="4.4067798"
       sodipodi:cy="4.4067798"
       sodipodi:cx="21.61017"
       id="path3109"
       style="fill:#000000;fill-opacity:1;stroke:#000000;stroke-opacity:1;stroke-width:0;stroke-miterlimit:4;stroke-dasharray:none"
       sodipodi:type="arc" /><path
       id="rect3879"
       d="m 17.34375,9.96875 c -2.110365,0.416983 -3.28125,2.058051 -3.28125,2.8125 l 0,10.90625 c 0,1.901989 0.0088,1.875 1.84375,1.875 1.455126,-0.05984 1.280127,2.382138 1.5,3.625 L 19.09375,40 l 1.375,0 2.15625,0 1.375,0 1.6875,-10.8125 c 0.219873,-1.242862 0.04488,-3.68484 1.5,-3.625 1.834971,0 1.84375,0.02699 1.84375,-1.875 l 0,-10.90625 c 0,-0.754449 -1.170885,-2.395517 -3.28125,-2.8125 -1.66519,-0.2487248 -3.762598,5.028967 -4.1875,7.59375 l -0.03125,0 C 21.106348,14.997717 19.00894,9.7200252 17.34375,9.96875 z"
       style="fill:#000000;fill-opacity:1;stroke:#000000;stroke-opacity:1;stroke-width:0;stroke-miterlimit:4;stroke-dasharray:none"
       inkscape:connector-curvature="0" /></g></svg>