<?xml version="1.0" encoding="utf-8"?>
<!-- Generator: Adobe Illustrator 16.0.4, SVG Export Plug-In . SVG Version: 6.00 Build 0)  -->
<!DOCTYPE svg PUBLIC "-//W3C//DTD SVG 1.1//EN" "http://www.w3.org/Graphics/SVG/1.1/DTD/svg11.dtd">
<svg version="1.1" id="Layer_1" xmlns="http://www.w3.org/2000/svg" xmlns:xlink="http://www.w3.org/1999/xlink" x="0px" y="0px"
	 width="24px" height="24px" viewBox="0 0 24 24" enable-background="new 0 0 24 24" xml:space="preserve">
<g>
	<path d="M7.951,9.574c1.122,1.096,2.469,1.643,4.051,1.643c1.583,0,2.929-0.547,4.052-1.643c1.115-1.096,1.672-2.416,1.672-3.966
		c0-1.549-0.557-2.87-1.672-3.965C14.932,0.547,13.586,0,12.002,0c-1.582,0-2.93,0.547-4.051,1.644
		C6.832,2.738,6.272,4.06,6.272,5.608C6.272,7.158,6.832,8.479,7.951,9.574L7.951,9.574z M7.951,9.574"/>
	<polygon points="14,20.01 12.501,20.01 12.501,18.51 11.501,18.51 11.501,20.01 10,20.01 10,21.01 11.501,21.01 11.501,22.51 
		12.501,22.51 12.501,21.01 14,21.01 	"/>
	<path d="M22.449,17.186c-0.037-0.492-0.104-1.068-0.21-1.637c-0.105-0.569-0.237-1.099-0.395-1.585
		c-0.159-0.487-0.375-0.962-0.643-1.424c-0.27-0.462-0.576-0.858-0.924-1.184c-0.348-0.326-0.772-0.587-1.276-0.781
		c-0.502-0.195-1.055-0.293-1.664-0.293c-0.098,0-0.313,0.105-0.641,0.314c-0.33,0.209-0.688,0.444-1.089,0.701
		c-0.396,0.258-0.927,0.492-1.595,0.701c-0.667,0.21-1.34,0.315-2.015,0.315c-0.678,0-1.348-0.105-2.014-0.315
		c-0.67-0.209-1.197-0.443-1.597-0.701c-0.4-0.257-0.761-0.492-1.09-0.701c-0.328-0.209-0.543-0.314-0.641-0.314
		c-0.606,0-1.16,0.098-1.665,0.293c-0.5,0.194-0.924,0.455-1.272,0.781c-0.35,0.325-0.656,0.722-0.927,1.184
		c-0.27,0.462-0.482,0.937-0.641,1.424c-0.159,0.486-0.29,1.016-0.394,1.585c-0.104,0.568-0.174,1.101-0.21,1.591
		c-0.032,0.491-0.05,0.998-0.05,1.514c0,1.167,0.359,2.873,1.084,3.55C3.313,22.878,4.277,24,5.481,24h3.816h0.986
		c-1.297-0.638-2.197-1.958-2.197-3.499c0-2.161,1.752-3.913,3.913-3.913c2.16,0,3.912,1.752,3.912,3.913
		c0,1.541-0.9,2.861-2.197,3.499h0.989h3.813c1.201,0,2.166-1.122,2.894-1.797c0.725-0.677,1.089-1.992,1.089-3.159
		C22.5,18.528,22.481,17.677,22.449,17.186z"/>
</g>
</svg>
