<?xml version="1.0" encoding="utf-8"?>
<!-- Generator: Adobe Illustrator 21.1.0, SVG Export Plug-In . SVG Version: 6.00 Build 0)  -->
<svg version="1.1" id="Layer_1" xmlns="http://www.w3.org/2000/svg" xmlns:xlink="http://www.w3.org/1999/xlink" x="0px" y="0px"
	 viewBox="0 0 24 24" style="enable-background:new 0 0 24 24;" xml:space="preserve">
<style type="text/css">
	.st0{fill:#231F20;}
</style>
<g>
	<path class="st0" d="M12,0C5.4,0,0,5.4,0,12s5.4,12,12,12c6.6,0,12-5.4,12-12S18.6,0,12,0z M12,22.6C6.2,22.6,1.4,17.8,1.4,12
		S6.2,1.4,12,1.4c5.8,0,10.6,4.7,10.6,10.6S17.8,22.6,12,22.6z"/>
	<path class="st0" d="M12,2.6c-5.2,0-9.4,4.2-9.4,9.4c0,5.2,4.2,9.4,9.4,9.4c5.2,0,9.4-4.2,9.4-9.4C21.4,6.8,17.2,2.6,12,2.6z
		 M12.5,16.9h-1.1l-4-9.8h1.3l3.2,8.2l3.2-8.2h1.3L12.5,16.9z"/>
</g>
</svg>
