<?xml version="1.0" encoding="utf-8"?>
<!-- Generator: Adobe Illustrator 21.1.0, SVG Export Plug-In . SVG Version: 6.00 Build 0)  -->
<svg version="1.1" id="Layer_1" xmlns="http://www.w3.org/2000/svg" xmlns:xlink="http://www.w3.org/1999/xlink" x="0px" y="0px"
	 viewBox="0 0 24 24" style="enable-background:new 0 0 24 24;" xml:space="preserve">
<style type="text/css">
	.st0{fill:#231F20;}
</style>
<path class="st0" d="M22.1,2h-4v0.5c1,0,1.5,0.5,1.5,1.4c0,0.3-0.1,1-0.4,2.1L17,13.8l-3.6-10c-0.1-0.5-0.1-1,0.5-1.2
	c0.1,0,0.9-0.2,0.9-0.1c0,0,0-0.5,0-0.5h-5v0.5c0.2,0,0.5,0,0.7,0.1c0.4,0.2,0.7,0.6,0.8,1c0.1,0.3,0.1,0.6,0.1,0.9l-3,9.4L5.6,5.3
	c-0.3-1-0.5-1.6-0.5-1.8c0-0.3,0.1-0.5,0.3-0.6C5.6,2.7,6,2.6,6.7,2.5V2H1.2v0.5c0.5,0,0.9,0.1,1.1,0.3C2.5,3,2.7,3.2,2.9,3.6
	c0.1,0.3,0.4,1,0.7,2.1l3.6,11.4h0.5L11.5,5L16,17.1h0.5L19.7,6c0.4-1.5,0.8-2.4,1.1-2.8c0.3-0.4,0.7-0.6,1.3-0.7V2z"/>
<g>
	<g>
		<path class="st0" d="M6.3,21.5L6.3,21.5C6.3,21.8,6.2,22,5.9,22c-0.1,0-0.2,0-0.3-0.1c-0.1-0.1-0.1-0.1-0.1-0.3
			c-0.2,0.1-0.3,0.2-0.5,0.3C5,21.9,4.8,22,4.7,22c-0.1,0-0.3,0-0.4-0.1c-0.1-0.1-0.1-0.2-0.1-0.3c0-0.2,0.1-0.3,0.2-0.4
			c0.2-0.1,0.4-0.2,0.7-0.4l0.4-0.2v-0.1c0-0.1,0-0.2,0-0.3c0-0.1-0.1-0.1-0.1-0.2c-0.1,0-0.2-0.1-0.3-0.1c-0.2,0-0.4,0.1-0.4,0.2
			c0,0.2-0.1,0.3-0.2,0.3c-0.1,0-0.2,0-0.2-0.1c0-0.1,0.1-0.2,0.2-0.3c0.1-0.1,0.3-0.2,0.6-0.2c0.2,0,0.4,0,0.5,0.1
			C5.7,20,5.8,20,5.8,20.1c0,0.1,0.1,0.2,0.1,0.4v0.8c0,0.2,0,0.3,0,0.4c0,0.1,0.1,0.1,0.1,0.1C6.2,21.8,6.2,21.7,6.3,21.5z
			 M5.6,20.7l-0.3,0.1c-0.4,0.2-0.6,0.4-0.6,0.7c0,0.1,0,0.2,0.1,0.3c0.1,0.1,0.1,0.1,0.2,0.1c0.1,0,0.2,0,0.3-0.1
			c0.1-0.1,0.2-0.1,0.3-0.2V20.7z"/>
		<path class="st0" d="M7.7,20H7.1v1.2c0,0.2,0,0.3,0,0.4c0,0.1,0.1,0.1,0.1,0.2s0.1,0.1,0.2,0.1c0.1,0,0.2-0.1,0.3-0.2l0.1,0
			c-0.1,0.1-0.1,0.2-0.2,0.2C7.5,22,7.4,22,7.3,22c-0.1,0-0.2,0-0.3-0.1c-0.1-0.1-0.1-0.2-0.2-0.2c0-0.1,0-0.3,0-0.5V20H6.5v-0.1
			c0.1,0,0.3-0.1,0.4-0.2C7,19.6,7,19.5,7.1,19.3h0.1v0.6h0.6V20z"/>
		<path class="st0" d="M9.8,20.6H8.4c0,0.1,0,0.2,0,0.2c0,0.4,0.1,0.6,0.2,0.8c0.1,0.2,0.3,0.3,0.5,0.3c0.3,0,0.5-0.1,0.6-0.4h0.1
			c-0.1,0.2-0.2,0.3-0.3,0.4C9.4,21.9,9.2,22,9,22c-0.2,0-0.3,0-0.5-0.1c-0.2-0.1-0.3-0.2-0.4-0.4C8.1,21.3,8,21.1,8,20.9
			c0-0.3,0.1-0.6,0.3-0.8c0.2-0.2,0.4-0.3,0.7-0.3c0.3,0,0.5,0.1,0.6,0.2C9.8,20.2,9.8,20.4,9.8,20.6z M9.4,20.5c0,0,0-0.1,0-0.1
			c0-0.1,0-0.3-0.1-0.3C9.2,20,9.1,19.9,9,19.9c-0.3,0-0.5,0.2-0.5,0.6H9.4z"/>
		<path class="st0" d="M10.9,20.3c0.1-0.1,0.1-0.3,0.3-0.4c0.1-0.1,0.2-0.1,0.4-0.1c0.1,0,0.2,0,0.3,0.1c0.1,0.1,0.1,0.1,0.1,0.2
			c0,0,0,0.1,0,0.1c0,0-0.1,0.1-0.1,0.1c-0.1,0-0.1-0.1-0.2-0.2c0-0.1-0.1-0.1-0.1-0.1c-0.1,0-0.2,0-0.3,0.1
			c-0.1,0.1-0.2,0.2-0.2,0.3c0,0.1,0,0.2,0,0.4v0.4c0,0.2,0,0.4,0,0.4c0,0.1,0,0.1,0.1,0.1c0,0,0.1,0,0.2,0h0.1v0.1h-1.1v-0.1h0.1
			c0.1,0,0.2,0,0.2,0c0,0,0.1-0.1,0.1-0.1c0,0,0-0.2,0-0.4v-0.6c0-0.2,0-0.4,0-0.4c0-0.1,0-0.1-0.1-0.1c0,0-0.1,0-0.2,0h-0.1V20
			c0.2,0,0.4-0.1,0.6-0.1C10.8,19.9,10.9,20.1,10.9,20.3z"/>
		<path class="st0" d="M12.1,22v-0.7h0.1c0.1,0.4,0.3,0.6,0.6,0.6c0.1,0,0.2,0,0.3-0.1c0.1-0.1,0.1-0.2,0.1-0.2c0-0.1,0-0.2-0.1-0.3
			c-0.1-0.1-0.2-0.1-0.4-0.2c-0.2-0.1-0.3-0.2-0.4-0.3c-0.1-0.1-0.1-0.2-0.1-0.4c0-0.1,0-0.3,0.1-0.4c0.1-0.1,0.2-0.2,0.4-0.2
			c0.2,0,0.3,0,0.5,0.2c0,0,0-0.1,0.1-0.2h0.1v0.6h-0.1c0-0.1-0.1-0.3-0.2-0.4c-0.1-0.1-0.2-0.2-0.3-0.2c-0.1,0-0.2,0-0.2,0.1
			c-0.1,0.1-0.1,0.1-0.1,0.2c0,0.1,0,0.2,0.1,0.2c0.1,0.1,0.2,0.1,0.4,0.2c0.3,0.1,0.4,0.2,0.5,0.4c0.1,0.1,0.1,0.2,0.1,0.3
			c0,0.2-0.1,0.3-0.2,0.4C13.1,21.9,13,22,12.8,22c-0.2,0-0.4,0-0.5-0.2C12.3,21.8,12.3,21.9,12.1,22L12.1,22z"/>
		<path class="st0" d="M15,20h-0.6v1.2c0,0.2,0,0.3,0,0.4c0,0.1,0.1,0.1,0.1,0.2c0.1,0,0.1,0.1,0.2,0.1c0.1,0,0.2-0.1,0.3-0.2l0.1,0
			c-0.1,0.1-0.1,0.2-0.2,0.2C14.7,22,14.6,22,14.5,22c-0.1,0-0.2,0-0.3-0.1c-0.1-0.1-0.1-0.2-0.2-0.2c0-0.1,0-0.3,0-0.5V20h-0.3
			v-0.1c0.1,0,0.3-0.1,0.4-0.2c0.1-0.1,0.2-0.3,0.2-0.5h0.1v0.6H15V20z"/>
		<path class="st0" d="M15.3,20.9c0-0.3,0.1-0.6,0.3-0.8c0.2-0.2,0.5-0.3,0.8-0.3c0.3,0,0.6,0.1,0.8,0.3c0.2,0.2,0.3,0.5,0.3,0.8
			c0,0.3-0.1,0.6-0.3,0.8c-0.2,0.2-0.5,0.3-0.8,0.3c-0.3,0-0.5-0.1-0.8-0.3C15.4,21.5,15.3,21.2,15.3,20.9z M15.7,20.9
			c0,0.4,0.1,0.6,0.2,0.8c0.1,0.1,0.3,0.2,0.5,0.2c0.2,0,0.4-0.1,0.5-0.2c0.1-0.1,0.2-0.4,0.2-0.8c0-0.4-0.1-0.6-0.2-0.8
			c-0.1-0.2-0.3-0.2-0.5-0.2c-0.2,0-0.4,0.1-0.5,0.2C15.7,20.3,15.7,20.6,15.7,20.9z"/>
		<path class="st0" d="M18.3,19.8L18.3,19.8c0.1,0.1,0.1,0.2,0.1,0.4c0.1-0.1,0.2-0.2,0.4-0.3c0.1-0.1,0.3-0.1,0.4-0.1
			c0.2,0,0.3,0,0.4,0.1c0.1,0.1,0.2,0.1,0.2,0.2c0,0.1,0,0.2,0,0.4v0.6c0,0.2,0,0.4,0,0.4c0,0.1,0,0.1,0.1,0.1c0,0,0.1,0,0.2,0v0.1
			h-1v-0.1h0c0.1,0,0.2,0,0.2-0.1c0,0,0.1-0.1,0.1-0.1c0,0,0-0.2,0-0.4v-0.7c0-0.2,0-0.3,0-0.3c0-0.1-0.1-0.1-0.1-0.2
			C19.3,20,19.2,20,19.1,20c-0.1,0-0.2,0-0.3,0.1c-0.1,0.1-0.2,0.2-0.3,0.3v0.8c0,0.2,0,0.4,0,0.4c0,0.1,0,0.1,0.1,0.1
			c0,0,0.1,0,0.2,0v0.1h-1v-0.1c0.1,0,0.2,0,0.2,0c0,0,0.1-0.1,0.1-0.1c0,0,0-0.2,0-0.4v-0.6c0-0.2,0-0.4,0-0.4c0-0.1,0-0.1-0.1-0.1
			c0,0-0.1,0-0.2,0v-0.1C17.9,19.9,18.1,19.9,18.3,19.8z"/>
		<path class="st0" d="M22.3,20.6h-1.4c0,0.1,0,0.2,0,0.2c0,0.4,0.1,0.6,0.2,0.8c0.1,0.2,0.3,0.3,0.5,0.3c0.3,0,0.5-0.1,0.6-0.4h0.1
			c-0.1,0.2-0.2,0.3-0.3,0.4c-0.2,0.1-0.3,0.1-0.5,0.1c-0.2,0-0.3,0-0.5-0.1c-0.2-0.1-0.3-0.2-0.4-0.4c-0.1-0.2-0.1-0.3-0.1-0.6
			c0-0.3,0.1-0.6,0.3-0.8c0.2-0.2,0.4-0.3,0.7-0.3c0.3,0,0.5,0.1,0.6,0.2C22.2,20.2,22.3,20.4,22.3,20.6z M21.9,20.5
			c0,0,0-0.1,0-0.1c0-0.1,0-0.3-0.1-0.3c-0.1-0.1-0.2-0.1-0.3-0.1c-0.3,0-0.5,0.2-0.5,0.6H21.9z"/>
		<path class="st0" d="M22.7,22v-0.7h0.1c0.1,0.4,0.3,0.6,0.6,0.6c0.1,0,0.2,0,0.3-0.1c0.1-0.1,0.1-0.2,0.1-0.2c0-0.1,0-0.2-0.1-0.3
			c-0.1-0.1-0.2-0.1-0.4-0.2c-0.2-0.1-0.3-0.2-0.4-0.3c-0.1-0.1-0.1-0.2-0.1-0.4c0-0.1,0-0.3,0.1-0.4c0.1-0.1,0.2-0.2,0.4-0.2
			c0.2,0,0.3,0,0.5,0.2c0,0,0-0.1,0.1-0.1h0.1v0.6h-0.1c0-0.1-0.1-0.3-0.2-0.4c-0.1-0.1-0.2-0.2-0.3-0.2c-0.1,0-0.2,0-0.2,0.1
			c-0.1,0.1-0.1,0.1-0.1,0.2c0,0.1,0,0.2,0.1,0.2c0.1,0.1,0.2,0.1,0.4,0.2c0.3,0.1,0.4,0.2,0.5,0.4c0.1,0.1,0.1,0.2,0.1,0.3
			c0,0.2-0.1,0.3-0.2,0.4c-0.1,0.1-0.3,0.2-0.4,0.2c-0.2,0-0.4,0-0.5-0.2C22.8,21.8,22.8,21.9,22.7,22L22.7,22z"/>
	</g>
	<path class="st0" d="M4.7,18.6H3.8v0.1c0.2,0,0.3,0.1,0.3,0.3c0,0.1,0,0.2-0.1,0.5l-0.5,1.7L2.7,19c0-0.1,0-0.2,0.1-0.3
		c0,0,0.2,0,0.2,0c0,0,0-0.1,0-0.1H1.9v0.1c0,0,0.1,0,0.2,0c0.1,0,0.1,0.1,0.2,0.2c0,0.1,0,0.1,0,0.2l-0.7,2.1L1,19.3
		c-0.1-0.2-0.1-0.4-0.1-0.4c0-0.1,0-0.1,0.1-0.1c0,0,0.1-0.1,0.3-0.1v-0.1H0v0.1c0.1,0,0.2,0,0.3,0.1c0.1,0,0.1,0.1,0.1,0.2
		c0,0.1,0.1,0.2,0.2,0.5l0.8,2.5h0.1l0.9-2.7l1,2.7h0.1l0.7-2.5c0.1-0.3,0.2-0.5,0.2-0.6c0.1-0.1,0.2-0.1,0.3-0.1V18.6z"/>
</g>
</svg>
