<?xml version="1.0" encoding="utf-8"?>
<!-- Generator: Adobe Illustrator 21.1.0, SVG Export Plug-In . SVG Version: 6.00 Build 0)  -->
<svg version="1.1" id="Layer_1" xmlns="http://www.w3.org/2000/svg" xmlns:xlink="http://www.w3.org/1999/xlink" x="0px" y="0px"
	 viewBox="0 0 24 24" style="enable-background:new 0 0 24 24;" xml:space="preserve">
<style type="text/css">
	.st0{fill:#231F20;}
</style>
<path class="st0" d="M24,3.4h-4.6V4c1.2,0,1.7,0.5,1.7,1.6C21.2,6,21,6.8,20.7,8l-2.6,8.9L13.9,5.5c-0.2-0.6-0.2-1.2,0.5-1.4
	c0.1,0,1-0.2,1-0.1c0,0,0-0.6,0-0.6H9.8v0.6c0.3,0,0.5,0,0.8,0.1c0.5,0.2,0.7,0.7,0.9,1.1c0.1,0.3,0.2,0.7,0.1,1L8.1,16.9L5,7.1
	C4.7,6,4.5,5.3,4.5,5c0-0.3,0.1-0.5,0.3-0.7C5.1,4.1,5.6,4,6.3,4V3.4H0V4c0.6,0,1,0.1,1.3,0.3c0.3,0.2,0.5,0.5,0.6,0.9
	c0.2,0.4,0.4,1.2,0.8,2.4l4.1,13.1h0.6l4.5-13.9L17,20.6h0.6L21.2,8c0.5-1.7,0.9-2.8,1.3-3.2C22.8,4.3,23.3,4,24,4V3.4z"/>
</svg>
