<?xml version="1.0" encoding="UTF-8" standalone="no"?>
<!-- Generator: Adobe Illustrator 21.1.0, SVG Export Plug-In . SVG Version: 6.00 Build 0)  -->

<svg
   xmlns:dc="http://purl.org/dc/elements/1.1/"
   xmlns:cc="http://creativecommons.org/ns#"
   xmlns:rdf="http://www.w3.org/1999/02/22-rdf-syntax-ns#"
   xmlns:svg="http://www.w3.org/2000/svg"
   xmlns="http://www.w3.org/2000/svg"
   xmlns:sodipodi="http://sodipodi.sourceforge.net/DTD/sodipodi-0.dtd"
   xmlns:inkscape="http://www.inkscape.org/namespaces/inkscape"
   version="1.1"
   id="Layer_1"
   x="0px"
   y="0px"
   viewBox="0 0 60 60"
   style="enable-background:new 0 0 60 60;"
   xml:space="preserve"
   inkscape:version="0.91 r13725"
   sodipodi:docname="wave-circle-o.svg"><metadata
     id="metadata4307"><rdf:RDF><cc:Work
         rdf:about=""><dc:format>image/svg+xml</dc:format><dc:type
           rdf:resource="http://purl.org/dc/dcmitype/StillImage" /></cc:Work></rdf:RDF></metadata><defs
     id="defs4305" /><sodipodi:namedview
     pagecolor="#ffffff"
     bordercolor="#666666"
     borderopacity="1"
     objecttolerance="10"
     gridtolerance="10"
     guidetolerance="10"
     inkscape:pageopacity="0"
     inkscape:pageshadow="2"
     inkscape:window-width="1600"
     inkscape:window-height="876"
     id="namedview4303"
     showgrid="false"
     inkscape:zoom="11.125147"
     inkscape:cx="22.159861"
     inkscape:cy="30.162567"
     inkscape:window-x="0"
     inkscape:window-y="24"
     inkscape:window-maximized="1"
     inkscape:current-layer="Layer_1" /><style
     type="text/css"
     id="style4287">
	.st0{fill:#FFFFFF;stroke:#000000;stroke-width:0.9833;stroke-miterlimit:10;}
</style><path
     style="color:#000000;font-style:normal;font-variant:normal;font-weight:normal;font-stretch:normal;font-size:medium;line-height:normal;font-family:sans-serif;text-indent:0;text-align:start;text-decoration:none;text-decoration-line:none;text-decoration-style:solid;text-decoration-color:#000000;letter-spacing:normal;word-spacing:normal;text-transform:none;direction:ltr;block-progression:tb;writing-mode:lr-tb;baseline-shift:baseline;text-anchor:start;white-space:normal;clip-rule:nonzero;display:inline;overflow:visible;visibility:visible;opacity:1;isolation:auto;mix-blend-mode:normal;color-interpolation:sRGB;color-interpolation-filters:linearRGB;solid-color:#000000;solid-opacity:1;fill:#000000;fill-opacity:1;fill-rule:nonzero;stroke:none;stroke-width:0.98329997;stroke-linecap:butt;stroke-linejoin:miter;stroke-miterlimit:10;stroke-dasharray:none;stroke-dashoffset:0;stroke-opacity:1;color-rendering:auto;image-rendering:auto;shape-rendering:auto;text-rendering:auto;enable-background:accumulate"
     d="M 30,0.0078125 C 13.441893,0.0078125 0.0078125,13.441893 0.0078125,30 0.0078125,46.558107 13.441893,59.992188 30,59.992188 46.558107,59.992187 59.992188,46.558107 59.992188,30 59.992187,13.441893 46.558107,0.0078125 30,0.0078125 Z m 0,0.984375 C 46.026693,0.9921875 59.007812,13.973307 59.007812,30 59.007812,46.026693 46.026693,59.007813 30,59.007812 13.973307,59.007812 0.9921875,46.026693 0.9921875,30 0.9921875,13.973307 13.973307,0.9921875 30,0.9921875 Z"
     id="circle4291"
     inkscape:connector-curvature="0" /><path
     inkscape:connector-curvature="0"
     id="path4293"
     d="M 18.3,44 C 17.7,44 17.1,43.8 16.7,43.3 9.3,36 9.3,24 16.6,16.6 c 0.9,-0.9 2.4,-0.9 3.3,0 0.9,0.9 0.9,2.4 0,3.3 -5.6,5.6 -5.6,14.7 0,20.2 0.9,0.9 0.9,2.4 0,3.3 -0.5,0.4 -1.1,0.6 -1.6,0.6 z" /><path
     inkscape:connector-curvature="0"
     id="path4295"
     d="m 41.7,44 c -0.6,0 -1.2,-0.2 -1.6,-0.7 -0.9,-0.9 -0.9,-2.4 0,-3.3 5.6,-5.6 5.6,-14.7 0,-20.2 -0.9,-0.9 -0.9,-2.4 0,-3.3 0.9,-0.9 2.4,-0.9 3.3,0 7.4,7.4 7.4,19.4 0,26.7 -0.5,0.6 -1.1,0.8 -1.7,0.8 z" /><path
     inkscape:connector-curvature="0"
     id="path4297"
     d="m 23.7,38.6 c -0.6,0 -1.2,-0.2 -1.6,-0.7 C 20,35.8 18.8,33 18.8,30 c 0,-3 1.2,-5.8 3.3,-7.9 0.9,-0.9 2.4,-0.9 3.3,0 0.9,0.9 0.9,2.4 0,3.3 -1.2,1.2 -1.9,2.9 -1.9,4.6 0,1.8 0.7,3.4 1.9,4.6 0.9,0.9 0.9,2.4 0,3.3 -0.5,0.4 -1.1,0.7 -1.7,0.7 z" /><path
     inkscape:connector-curvature="0"
     id="path4299"
     d="m 36.3,38.6 c -0.6,0 -1.2,-0.2 -1.6,-0.7 -0.9,-0.9 -0.9,-2.4 0,-3.3 1.2,-1.2 1.9,-2.9 1.9,-4.6 0,-1.8 -0.7,-3.4 -1.9,-4.6 -0.9,-0.9 -0.9,-2.4 0,-3.3 0.9,-0.9 2.4,-0.9 3.3,0 2.1,2.1 3.3,4.9 3.3,7.9 0,3 -1.2,5.8 -3.3,7.9 -0.6,0.4 -1.1,0.7 -1.7,0.7 z" /><circle
     id="circle4301"
     r="3.2"
     cy="29.9"
     cx="29.9" /></svg>