<?xml version="1.0" encoding="UTF-8" standalone="no"?>
<!-- Generator: Adobe Illustrator 21.1.0, SVG Export Plug-In . SVG Version: 6.00 Build 0)  -->

<svg
   xmlns:dc="http://purl.org/dc/elements/1.1/"
   xmlns:cc="http://creativecommons.org/ns#"
   xmlns:rdf="http://www.w3.org/1999/02/22-rdf-syntax-ns#"
   xmlns:svg="http://www.w3.org/2000/svg"
   xmlns="http://www.w3.org/2000/svg"
   xmlns:sodipodi="http://sodipodi.sourceforge.net/DTD/sodipodi-0.dtd"
   xmlns:inkscape="http://www.inkscape.org/namespaces/inkscape"
   version="1.1"
   id="Layer_1"
   x="0px"
   y="0px"
   viewBox="0 0 60 60"
   style="enable-background:new 0 0 60 60;"
   xml:space="preserve"
   inkscape:version="0.91 r13725"
   sodipodi:docname="wave-circle.svg"><metadata
     id="metadata4240"><rdf:RDF><cc:Work
         rdf:about=""><dc:format>image/svg+xml</dc:format><dc:type
           rdf:resource="http://purl.org/dc/dcmitype/StillImage" /><dc:title></dc:title></cc:Work></rdf:RDF></metadata><defs
     id="defs4238" /><sodipodi:namedview
     pagecolor="#ffffff"
     bordercolor="#666666"
     borderopacity="1"
     objecttolerance="10"
     gridtolerance="10"
     guidetolerance="10"
     inkscape:pageopacity="0"
     inkscape:pageshadow="2"
     inkscape:window-width="1600"
     inkscape:window-height="876"
     id="namedview4236"
     showgrid="false"
     inkscape:zoom="12.316667"
     inkscape:cx="30"
     inkscape:cy="30"
     inkscape:window-x="0"
     inkscape:window-y="24"
     inkscape:window-maximized="1"
     inkscape:current-layer="Layer_1" /><style
     type="text/css"
     id="style4220">
	.st0{fill:#FFFFFF;stroke:#000000;stroke-width:0.9833;stroke-miterlimit:10;}
</style><path
     style="color:#000000;font-style:normal;font-variant:normal;font-weight:normal;font-stretch:normal;font-size:medium;line-height:normal;font-family:sans-serif;text-indent:0;text-align:start;text-decoration:none;text-decoration-line:none;text-decoration-style:solid;text-decoration-color:#000000;letter-spacing:normal;word-spacing:normal;text-transform:none;direction:ltr;block-progression:tb;writing-mode:lr-tb;baseline-shift:baseline;text-anchor:start;white-space:normal;clip-rule:nonzero;display:inline;overflow:visible;visibility:visible;opacity:1;isolation:auto;mix-blend-mode:normal;color-interpolation:sRGB;color-interpolation-filters:linearRGB;solid-color:#000000;solid-opacity:1;fill:#000000;fill-opacity:1;fill-rule:nonzero;stroke:none;stroke-width:0.98329997;stroke-linecap:butt;stroke-linejoin:miter;stroke-miterlimit:10;stroke-dasharray:none;stroke-dashoffset:0;stroke-opacity:1;color-rendering:auto;image-rendering:auto;shape-rendering:auto;text-rendering:auto;enable-background:accumulate"
     d="M 30 0.0078125 C 13.441893 0.0078125 0.0078125 13.441893 0.0078125 30 C 0.0078125 46.558107 13.441893 59.992188 30 59.992188 C 46.558107 59.992187 59.992188 46.558107 59.992188 30 C 59.992187 13.441893 46.558107 0.0078125 30 0.0078125 z M 41.75 15.824219 C 42.35 15.824219 42.950391 16.05 43.400391 16.5 C 50.800391 23.9 50.800391 35.899219 43.400391 43.199219 C 42.900391 43.799219 42.299219 44 41.699219 44 C 41.099219 44 40.499609 43.800781 40.099609 43.300781 C 39.199609 42.400781 39.199609 40.9 40.099609 40 C 45.699609 34.4 45.699609 25.300781 40.099609 19.800781 C 39.199609 18.900781 39.199609 17.4 40.099609 16.5 C 40.549609 16.05 41.15 15.824219 41.75 15.824219 z M 18.25 15.925781 C 18.85 15.925781 19.450391 16.149609 19.900391 16.599609 C 20.800391 17.499609 20.800391 19.000391 19.900391 19.900391 C 14.300391 25.500391 14.300391 34.599609 19.900391 40.099609 C 20.800391 40.999609 20.800391 42.500391 19.900391 43.400391 C 19.400391 43.800391 18.800781 44 18.300781 44 C 17.700781 44 17.099219 43.800781 16.699219 43.300781 C 9.299218 36.000781 9.299611 23.999609 16.599609 16.599609 C 17.049609 16.149609 17.65 15.925781 18.25 15.925781 z M 23.75 21.425781 C 24.35 21.425781 24.950391 21.649609 25.400391 22.099609 C 26.300391 22.999609 26.300391 24.500391 25.400391 25.400391 C 24.200391 26.600391 23.5 28.3 23.5 30 C 23.5 31.8 24.200391 33.399609 25.400391 34.599609 C 26.300391 35.499609 26.300391 37.000391 25.400391 37.900391 C 24.900391 38.300391 24.299219 38.599609 23.699219 38.599609 C 23.099219 38.599609 22.499609 38.400391 22.099609 37.900391 C 19.999609 35.800391 18.800781 33 18.800781 30 C 18.800781 27 19.999609 24.199609 22.099609 22.099609 C 22.549609 21.649609 23.15 21.425781 23.75 21.425781 z M 36.349609 21.425781 C 36.949609 21.425781 37.55 21.649609 38 22.099609 C 40.1 24.199609 41.300781 27 41.300781 30 C 41.300781 33 40.1 35.800391 38 37.900391 C 37.4 38.300391 36.900781 38.599609 36.300781 38.599609 C 35.700781 38.599609 35.099219 38.400391 34.699219 37.900391 C 33.799219 37.000391 33.799219 35.499609 34.699219 34.599609 C 35.899219 33.399609 36.599609 31.7 36.599609 30 C 36.599609 28.2 35.899219 26.600391 34.699219 25.400391 C 33.799219 24.500391 33.799219 22.999609 34.699219 22.099609 C 35.149219 21.649609 35.749609 21.425781 36.349609 21.425781 z M 29.900391 26.699219 A 3.2 3.2 0 0 1 33.099609 29.900391 A 3.2 3.2 0 0 1 29.900391 33.099609 A 3.2 3.2 0 0 1 26.699219 29.900391 A 3.2 3.2 0 0 1 29.900391 26.699219 z "
     id="circle4224" /></svg>