<?xml version="1.0" encoding="UTF-8" standalone="no"?>
<!-- Generator: Adobe Illustrator 16.0.4, SVG Export Plug-In . SVG Version: 6.00 Build 0)  -->

<svg
   xmlns:dc="http://purl.org/dc/elements/1.1/"
   xmlns:cc="http://creativecommons.org/ns#"
   xmlns:rdf="http://www.w3.org/1999/02/22-rdf-syntax-ns#"
   xmlns:svg="http://www.w3.org/2000/svg"
   xmlns="http://www.w3.org/2000/svg"
   xmlns:sodipodi="http://sodipodi.sourceforge.net/DTD/sodipodi-0.dtd"
   xmlns:inkscape="http://www.inkscape.org/namespaces/inkscape"
   version="1.1"
   id="Layer_1"
   x="0px"
   y="0px"
   width="40px"
   height="40px"
   viewBox="0 0 40 40"
   enable-background="new 0 0 40 40"
   xml:space="preserve"
   inkscape:version="0.48.4 r9939"
   sodipodi:docname="wishbone-circle2.svg"><metadata
     id="metadata9"><rdf:RDF><cc:Work
         rdf:about=""><dc:format>image/svg+xml</dc:format><dc:type
           rdf:resource="http://purl.org/dc/dcmitype/StillImage" /><dc:title></dc:title></cc:Work></rdf:RDF></metadata><defs
     id="defs7" /><sodipodi:namedview
     pagecolor="#ffffff"
     bordercolor="#666666"
     borderopacity="1"
     objecttolerance="10"
     gridtolerance="10"
     guidetolerance="10"
     inkscape:pageopacity="0"
     inkscape:pageshadow="2"
     inkscape:window-width="1600"
     inkscape:window-height="876"
     id="namedview5"
     showgrid="false"
     inkscape:zoom="11.8"
     inkscape:cx="27.258979"
     inkscape:cy="18.193836"
     inkscape:window-x="0"
     inkscape:window-y="24"
     inkscape:window-maximized="1"
     inkscape:current-layer="Layer_1" /><path
     d="M 20 0 C 8.955 0 0 8.955 0 20 C 0 31.045 8.955 40 20 40 C 31.046 40 40 31.045 40 20 C 40 8.955 31.046 0 20 0 z M 15.125 6.09375 C 15.880448 6.0055279 16.621217 6.2612729 17.21875 6.6875 C 17.816283 7.1137271 18.33205 7.7749674 18.28125 8.625 C 18.247445 9.1836156 18.14695 9.8311368 18.09375 10.4375 C 18.04055 11.043863 18.07367 11.624666 18.125 11.78125 C 18.218891 12.068012 18.743095 12.678728 19.5625 13.34375 C 20.381905 14.008772 21.451739 14.78382 22.5625 15.625 C 24.784022 17.307361 27.191861 19.315291 27.9375 22.0625 C 28.102471 22.669706 28.719331 24.121671 29.03125 25.53125 C 29.18721 26.236039 29.288453 26.961601 29.15625 27.65625 C 29.024047 28.350899 28.561821 29.055247 27.8125 29.375 C 27.402171 29.549362 26.923308 29.45504 26.59375 29.25 C 26.264192 29.04496 26.022975 28.756697 25.84375 28.4375 C 25.485299 27.799107 25.30898 27.008669 25.34375 26.15625 C 25.411169 24.583505 25.872208 22.782829 24.40625 20.96875 C 23.634073 20.012523 22.013614 18.406668 20.4375 17.15625 C 19.649443 16.531041 18.851837 16.000671 18.21875 15.65625 C 17.585663 15.31183 17.07413 15.26413 17.125 15.25 C 17.190565 15.231899 17.077094 15.262883 16.9375 15.4375 C 16.797906 15.612117 16.641776 15.905095 16.46875 16.25 C 16.122697 16.939809 15.752149 17.882595 15.4375 18.84375 C 14.808201 20.76606 14.32818 22.792602 14.25 23.15625 C 14.20147 23.376759 14.13925 24.394641 14.15625 25.28125 C 14.16475 25.724555 14.18299 26.14306 14.21875 26.46875 C 14.23663 26.631595 14.26215 26.78796 14.28125 26.875 C 14.772945 27.630357 16.105634 28.458078 17.15625 29.4375 C 17.681558 29.927211 18.141742 30.48919 18.3125 31.25 C 18.483258 32.01081 18.26597 32.875998 17.65625 33.6875 C 17.44295 33.971007 17.087004 34.1765 16.75 34.21875 C 16.412996 34.260998 16.13181 34.172288 15.875 34.0625 C 15.36138 33.842925 14.928831 33.503626 14.53125 33.125 C 14.133669 32.746374 13.787792 32.341475 13.53125 32.03125 C 13.402979 31.876138 13.29147 31.75104 13.21875 31.65625 C 13.184096 31.601794 13.06539 31.43447 13 31.3125 C 12.845494 31.086649 11.44936 28.992294 11.40625 26.25 C 11.373237 24.200496 11.936057 21.584034 12.53125 19.375 C 12.828847 18.270483 13.126784 17.291236 13.375 16.53125 C 13.623216 15.771264 13.791395 15.318052 13.90625 15.0625 C 14.099939 14.634133 14.331679 13.90213 14.21875 12.53125 C 14.167639 12.372261 13.6875 10.900182 13.6875 9.5625 C 13.6875 9.0195254 13.60117 8.3406485 13.6875 7.6875 C 13.730667 7.3609257 13.83138 7.0084321 14.0625 6.6875 C 14.29362 6.3665679 14.696996 6.143459 15.125 6.09375 z "
     id="path3" /></svg>