<?xml version="1.0" encoding="utf-8"?>
<!-- Generator: Adobe Illustrator 16.0.4, SVG Export Plug-In . SVG Version: 6.00 Build 0)  -->
<!DOCTYPE svg PUBLIC "-//W3C//DTD SVG 1.1//EN" "http://www.w3.org/Graphics/SVG/1.1/DTD/svg11.dtd">
<svg version="1.1" id="Blue" xmlns="http://www.w3.org/2000/svg" xmlns:xlink="http://www.w3.org/1999/xlink" x="0px" y="0px"
	 width="24px" height="24px" viewBox="0 0 24 24" enable-background="new 0 0 24 24" xml:space="preserve">
<g>
	<path d="M7.849,5.073c0,0-0.48-1.547-0.48-2.612S7.152,0.116,8.063,0.01c0.911-0.107,2.143,0.692,2.091,1.597
		C10.1,2.514,9.815,3.995,10.048,4.699c0.694,2.132,7.606,4.851,8.785,9.22c0.362,1.339,2.142,4.957,0.268,5.757
		c-0.668,0.286-1.338-0.959-1.284-2.238c0.053-1.28,0.534-3.251-0.967-5.116s-5.893-5.756-7.233-5.384
		c-1.34,0.373-2.893,6.876-3.054,7.623c-0.159,0.745-0.152,3.488,0.108,3.89c1.178,1.812,4.929,2.825,3.056,5.33
		c-0.787,1.048-3.03-1.996-3.003-1.973c0,0-1.355-1.972-1.394-4.317c-0.054-3.409,1.983-9.328,2.197-9.808
		C7.742,7.205,7.958,6.405,7.849,5.073z"/>
	<line x1="9.956" y1="5.316" x2="9.956" y2="3.877"/>
</g>
</svg>
