<?xml version="1.0" encoding="UTF-8" standalone="no"?>
<!-- Generator: Adobe Illustrator 16.0.4, SVG Export Plug-In . SVG Version: 6.00 Build 0)  -->

<svg
   xmlns:dc="http://purl.org/dc/elements/1.1/"
   xmlns:cc="http://creativecommons.org/ns#"
   xmlns:rdf="http://www.w3.org/1999/02/22-rdf-syntax-ns#"
   xmlns:svg="http://www.w3.org/2000/svg"
   xmlns="http://www.w3.org/2000/svg"
   xmlns:sodipodi="http://sodipodi.sourceforge.net/DTD/sodipodi-0.dtd"
   xmlns:inkscape="http://www.inkscape.org/namespaces/inkscape"
   version="1.1"
   id="Blue"
   x="0px"
   y="0px"
   width="24px"
   height="24px"
   viewBox="0 0 24 24"
   enable-background="new 0 0 24 24"
   xml:space="preserve"
   inkscape:version="0.48.4 r9939"
   sodipodi:docname="wishbone.svg"><metadata
     id="metadata3449"><rdf:RDF><cc:Work
         rdf:about=""><dc:format>image/svg+xml</dc:format><dc:type
           rdf:resource="http://purl.org/dc/dcmitype/StillImage" /></cc:Work></rdf:RDF></metadata><defs
     id="defs3447" /><sodipodi:namedview
     pagecolor="#ffffff"
     bordercolor="#666666"
     borderopacity="1"
     objecttolerance="10"
     gridtolerance="10"
     guidetolerance="10"
     inkscape:pageopacity="0"
     inkscape:pageshadow="2"
     inkscape:window-width="1600"
     inkscape:window-height="876"
     id="namedview3445"
     showgrid="false"
     inkscape:zoom="9.8333333"
     inkscape:cx="-0.10169492"
     inkscape:cy="12"
     inkscape:window-x="0"
     inkscape:window-y="24"
     inkscape:window-maximized="1"
     inkscape:current-layer="Blue" /><g
     id="g3439"
     transform="translate(-0.63689914,-4.9374888e-4)"><path
       d="m 7.849,5.073 c 0,0 -0.48,-1.547 -0.48,-2.612 0,-1.065 -0.217,-2.345 0.694,-2.451 0.911,-0.107 2.143,0.692 2.091,1.597 -0.054,0.907 -0.339,2.388 -0.106,3.092 0.694,2.132 7.606,4.851 8.785,9.22 0.362,1.339 2.142,4.957 0.268,5.757 -0.668,0.286 -1.338,-0.959 -1.284,-2.238 0.053,-1.28 0.534,-3.251 -0.967,-5.116 -1.501,-1.865 -5.893,-5.756 -7.233,-5.384 -1.34,0.373 -2.893,6.876 -3.054,7.623 -0.159,0.745 -0.152,3.488 0.108,3.89 1.178,1.812 4.929,2.825 3.056,5.33 -0.787,1.048 -3.03,-1.996 -3.003,-1.973 0,0 -1.355,-1.972 -1.394,-4.317 C 5.276,14.082 7.313,8.163 7.527,7.683 7.742,7.205 7.958,6.405 7.849,5.073 z"
       id="path3441"
       inkscape:connector-curvature="0" /><line
       x1="9.9560003"
       y1="5.316"
       x2="9.9560003"
       y2="3.8770001"
       id="line3443" /></g></svg>